%
M48
M72
INCH,TZ
T01C0.03200
T02C0.03800
T03C0.04000
T04C0.04400
T05C0.05200
%
T01
X14300Y3500
X16200Y3500
X19000Y3000
X19000Y4000
X21750Y4250
X23500Y4250
X19750Y5250
X18750Y5250
X17750Y5250
X16750Y5250
X15750Y5250
X14750Y5250
X13750Y5250
X12750Y5250
X11750Y5250
X10750Y5250
X9750Y5250
X8750Y5250
X7750Y5250
X6750Y5250
X5000Y5500
X6750Y8250
X7750Y8250
X8750Y8250
X9750Y8250
X10750Y8250
X11750Y8250
X12750Y8250
X13750Y8250
X14750Y8250
X15750Y8250
X16750Y8250
X17750Y8250
X18750Y8250
X19750Y8250
X21750Y7250
X23500Y7250
X26500Y7750
X27500Y7750
X24750Y9000
X23750Y9000
X26500Y9750
X27500Y9750
X27500Y5250
X28500Y5250
X23750Y2250
X22750Y2250
X17000Y1750
X16000Y1750
X5000Y8500
X3750Y9000
X2750Y9000
T02
X1500Y1750
X1500Y2750
X1500Y3750
X1500Y4750
X1500Y5750
X1500Y6750
X18000Y1750
X19000Y1750
X20000Y1750
X21000Y1750
T03
X27000Y2250
X28000Y2250
X29000Y2250
X14750Y1750
X13750Y1750
X12750Y1750
X11750Y1750
X10750Y1750
X9750Y1750
X8750Y1750
X7750Y1750
X6750Y1750
X5530Y2360
X2970Y2360
X2970Y4140
X5530Y4140
X6750Y9500
X7750Y9500
X8750Y9500
X9750Y9500
X10750Y9500
X11750Y9500
X12750Y9500
X13750Y9500
X14750Y9500
X15750Y9500
X16750Y9500
X17750Y9500
X18750Y9500
X19750Y9500
X20750Y9500
X21750Y9500
X29250Y9750
X29250Y8750
T04
X25250Y7000
X25250Y3000
T05
X32250Y4856
X30400Y6037
X32250Y7219
M30
