G75*
%MOIN*%
%OFA0B0*%
%FSLAX25Y25*%
%IPPOS*%
%LPD*%
%AMOC8*
5,1,8,0,0,1.08239X$1,22.5*
%
%ADD10C,0.00200*%
%ADD11C,0.00300*%
%ADD12C,0.00600*%
%ADD13C,0.02000*%
%ADD14R,0.07500X0.05000*%
%ADD15R,0.07000X0.03000*%
%ADD16R,0.03000X0.05000*%
%ADD17C,0.00800*%
%ADD18R,0.10000X0.02000*%
%ADD19R,0.03000X0.07500*%
%ADD20C,0.01000*%
%ADD21C,0.01600*%
D10*
X0061900Y0006900D02*
X0061900Y0009102D01*
X0063001Y0009102D01*
X0063368Y0008735D01*
X0063368Y0008001D01*
X0063001Y0007634D01*
X0061900Y0007634D01*
X0062634Y0007634D02*
X0063368Y0006900D01*
X0064110Y0007267D02*
X0064477Y0006900D01*
X0065211Y0006900D01*
X0065578Y0007267D01*
X0065578Y0007634D01*
X0065211Y0008001D01*
X0064477Y0008001D01*
X0064110Y0008368D01*
X0064110Y0008735D01*
X0064477Y0009102D01*
X0065211Y0009102D01*
X0065578Y0008735D01*
X0066320Y0009102D02*
X0067788Y0009102D01*
X0067054Y0009102D02*
X0067054Y0006900D01*
X0071900Y0007267D02*
X0072267Y0006900D01*
X0073001Y0006900D01*
X0073368Y0007267D01*
X0073368Y0008001D01*
X0072634Y0008001D01*
X0073368Y0008735D02*
X0073001Y0009102D01*
X0072267Y0009102D01*
X0071900Y0008735D01*
X0071900Y0007267D01*
X0074110Y0006900D02*
X0074110Y0009102D01*
X0075578Y0006900D01*
X0075578Y0009102D01*
X0076320Y0009102D02*
X0077421Y0009102D01*
X0077788Y0008735D01*
X0077788Y0007267D01*
X0077421Y0006900D01*
X0076320Y0006900D01*
X0076320Y0009102D01*
X0081900Y0008001D02*
X0083368Y0008001D01*
X0084110Y0008001D02*
X0084844Y0008368D01*
X0085211Y0008368D01*
X0085578Y0008001D01*
X0085578Y0007267D01*
X0085211Y0006900D01*
X0084477Y0006900D01*
X0084110Y0007267D01*
X0084110Y0008001D02*
X0084110Y0009102D01*
X0085578Y0009102D01*
X0086320Y0009102D02*
X0086320Y0007634D01*
X0087054Y0006900D01*
X0087788Y0007634D01*
X0087788Y0009102D01*
X0089400Y0009102D02*
X0090501Y0009102D01*
X0090868Y0008735D01*
X0090868Y0007267D01*
X0090501Y0006900D01*
X0089400Y0006900D01*
X0089400Y0009102D01*
X0091610Y0008735D02*
X0091977Y0009102D01*
X0092711Y0009102D01*
X0093078Y0008735D01*
X0091610Y0007267D01*
X0091977Y0006900D01*
X0092711Y0006900D01*
X0093078Y0007267D01*
X0093078Y0008735D01*
X0091610Y0008735D02*
X0091610Y0007267D01*
X0093820Y0006900D02*
X0095288Y0009102D01*
X0096030Y0009102D02*
X0097131Y0009102D01*
X0097498Y0008735D01*
X0097498Y0008001D01*
X0097131Y0007634D01*
X0096030Y0007634D01*
X0096764Y0007634D02*
X0097498Y0006900D01*
X0098240Y0006900D02*
X0099707Y0009102D01*
X0098240Y0009102D02*
X0099707Y0006900D01*
X0101900Y0006900D02*
X0103001Y0006900D01*
X0103368Y0007267D01*
X0103368Y0008735D01*
X0103001Y0009102D01*
X0101900Y0009102D01*
X0101900Y0006900D01*
X0104110Y0006900D02*
X0105578Y0006900D01*
X0104844Y0006900D02*
X0104844Y0009102D01*
X0104110Y0008368D01*
X0106320Y0006900D02*
X0107788Y0009102D01*
X0108530Y0009102D02*
X0109998Y0009102D01*
X0109264Y0009102D02*
X0109264Y0006900D01*
X0110740Y0006900D02*
X0112207Y0009102D01*
X0110740Y0009102D02*
X0112207Y0006900D01*
X0114400Y0006900D02*
X0115501Y0006900D01*
X0115868Y0007267D01*
X0115868Y0008735D01*
X0115501Y0009102D01*
X0114400Y0009102D01*
X0114400Y0006900D01*
X0116610Y0006900D02*
X0118078Y0008368D01*
X0118078Y0008735D01*
X0117711Y0009102D01*
X0116977Y0009102D01*
X0116610Y0008735D01*
X0116610Y0006900D02*
X0118078Y0006900D01*
X0121900Y0006900D02*
X0123001Y0006900D01*
X0123368Y0007267D01*
X0123368Y0008735D01*
X0123001Y0009102D01*
X0121900Y0009102D01*
X0121900Y0006900D01*
X0124110Y0007267D02*
X0124477Y0006900D01*
X0125211Y0006900D01*
X0125578Y0007267D01*
X0125578Y0007634D01*
X0125211Y0008001D01*
X0124844Y0008001D01*
X0125211Y0008001D02*
X0125578Y0008368D01*
X0125578Y0008735D01*
X0125211Y0009102D01*
X0124477Y0009102D01*
X0124110Y0008735D01*
X0131900Y0009102D02*
X0131900Y0006900D01*
X0133001Y0006900D01*
X0133368Y0007267D01*
X0133368Y0008735D01*
X0133001Y0009102D01*
X0131900Y0009102D01*
X0134110Y0008001D02*
X0135578Y0008001D01*
X0135211Y0009102D02*
X0134110Y0008001D01*
X0135211Y0006900D02*
X0135211Y0009102D01*
X0141900Y0008001D02*
X0143368Y0008001D01*
X0144110Y0008001D02*
X0144844Y0008368D01*
X0145211Y0008368D01*
X0145578Y0008001D01*
X0145578Y0007267D01*
X0145211Y0006900D01*
X0144477Y0006900D01*
X0144110Y0007267D01*
X0144110Y0008001D02*
X0144110Y0009102D01*
X0145578Y0009102D01*
X0146320Y0009102D02*
X0146320Y0007634D01*
X0147054Y0006900D01*
X0147788Y0007634D01*
X0147788Y0009102D01*
X0142634Y0008735D02*
X0142634Y0007267D01*
X0174400Y0006900D02*
X0175501Y0006900D01*
X0175868Y0007267D01*
X0175868Y0008735D01*
X0175501Y0009102D01*
X0174400Y0009102D01*
X0174400Y0006900D01*
X0176610Y0007267D02*
X0176977Y0006900D01*
X0177711Y0006900D01*
X0178078Y0007267D01*
X0178078Y0008001D01*
X0177711Y0008368D01*
X0177344Y0008368D01*
X0176610Y0008001D01*
X0176610Y0009102D01*
X0178078Y0009102D01*
X0184400Y0009102D02*
X0184400Y0006900D01*
X0185501Y0006900D01*
X0185868Y0007267D01*
X0185868Y0008735D01*
X0185501Y0009102D01*
X0184400Y0009102D01*
X0186610Y0008001D02*
X0187711Y0008001D01*
X0188078Y0007634D01*
X0188078Y0007267D01*
X0187711Y0006900D01*
X0186977Y0006900D01*
X0186610Y0007267D01*
X0186610Y0008001D01*
X0187344Y0008735D01*
X0188078Y0009102D01*
X0194400Y0009102D02*
X0194400Y0006900D01*
X0195501Y0006900D01*
X0195868Y0007267D01*
X0195868Y0008735D01*
X0195501Y0009102D01*
X0194400Y0009102D01*
X0196610Y0009102D02*
X0198078Y0009102D01*
X0198078Y0008735D01*
X0196610Y0007267D01*
X0196610Y0006900D01*
X0204400Y0006900D02*
X0204400Y0009102D01*
X0205501Y0009102D01*
X0205868Y0008735D01*
X0205868Y0007267D01*
X0205501Y0006900D01*
X0204400Y0006900D01*
X0206610Y0007267D02*
X0206610Y0007634D01*
X0206977Y0008001D01*
X0207711Y0008001D01*
X0208078Y0007634D01*
X0208078Y0007267D01*
X0207711Y0006900D01*
X0206977Y0006900D01*
X0206610Y0007267D01*
X0206977Y0008001D02*
X0206610Y0008368D01*
X0206610Y0008735D01*
X0206977Y0009102D01*
X0207711Y0009102D01*
X0208078Y0008735D01*
X0208078Y0008368D01*
X0207711Y0008001D01*
X0096030Y0006900D02*
X0096030Y0009102D01*
X0082634Y0008735D02*
X0082634Y0007267D01*
X0081900Y0096900D02*
X0081900Y0098368D01*
X0082634Y0099102D01*
X0083368Y0098368D01*
X0083368Y0096900D01*
X0084110Y0097267D02*
X0084477Y0096900D01*
X0085211Y0096900D01*
X0085578Y0097267D01*
X0085578Y0097634D01*
X0085211Y0098001D01*
X0084844Y0098001D01*
X0085211Y0098001D02*
X0085578Y0098368D01*
X0085578Y0098735D01*
X0085211Y0099102D01*
X0084477Y0099102D01*
X0084110Y0098735D01*
X0083368Y0098001D02*
X0081900Y0098001D01*
X0075578Y0098001D02*
X0074110Y0098001D01*
X0075211Y0099102D01*
X0075211Y0096900D01*
X0073368Y0096900D02*
X0073368Y0098368D01*
X0072634Y0099102D01*
X0071900Y0098368D01*
X0071900Y0096900D01*
X0065578Y0097267D02*
X0065211Y0096900D01*
X0064477Y0096900D01*
X0064110Y0097267D01*
X0064110Y0098001D02*
X0064844Y0098368D01*
X0065211Y0098368D01*
X0065578Y0098001D01*
X0065578Y0097267D01*
X0064110Y0098001D02*
X0064110Y0099102D01*
X0065578Y0099102D01*
X0063368Y0098368D02*
X0063368Y0096900D01*
X0061900Y0096900D02*
X0061900Y0098368D01*
X0062634Y0099102D01*
X0063368Y0098368D01*
X0063368Y0098001D02*
X0061900Y0098001D01*
X0071900Y0098001D02*
X0073368Y0098001D01*
X0091900Y0098001D02*
X0093368Y0098001D01*
X0093368Y0098368D02*
X0093368Y0096900D01*
X0094110Y0096900D02*
X0095578Y0098368D01*
X0095578Y0098735D01*
X0095211Y0099102D01*
X0094477Y0099102D01*
X0094110Y0098735D01*
X0093368Y0098368D02*
X0092634Y0099102D01*
X0091900Y0098368D01*
X0091900Y0096900D01*
X0094110Y0096900D02*
X0095578Y0096900D01*
X0101900Y0096900D02*
X0101900Y0098368D01*
X0102634Y0099102D01*
X0103368Y0098368D01*
X0103368Y0096900D01*
X0104110Y0096900D02*
X0105578Y0096900D01*
X0104844Y0096900D02*
X0104844Y0099102D01*
X0104110Y0098368D01*
X0103368Y0098001D02*
X0101900Y0098001D01*
X0111900Y0098001D02*
X0113368Y0098001D01*
X0113368Y0098368D02*
X0113368Y0096900D01*
X0114110Y0097267D02*
X0115578Y0098735D01*
X0115578Y0097267D01*
X0115211Y0096900D01*
X0114477Y0096900D01*
X0114110Y0097267D01*
X0114110Y0098735D01*
X0114477Y0099102D01*
X0115211Y0099102D01*
X0115578Y0098735D01*
X0113368Y0098368D02*
X0112634Y0099102D01*
X0111900Y0098368D01*
X0111900Y0096900D01*
X0120270Y0097367D02*
X0120637Y0097000D01*
X0121371Y0097000D01*
X0121738Y0097367D01*
X0121738Y0098101D01*
X0121004Y0098101D01*
X0120270Y0098835D02*
X0120270Y0097367D01*
X0120270Y0098835D02*
X0120637Y0099202D01*
X0121371Y0099202D01*
X0121738Y0098835D01*
X0122480Y0099202D02*
X0122480Y0097000D01*
X0123948Y0097000D02*
X0123948Y0099202D01*
X0124690Y0099202D02*
X0125791Y0099202D01*
X0126158Y0098835D01*
X0126158Y0097367D01*
X0125791Y0097000D01*
X0124690Y0097000D01*
X0124690Y0099202D01*
X0122480Y0099202D02*
X0123948Y0097000D01*
X0130560Y0097000D02*
X0130560Y0098468D01*
X0131294Y0099202D01*
X0132028Y0098468D01*
X0132028Y0097000D01*
X0132770Y0097000D02*
X0132770Y0099202D01*
X0133871Y0099202D01*
X0134238Y0098835D01*
X0134238Y0098101D01*
X0133871Y0097734D01*
X0132770Y0097734D01*
X0133504Y0097734D02*
X0134238Y0097000D01*
X0134980Y0097000D02*
X0136448Y0097000D01*
X0137190Y0097000D02*
X0137190Y0099202D01*
X0138658Y0099202D01*
X0137924Y0098101D02*
X0137190Y0098101D01*
X0136448Y0099202D02*
X0134980Y0099202D01*
X0134980Y0097000D01*
X0134980Y0098101D02*
X0135714Y0098101D01*
X0132028Y0098101D02*
X0130560Y0098101D01*
X0140270Y0098101D02*
X0141738Y0098101D01*
X0142480Y0098101D02*
X0143214Y0098468D01*
X0143581Y0098468D01*
X0143948Y0098101D01*
X0143948Y0097367D01*
X0143581Y0097000D01*
X0142847Y0097000D01*
X0142480Y0097367D01*
X0142480Y0098101D02*
X0142480Y0099202D01*
X0143948Y0099202D01*
X0144690Y0099202D02*
X0144690Y0097734D01*
X0145424Y0097000D01*
X0146158Y0097734D01*
X0146158Y0099202D01*
X0150270Y0099202D02*
X0151371Y0099202D01*
X0151738Y0098835D01*
X0151738Y0097367D01*
X0151371Y0097000D01*
X0150270Y0097000D01*
X0150270Y0099202D01*
X0152480Y0098468D02*
X0153214Y0099202D01*
X0153214Y0097000D01*
X0152480Y0097000D02*
X0153948Y0097000D01*
X0154690Y0097367D02*
X0155057Y0097000D01*
X0155791Y0097000D01*
X0156158Y0097367D01*
X0156158Y0097734D01*
X0155791Y0098101D01*
X0155424Y0098101D01*
X0155791Y0098101D02*
X0156158Y0098468D01*
X0156158Y0098835D01*
X0155791Y0099202D01*
X0155057Y0099202D01*
X0154690Y0098835D01*
X0160270Y0099202D02*
X0160270Y0097000D01*
X0161371Y0097000D01*
X0161738Y0097367D01*
X0161738Y0098835D01*
X0161371Y0099202D01*
X0160270Y0099202D01*
X0162480Y0098468D02*
X0163214Y0099202D01*
X0163214Y0097000D01*
X0162480Y0097000D02*
X0163948Y0097000D01*
X0164690Y0097000D02*
X0166158Y0098468D01*
X0166158Y0098835D01*
X0165791Y0099202D01*
X0165057Y0099202D01*
X0164690Y0098835D01*
X0164690Y0097000D02*
X0166158Y0097000D01*
X0170270Y0097000D02*
X0171371Y0097000D01*
X0171738Y0097367D01*
X0171738Y0098835D01*
X0171371Y0099202D01*
X0170270Y0099202D01*
X0170270Y0097000D01*
X0172480Y0097000D02*
X0173948Y0097000D01*
X0173214Y0097000D02*
X0173214Y0099202D01*
X0172480Y0098468D01*
X0174690Y0098468D02*
X0175424Y0099202D01*
X0175424Y0097000D01*
X0174690Y0097000D02*
X0176158Y0097000D01*
X0180270Y0097000D02*
X0181371Y0097000D01*
X0181738Y0097367D01*
X0181738Y0098835D01*
X0181371Y0099202D01*
X0180270Y0099202D01*
X0180270Y0097000D01*
X0182480Y0097000D02*
X0183948Y0097000D01*
X0183214Y0097000D02*
X0183214Y0099202D01*
X0182480Y0098468D01*
X0184690Y0098835D02*
X0185057Y0099202D01*
X0185791Y0099202D01*
X0186158Y0098835D01*
X0184690Y0097367D01*
X0185057Y0097000D01*
X0185791Y0097000D01*
X0186158Y0097367D01*
X0186158Y0098835D01*
X0184690Y0098835D02*
X0184690Y0097367D01*
X0192480Y0097000D02*
X0193581Y0097000D01*
X0193948Y0097367D01*
X0193948Y0098835D01*
X0193581Y0099202D01*
X0192480Y0099202D01*
X0192480Y0097000D01*
X0194690Y0097367D02*
X0195057Y0097000D01*
X0195791Y0097000D01*
X0196158Y0097367D01*
X0196158Y0098835D01*
X0195791Y0099202D01*
X0195057Y0099202D01*
X0194690Y0098835D01*
X0194690Y0098468D01*
X0195057Y0098101D01*
X0196158Y0098101D01*
X0201900Y0098735D02*
X0201900Y0097267D01*
X0202267Y0096900D01*
X0203001Y0096900D01*
X0203368Y0097267D01*
X0203368Y0098001D01*
X0202634Y0098001D01*
X0203368Y0098735D02*
X0203001Y0099102D01*
X0202267Y0099102D01*
X0201900Y0098735D01*
X0204110Y0099102D02*
X0205578Y0096900D01*
X0205578Y0099102D01*
X0206320Y0099102D02*
X0207421Y0099102D01*
X0207788Y0098735D01*
X0207788Y0097267D01*
X0207421Y0096900D01*
X0206320Y0096900D01*
X0206320Y0099102D01*
X0204110Y0099102D02*
X0204110Y0096900D01*
X0211900Y0098001D02*
X0213368Y0098001D01*
X0214110Y0098001D02*
X0214844Y0098368D01*
X0215211Y0098368D01*
X0215578Y0098001D01*
X0215578Y0097267D01*
X0215211Y0096900D01*
X0214477Y0096900D01*
X0214110Y0097267D01*
X0214110Y0098001D02*
X0214110Y0099102D01*
X0215578Y0099102D01*
X0216320Y0099102D02*
X0216320Y0097634D01*
X0217054Y0096900D01*
X0217788Y0097634D01*
X0217788Y0099102D01*
X0212634Y0098735D02*
X0212634Y0097267D01*
X0141004Y0097367D02*
X0141004Y0098835D01*
D11*
X0017434Y0011950D02*
X0016950Y0012434D01*
X0016950Y0014369D01*
X0017434Y0014852D01*
X0018401Y0014852D01*
X0018885Y0014369D01*
X0018885Y0013401D02*
X0017917Y0013401D01*
X0018885Y0013401D02*
X0018885Y0012434D01*
X0018401Y0011950D01*
X0017434Y0011950D01*
X0019897Y0011950D02*
X0019897Y0014852D01*
X0021831Y0011950D01*
X0021831Y0014852D01*
X0022843Y0014852D02*
X0024294Y0014852D01*
X0024778Y0014369D01*
X0024778Y0012434D01*
X0024294Y0011950D01*
X0022843Y0011950D01*
X0022843Y0014852D01*
X0023327Y0031950D02*
X0024294Y0031950D01*
X0024778Y0032434D01*
X0023327Y0031950D02*
X0022843Y0032434D01*
X0022843Y0034369D01*
X0023327Y0034852D01*
X0024294Y0034852D01*
X0024778Y0034369D01*
X0021831Y0034369D02*
X0021348Y0034852D01*
X0020380Y0034852D01*
X0019897Y0034369D01*
X0019897Y0032434D01*
X0020380Y0031950D01*
X0021348Y0031950D01*
X0021831Y0032434D01*
X0018885Y0032917D02*
X0018885Y0034852D01*
X0016950Y0034852D02*
X0016950Y0032917D01*
X0017917Y0031950D01*
X0018885Y0032917D01*
X0017917Y0041950D02*
X0017917Y0044852D01*
X0016950Y0044852D02*
X0018885Y0044852D01*
X0019897Y0044852D02*
X0021831Y0041950D01*
X0019897Y0041950D02*
X0021831Y0044852D01*
X0021831Y0051950D02*
X0019897Y0054852D01*
X0018885Y0054369D02*
X0018885Y0053401D01*
X0018401Y0052917D01*
X0016950Y0052917D01*
X0016950Y0051950D02*
X0016950Y0054852D01*
X0018401Y0054852D01*
X0018885Y0054369D01*
X0019897Y0051950D02*
X0021831Y0054852D01*
X0018885Y0051950D02*
X0017917Y0052917D01*
X0018401Y0061950D02*
X0016950Y0061950D01*
X0016950Y0064852D01*
X0018401Y0064852D01*
X0018885Y0064369D01*
X0018885Y0062434D01*
X0018401Y0061950D01*
X0020864Y0061950D02*
X0020864Y0064852D01*
X0019897Y0064852D02*
X0021831Y0064852D01*
X0022843Y0064852D02*
X0024294Y0064852D01*
X0024778Y0064369D01*
X0024778Y0063401D01*
X0024294Y0062917D01*
X0022843Y0062917D01*
X0022843Y0061950D02*
X0022843Y0064852D01*
X0023811Y0062917D02*
X0024778Y0061950D01*
X0038748Y0064450D02*
X0038748Y0065901D01*
X0039231Y0066385D01*
X0040199Y0066385D01*
X0040683Y0065901D01*
X0040683Y0064450D01*
X0041650Y0064450D02*
X0038748Y0064450D01*
X0040683Y0065417D02*
X0041650Y0066385D01*
X0041650Y0067397D02*
X0041650Y0069331D01*
X0041650Y0068364D02*
X0038748Y0068364D01*
X0039715Y0067397D01*
X0051248Y0067880D02*
X0051248Y0068848D01*
X0051731Y0069331D01*
X0053666Y0067397D01*
X0054150Y0067880D01*
X0054150Y0068848D01*
X0053666Y0069331D01*
X0051731Y0069331D01*
X0051248Y0070343D02*
X0054150Y0070343D01*
X0053183Y0070343D02*
X0052215Y0071794D01*
X0053183Y0070343D02*
X0054150Y0071794D01*
X0053666Y0067397D02*
X0051731Y0067397D01*
X0051248Y0067880D01*
X0054150Y0066385D02*
X0054150Y0064450D01*
X0054150Y0065417D02*
X0051248Y0065417D01*
X0052215Y0064450D01*
X0031831Y0077434D02*
X0031831Y0077917D01*
X0031348Y0078401D01*
X0029897Y0078401D01*
X0029897Y0077434D01*
X0030380Y0076950D01*
X0031348Y0076950D01*
X0031831Y0077434D01*
X0029897Y0078401D02*
X0030864Y0079369D01*
X0031831Y0079852D01*
X0028885Y0079369D02*
X0028401Y0079852D01*
X0027434Y0079852D01*
X0026950Y0079369D01*
X0026950Y0077434D01*
X0027434Y0076950D01*
X0028401Y0076950D01*
X0028885Y0077434D01*
X0028870Y0094450D02*
X0030805Y0094450D01*
X0029837Y0094450D02*
X0029837Y0097352D01*
X0028870Y0096385D01*
X0027880Y0094934D02*
X0027397Y0094934D01*
X0027397Y0094450D01*
X0027880Y0094450D01*
X0027880Y0094934D01*
X0026385Y0094934D02*
X0025901Y0094450D01*
X0024934Y0094450D01*
X0024450Y0094934D01*
X0026385Y0096869D01*
X0026385Y0094934D01*
X0026385Y0096869D02*
X0025901Y0097352D01*
X0024934Y0097352D01*
X0024450Y0096869D01*
X0024450Y0094934D01*
X0031816Y0094934D02*
X0032300Y0094450D01*
X0033751Y0094450D01*
X0033751Y0096385D01*
X0034763Y0095901D02*
X0035730Y0095901D01*
X0034763Y0094450D02*
X0034763Y0097352D01*
X0036698Y0097352D01*
X0031816Y0096385D02*
X0031816Y0094934D01*
X0099450Y0063885D02*
X0100417Y0064852D01*
X0101385Y0063885D01*
X0101385Y0061950D01*
X0101385Y0063401D02*
X0099450Y0063401D01*
X0099450Y0063885D02*
X0099450Y0061950D01*
X0103364Y0061950D02*
X0103364Y0064852D01*
X0102397Y0064852D02*
X0104331Y0064852D01*
X0105343Y0064852D02*
X0106311Y0063885D01*
X0107278Y0064852D01*
X0107278Y0061950D01*
X0108290Y0061950D02*
X0110225Y0061950D01*
X0111236Y0062434D02*
X0111720Y0061950D01*
X0112687Y0061950D01*
X0113171Y0062434D01*
X0113171Y0063401D01*
X0112204Y0063401D01*
X0113171Y0064369D02*
X0112687Y0064852D01*
X0111720Y0064852D01*
X0111236Y0064369D01*
X0111236Y0062434D01*
X0109257Y0063401D02*
X0108290Y0063401D01*
X0108290Y0064852D02*
X0108290Y0061950D01*
X0105343Y0061950D02*
X0105343Y0064852D01*
X0108290Y0064852D02*
X0110225Y0064852D01*
X0114183Y0063885D02*
X0115150Y0064852D01*
X0116118Y0063885D01*
X0116118Y0061950D01*
X0117129Y0062434D02*
X0117613Y0061950D01*
X0118580Y0061950D01*
X0119064Y0062434D01*
X0119064Y0062917D01*
X0118580Y0063401D01*
X0118097Y0063401D01*
X0118580Y0063401D02*
X0119064Y0063885D01*
X0119064Y0064369D01*
X0118580Y0064852D01*
X0117613Y0064852D01*
X0117129Y0064369D01*
X0116118Y0063401D02*
X0114183Y0063401D01*
X0114183Y0063885D02*
X0114183Y0061950D01*
X0120076Y0061950D02*
X0122011Y0063885D01*
X0122011Y0064369D01*
X0121527Y0064852D01*
X0120559Y0064852D01*
X0120076Y0064369D01*
X0123022Y0064369D02*
X0123022Y0063885D01*
X0123506Y0063401D01*
X0124473Y0063401D01*
X0124957Y0062917D01*
X0124957Y0062434D01*
X0124473Y0061950D01*
X0123506Y0061950D01*
X0123022Y0062434D01*
X0123022Y0062917D01*
X0123506Y0063401D01*
X0124473Y0063401D02*
X0124957Y0063885D01*
X0124957Y0064369D01*
X0124473Y0064852D01*
X0123506Y0064852D01*
X0123022Y0064369D01*
X0122011Y0061950D02*
X0120076Y0061950D01*
X0141950Y0043885D02*
X0142917Y0044852D01*
X0142917Y0041950D01*
X0141950Y0041950D02*
X0143885Y0041950D01*
X0144897Y0042434D02*
X0144897Y0043401D01*
X0146348Y0043401D01*
X0146831Y0042917D01*
X0146831Y0042434D01*
X0146348Y0041950D01*
X0145380Y0041950D01*
X0144897Y0042434D01*
X0144897Y0043401D02*
X0145864Y0044369D01*
X0146831Y0044852D01*
X0147843Y0044852D02*
X0148811Y0043885D01*
X0149778Y0044852D01*
X0149778Y0041950D01*
X0150790Y0041950D02*
X0150790Y0044852D01*
X0152725Y0044852D02*
X0152725Y0041950D01*
X0153736Y0041950D02*
X0155671Y0041950D01*
X0153736Y0041950D02*
X0153736Y0042434D01*
X0155671Y0044369D01*
X0155671Y0044852D01*
X0153736Y0044852D01*
X0147843Y0044852D02*
X0147843Y0041950D01*
X0150790Y0043401D02*
X0152725Y0043401D01*
X0177699Y0034331D02*
X0177699Y0032397D01*
X0176248Y0033848D01*
X0179150Y0033848D01*
X0178666Y0031385D02*
X0179150Y0030901D01*
X0179150Y0029934D01*
X0178666Y0029450D01*
X0176731Y0029450D01*
X0176248Y0029934D01*
X0176248Y0030901D01*
X0176731Y0031385D01*
X0193748Y0031348D02*
X0193748Y0030380D01*
X0194231Y0029897D01*
X0194231Y0028885D02*
X0193748Y0028401D01*
X0193748Y0027434D01*
X0194231Y0026950D01*
X0194715Y0028885D02*
X0196650Y0026950D01*
X0196650Y0028885D01*
X0196650Y0029897D02*
X0194715Y0031831D01*
X0194231Y0031831D01*
X0193748Y0031348D01*
X0194715Y0032843D02*
X0194715Y0034294D01*
X0195199Y0034778D01*
X0196166Y0034778D01*
X0196650Y0034294D01*
X0196650Y0032843D01*
X0197617Y0032843D02*
X0194715Y0032843D01*
X0196650Y0031831D02*
X0196650Y0029897D01*
X0194715Y0028885D02*
X0194231Y0028885D01*
X0193748Y0035790D02*
X0193748Y0037725D01*
X0195199Y0036757D02*
X0195199Y0035790D01*
X0196650Y0035790D02*
X0193748Y0035790D01*
X0233748Y0044450D02*
X0233748Y0045901D01*
X0234231Y0046385D01*
X0236166Y0046385D01*
X0236650Y0045901D01*
X0236650Y0044450D01*
X0233748Y0044450D01*
X0234715Y0047397D02*
X0233748Y0048364D01*
X0236650Y0048364D01*
X0236650Y0047397D02*
X0236650Y0049331D01*
X0231650Y0054450D02*
X0231650Y0056385D01*
X0231650Y0055417D02*
X0228748Y0055417D01*
X0229715Y0054450D01*
X0228748Y0057397D02*
X0231650Y0057397D01*
X0230683Y0057397D02*
X0229715Y0058848D01*
X0230683Y0057397D02*
X0231650Y0058848D01*
X0219150Y0059331D02*
X0219150Y0057397D01*
X0217215Y0059331D01*
X0216731Y0059331D01*
X0216248Y0058848D01*
X0216248Y0057880D01*
X0216731Y0057397D01*
X0216731Y0056385D02*
X0216248Y0055901D01*
X0216248Y0054450D01*
X0219150Y0054450D01*
X0218183Y0054450D02*
X0218183Y0055901D01*
X0217699Y0056385D01*
X0216731Y0056385D01*
X0218183Y0055417D02*
X0219150Y0056385D01*
X0251248Y0055634D02*
X0252699Y0054183D01*
X0252699Y0056118D01*
X0254150Y0055634D02*
X0251248Y0055634D01*
X0251731Y0053171D02*
X0253666Y0051236D01*
X0254150Y0051720D01*
X0254150Y0052687D01*
X0253666Y0053171D01*
X0251731Y0053171D01*
X0251248Y0052687D01*
X0251248Y0051720D01*
X0251731Y0051236D01*
X0253666Y0051236D01*
X0253666Y0050225D02*
X0254150Y0049741D01*
X0254150Y0048773D01*
X0253666Y0048290D01*
X0251731Y0050225D01*
X0253666Y0050225D01*
X0251731Y0050225D02*
X0251248Y0049741D01*
X0251248Y0048773D01*
X0251731Y0048290D01*
X0253666Y0048290D01*
X0252699Y0047278D02*
X0252699Y0045343D01*
X0251248Y0046794D01*
X0254150Y0046794D01*
X0254150Y0044331D02*
X0251248Y0044331D01*
X0251248Y0042397D02*
X0254150Y0044331D01*
X0254150Y0042397D02*
X0251248Y0042397D01*
X0254150Y0041385D02*
X0254150Y0039450D01*
X0254150Y0040417D02*
X0251248Y0040417D01*
X0252215Y0039450D01*
X0271950Y0039450D02*
X0273885Y0039450D01*
X0272917Y0039450D02*
X0272917Y0042352D01*
X0271950Y0041385D01*
X0274897Y0041869D02*
X0274897Y0039934D01*
X0276831Y0041869D01*
X0276831Y0039934D01*
X0276348Y0039450D01*
X0275380Y0039450D01*
X0274897Y0039934D01*
X0277843Y0039934D02*
X0278327Y0039450D01*
X0279778Y0039450D01*
X0279778Y0041385D01*
X0280790Y0040901D02*
X0281757Y0040901D01*
X0280790Y0039450D02*
X0280790Y0042352D01*
X0282725Y0042352D01*
X0277843Y0041385D02*
X0277843Y0039934D01*
X0276831Y0041869D02*
X0276348Y0042352D01*
X0275380Y0042352D01*
X0274897Y0041869D01*
X0274934Y0056950D02*
X0274450Y0057434D01*
X0274450Y0059369D01*
X0274934Y0059852D01*
X0275901Y0059852D01*
X0276385Y0059369D01*
X0277397Y0058885D02*
X0278364Y0059852D01*
X0278364Y0056950D01*
X0277397Y0056950D02*
X0279331Y0056950D01*
X0276385Y0057434D02*
X0275901Y0056950D01*
X0274934Y0056950D01*
X0268290Y0066950D02*
X0268290Y0069852D01*
X0270225Y0069852D01*
X0269257Y0068401D02*
X0268290Y0068401D01*
X0267278Y0068885D02*
X0267278Y0066950D01*
X0265827Y0066950D01*
X0265343Y0067434D01*
X0265343Y0068885D01*
X0264331Y0069369D02*
X0262397Y0067434D01*
X0262880Y0066950D01*
X0263848Y0066950D01*
X0264331Y0067434D01*
X0264331Y0069369D01*
X0263848Y0069852D01*
X0262880Y0069852D01*
X0262397Y0069369D01*
X0262397Y0067434D01*
X0261385Y0066950D02*
X0259450Y0066950D01*
X0260417Y0066950D02*
X0260417Y0069852D01*
X0259450Y0068885D01*
X0239763Y0076950D02*
X0239763Y0079852D01*
X0241698Y0079852D01*
X0240730Y0078401D02*
X0239763Y0078401D01*
X0238751Y0078885D02*
X0238751Y0076950D01*
X0237300Y0076950D01*
X0236816Y0077434D01*
X0236816Y0078885D01*
X0234837Y0079852D02*
X0234837Y0076950D01*
X0233870Y0076950D02*
X0235805Y0076950D01*
X0232880Y0076950D02*
X0232397Y0076950D01*
X0232397Y0077434D01*
X0232880Y0077434D01*
X0232880Y0076950D01*
X0231385Y0077434D02*
X0230901Y0076950D01*
X0229934Y0076950D01*
X0229450Y0077434D01*
X0231385Y0079369D01*
X0231385Y0077434D01*
X0229450Y0077434D02*
X0229450Y0079369D01*
X0229934Y0079852D01*
X0230901Y0079852D01*
X0231385Y0079369D01*
X0233870Y0078885D02*
X0234837Y0079852D01*
X0261950Y0084934D02*
X0262434Y0084450D01*
X0263401Y0084450D01*
X0263885Y0084934D01*
X0264897Y0084450D02*
X0266831Y0086385D01*
X0266831Y0086869D01*
X0266348Y0087352D01*
X0265380Y0087352D01*
X0264897Y0086869D01*
X0263885Y0086869D02*
X0263401Y0087352D01*
X0262434Y0087352D01*
X0261950Y0086869D01*
X0261950Y0084934D01*
X0264897Y0084450D02*
X0266831Y0084450D01*
X0236831Y0094934D02*
X0236348Y0094450D01*
X0235380Y0094450D01*
X0234897Y0094934D01*
X0233885Y0094934D02*
X0233401Y0094450D01*
X0232434Y0094450D01*
X0231950Y0094934D01*
X0231950Y0096869D01*
X0232434Y0097352D01*
X0233401Y0097352D01*
X0233885Y0096869D01*
X0234897Y0096869D02*
X0235380Y0097352D01*
X0236348Y0097352D01*
X0236831Y0096869D01*
X0236831Y0096385D01*
X0236348Y0095901D01*
X0236831Y0095417D01*
X0236831Y0094934D01*
X0236348Y0095901D02*
X0235864Y0095901D01*
X0164331Y0022352D02*
X0162397Y0022352D01*
X0162397Y0020901D01*
X0163364Y0021385D01*
X0163848Y0021385D01*
X0164331Y0020901D01*
X0164331Y0019934D01*
X0163848Y0019450D01*
X0162880Y0019450D01*
X0162397Y0019934D01*
X0161385Y0019934D02*
X0160901Y0019450D01*
X0159934Y0019450D01*
X0159450Y0019934D01*
X0159450Y0021869D01*
X0159934Y0022352D01*
X0160901Y0022352D01*
X0161385Y0021869D01*
X0161348Y0009852D02*
X0160380Y0009852D01*
X0159897Y0009369D01*
X0158885Y0009369D02*
X0158401Y0009852D01*
X0157434Y0009852D01*
X0156950Y0009369D01*
X0158885Y0009369D02*
X0158885Y0008885D01*
X0156950Y0006950D01*
X0158885Y0006950D01*
X0159897Y0006950D02*
X0161831Y0008885D01*
X0161831Y0009369D01*
X0161348Y0009852D01*
X0162843Y0008885D02*
X0164294Y0008885D01*
X0164778Y0008401D01*
X0164778Y0007434D01*
X0164294Y0006950D01*
X0162843Y0006950D01*
X0162843Y0005983D02*
X0162843Y0008885D01*
X0165790Y0008401D02*
X0166757Y0008401D01*
X0165790Y0006950D02*
X0165790Y0009852D01*
X0167725Y0009852D01*
X0161831Y0006950D02*
X0159897Y0006950D01*
X0219450Y0009450D02*
X0221385Y0009450D01*
X0222397Y0009450D02*
X0224331Y0009450D01*
X0225343Y0009450D02*
X0226794Y0009450D01*
X0227278Y0009934D01*
X0227278Y0011869D01*
X0226794Y0012352D01*
X0225343Y0012352D01*
X0225343Y0009450D01*
X0222397Y0009450D02*
X0222397Y0012352D01*
X0224331Y0012352D01*
X0223364Y0010901D02*
X0222397Y0010901D01*
X0219450Y0012352D02*
X0219450Y0009450D01*
X0269450Y0009852D02*
X0269450Y0006950D01*
X0271385Y0006950D01*
X0272397Y0006950D02*
X0272397Y0009852D01*
X0273364Y0008885D01*
X0274331Y0009852D01*
X0274331Y0006950D01*
X0275343Y0006950D02*
X0275343Y0007434D01*
X0277278Y0009369D01*
X0277278Y0009852D01*
X0275343Y0009852D01*
X0278290Y0009369D02*
X0278290Y0008885D01*
X0278773Y0008401D01*
X0279741Y0008401D01*
X0280225Y0007917D01*
X0280225Y0007434D01*
X0279741Y0006950D01*
X0278773Y0006950D01*
X0278290Y0007434D01*
X0278290Y0007917D01*
X0278773Y0008401D01*
X0279741Y0008401D02*
X0280225Y0008885D01*
X0280225Y0009369D01*
X0279741Y0009852D01*
X0278773Y0009852D01*
X0278290Y0009369D01*
X0281236Y0009369D02*
X0281720Y0009852D01*
X0282687Y0009852D01*
X0283171Y0009369D01*
X0281236Y0007434D01*
X0281720Y0006950D01*
X0282687Y0006950D01*
X0283171Y0007434D01*
X0283171Y0009369D01*
X0284183Y0009852D02*
X0284183Y0008401D01*
X0285150Y0008885D01*
X0285634Y0008885D01*
X0286118Y0008401D01*
X0286118Y0007434D01*
X0285634Y0006950D01*
X0284666Y0006950D01*
X0284183Y0007434D01*
X0281236Y0007434D02*
X0281236Y0009369D01*
X0284183Y0009852D02*
X0286118Y0009852D01*
D12*
X0296800Y0013800D02*
X0296800Y0025300D01*
X0295800Y0026300D01*
X0257800Y0026300D01*
X0256800Y0025300D01*
X0256800Y0013800D01*
X0221800Y0015800D02*
X0221648Y0015802D01*
X0221497Y0015808D01*
X0221346Y0015817D01*
X0221194Y0015831D01*
X0221044Y0015848D01*
X0220894Y0015869D01*
X0220744Y0015894D01*
X0220595Y0015922D01*
X0220447Y0015955D01*
X0220300Y0015991D01*
X0220153Y0016030D01*
X0220008Y0016074D01*
X0219864Y0016121D01*
X0219721Y0016172D01*
X0219580Y0016226D01*
X0219439Y0016284D01*
X0219301Y0016345D01*
X0219164Y0016410D01*
X0219028Y0016479D01*
X0218895Y0016550D01*
X0218763Y0016625D01*
X0218633Y0016704D01*
X0218506Y0016785D01*
X0218380Y0016870D01*
X0218256Y0016958D01*
X0218135Y0017049D01*
X0218016Y0017143D01*
X0217900Y0017241D01*
X0217786Y0017341D01*
X0217674Y0017443D01*
X0217566Y0017549D01*
X0217460Y0017657D01*
X0217356Y0017768D01*
X0217256Y0017882D01*
X0217158Y0017998D01*
X0217064Y0018117D01*
X0221800Y0027800D02*
X0221954Y0027798D01*
X0222108Y0027792D01*
X0222262Y0027782D01*
X0222416Y0027768D01*
X0222569Y0027751D01*
X0222721Y0027729D01*
X0222873Y0027703D01*
X0223025Y0027674D01*
X0223175Y0027640D01*
X0223325Y0027603D01*
X0223473Y0027562D01*
X0223621Y0027517D01*
X0223767Y0027468D01*
X0223912Y0027416D01*
X0224055Y0027360D01*
X0224198Y0027300D01*
X0224338Y0027237D01*
X0224477Y0027170D01*
X0224614Y0027099D01*
X0224749Y0027025D01*
X0224882Y0026948D01*
X0225014Y0026867D01*
X0225143Y0026783D01*
X0225270Y0026695D01*
X0225394Y0026604D01*
X0225516Y0026511D01*
X0225636Y0026413D01*
X0225753Y0026313D01*
X0225868Y0026210D01*
X0225980Y0026104D01*
X0226089Y0025996D01*
X0226195Y0025884D01*
X0226299Y0025770D01*
X0226399Y0025653D01*
X0226497Y0025534D01*
X0226591Y0025412D01*
X0226682Y0025287D01*
X0221800Y0027800D02*
X0221650Y0027798D01*
X0221499Y0027792D01*
X0221349Y0027783D01*
X0221200Y0027770D01*
X0221050Y0027753D01*
X0220901Y0027732D01*
X0220753Y0027708D01*
X0220605Y0027680D01*
X0220458Y0027648D01*
X0220312Y0027613D01*
X0220167Y0027573D01*
X0220023Y0027531D01*
X0219880Y0027484D01*
X0219738Y0027434D01*
X0219597Y0027381D01*
X0219458Y0027324D01*
X0219320Y0027264D01*
X0219184Y0027200D01*
X0219050Y0027133D01*
X0218917Y0027062D01*
X0218786Y0026988D01*
X0218657Y0026911D01*
X0218530Y0026830D01*
X0218405Y0026747D01*
X0218282Y0026660D01*
X0218161Y0026571D01*
X0218043Y0026478D01*
X0217927Y0026382D01*
X0217813Y0026284D01*
X0217702Y0026183D01*
X0217593Y0026078D01*
X0217488Y0025972D01*
X0217384Y0025862D01*
X0217284Y0025750D01*
X0217186Y0025636D01*
X0217092Y0025519D01*
X0217000Y0025400D01*
X0221800Y0015800D02*
X0221952Y0015802D01*
X0222103Y0015808D01*
X0222254Y0015817D01*
X0222406Y0015831D01*
X0222556Y0015848D01*
X0222706Y0015869D01*
X0222856Y0015894D01*
X0223005Y0015922D01*
X0223153Y0015955D01*
X0223300Y0015991D01*
X0223447Y0016030D01*
X0223592Y0016074D01*
X0223736Y0016121D01*
X0223879Y0016172D01*
X0224020Y0016226D01*
X0224161Y0016284D01*
X0224299Y0016345D01*
X0224436Y0016410D01*
X0224572Y0016479D01*
X0224705Y0016550D01*
X0224837Y0016625D01*
X0224967Y0016704D01*
X0225094Y0016785D01*
X0225220Y0016870D01*
X0225344Y0016958D01*
X0225465Y0017049D01*
X0225584Y0017143D01*
X0225700Y0017241D01*
X0225814Y0017341D01*
X0225926Y0017443D01*
X0226034Y0017549D01*
X0226140Y0017657D01*
X0226244Y0017768D01*
X0226344Y0017882D01*
X0226442Y0017998D01*
X0226536Y0018117D01*
X0191800Y0023300D02*
X0191800Y0040300D01*
X0191798Y0040360D01*
X0191793Y0040421D01*
X0191784Y0040480D01*
X0191771Y0040539D01*
X0191755Y0040598D01*
X0191735Y0040655D01*
X0191712Y0040710D01*
X0191685Y0040765D01*
X0191656Y0040817D01*
X0191623Y0040868D01*
X0191587Y0040917D01*
X0191549Y0040963D01*
X0191507Y0041007D01*
X0191463Y0041049D01*
X0191417Y0041087D01*
X0191368Y0041123D01*
X0191317Y0041156D01*
X0191265Y0041185D01*
X0191210Y0041212D01*
X0191155Y0041235D01*
X0191098Y0041255D01*
X0191039Y0041271D01*
X0190980Y0041284D01*
X0190921Y0041293D01*
X0190860Y0041298D01*
X0190800Y0041300D01*
X0182800Y0041300D01*
X0182740Y0041298D01*
X0182679Y0041293D01*
X0182620Y0041284D01*
X0182561Y0041271D01*
X0182502Y0041255D01*
X0182445Y0041235D01*
X0182390Y0041212D01*
X0182335Y0041185D01*
X0182283Y0041156D01*
X0182232Y0041123D01*
X0182183Y0041087D01*
X0182137Y0041049D01*
X0182093Y0041007D01*
X0182051Y0040963D01*
X0182013Y0040917D01*
X0181977Y0040868D01*
X0181944Y0040817D01*
X0181915Y0040765D01*
X0181888Y0040710D01*
X0181865Y0040655D01*
X0181845Y0040598D01*
X0181829Y0040539D01*
X0181816Y0040480D01*
X0181807Y0040421D01*
X0181802Y0040360D01*
X0181800Y0040300D01*
X0181800Y0023300D01*
X0181802Y0023240D01*
X0181807Y0023179D01*
X0181816Y0023120D01*
X0181829Y0023061D01*
X0181845Y0023002D01*
X0181865Y0022945D01*
X0181888Y0022890D01*
X0181915Y0022835D01*
X0181944Y0022783D01*
X0181977Y0022732D01*
X0182013Y0022683D01*
X0182051Y0022637D01*
X0182093Y0022593D01*
X0182137Y0022551D01*
X0182183Y0022513D01*
X0182232Y0022477D01*
X0182283Y0022444D01*
X0182335Y0022415D01*
X0182390Y0022388D01*
X0182445Y0022365D01*
X0182502Y0022345D01*
X0182561Y0022329D01*
X0182620Y0022316D01*
X0182679Y0022307D01*
X0182740Y0022302D01*
X0182800Y0022300D01*
X0190800Y0022300D01*
X0190860Y0022302D01*
X0190921Y0022307D01*
X0190980Y0022316D01*
X0191039Y0022329D01*
X0191098Y0022345D01*
X0191155Y0022365D01*
X0191210Y0022388D01*
X0191265Y0022415D01*
X0191317Y0022444D01*
X0191368Y0022477D01*
X0191417Y0022513D01*
X0191463Y0022551D01*
X0191507Y0022593D01*
X0191549Y0022637D01*
X0191587Y0022683D01*
X0191623Y0022732D01*
X0191656Y0022783D01*
X0191685Y0022835D01*
X0191712Y0022890D01*
X0191735Y0022945D01*
X0191755Y0023002D01*
X0191771Y0023061D01*
X0191784Y0023120D01*
X0191793Y0023179D01*
X0191798Y0023240D01*
X0191800Y0023300D01*
X0171300Y0018300D02*
X0171300Y0010300D01*
X0171298Y0010240D01*
X0171293Y0010179D01*
X0171284Y0010120D01*
X0171271Y0010061D01*
X0171255Y0010002D01*
X0171235Y0009945D01*
X0171212Y0009890D01*
X0171185Y0009835D01*
X0171156Y0009783D01*
X0171123Y0009732D01*
X0171087Y0009683D01*
X0171049Y0009637D01*
X0171007Y0009593D01*
X0170963Y0009551D01*
X0170917Y0009513D01*
X0170868Y0009477D01*
X0170817Y0009444D01*
X0170765Y0009415D01*
X0170710Y0009388D01*
X0170655Y0009365D01*
X0170598Y0009345D01*
X0170539Y0009329D01*
X0170480Y0009316D01*
X0170421Y0009307D01*
X0170360Y0009302D01*
X0170300Y0009300D01*
X0153300Y0009300D01*
X0153240Y0009302D01*
X0153179Y0009307D01*
X0153120Y0009316D01*
X0153061Y0009329D01*
X0153002Y0009345D01*
X0152945Y0009365D01*
X0152890Y0009388D01*
X0152835Y0009415D01*
X0152783Y0009444D01*
X0152732Y0009477D01*
X0152683Y0009513D01*
X0152637Y0009551D01*
X0152593Y0009593D01*
X0152551Y0009637D01*
X0152513Y0009683D01*
X0152477Y0009732D01*
X0152444Y0009783D01*
X0152415Y0009835D01*
X0152388Y0009890D01*
X0152365Y0009945D01*
X0152345Y0010002D01*
X0152329Y0010061D01*
X0152316Y0010120D01*
X0152307Y0010179D01*
X0152302Y0010240D01*
X0152300Y0010300D01*
X0152300Y0018300D01*
X0152302Y0018360D01*
X0152307Y0018421D01*
X0152316Y0018480D01*
X0152329Y0018539D01*
X0152345Y0018598D01*
X0152365Y0018655D01*
X0152388Y0018710D01*
X0152415Y0018765D01*
X0152444Y0018817D01*
X0152477Y0018868D01*
X0152513Y0018917D01*
X0152551Y0018963D01*
X0152593Y0019007D01*
X0152637Y0019049D01*
X0152683Y0019087D01*
X0152732Y0019123D01*
X0152783Y0019156D01*
X0152835Y0019185D01*
X0152890Y0019212D01*
X0152945Y0019235D01*
X0153002Y0019255D01*
X0153061Y0019271D01*
X0153120Y0019284D01*
X0153179Y0019293D01*
X0153240Y0019298D01*
X0153300Y0019300D01*
X0170300Y0019300D01*
X0170360Y0019298D01*
X0170421Y0019293D01*
X0170480Y0019284D01*
X0170539Y0019271D01*
X0170598Y0019255D01*
X0170655Y0019235D01*
X0170710Y0019212D01*
X0170765Y0019185D01*
X0170817Y0019156D01*
X0170868Y0019123D01*
X0170917Y0019087D01*
X0170963Y0019049D01*
X0171007Y0019007D01*
X0171049Y0018963D01*
X0171087Y0018917D01*
X0171123Y0018868D01*
X0171156Y0018817D01*
X0171185Y0018765D01*
X0171212Y0018710D01*
X0171235Y0018655D01*
X0171255Y0018598D01*
X0171271Y0018539D01*
X0171284Y0018480D01*
X0171293Y0018421D01*
X0171298Y0018360D01*
X0171300Y0018300D01*
X0163300Y0014300D02*
X0162800Y0014300D01*
X0160800Y0014300D02*
X0160300Y0014300D01*
X0161300Y0025300D02*
X0137300Y0025300D01*
X0146800Y0028800D02*
X0146800Y0031800D01*
X0144300Y0031800D01*
X0146800Y0031800D02*
X0146800Y0034800D01*
X0148300Y0034800D02*
X0150300Y0034800D01*
X0150300Y0028800D01*
X0148300Y0028800D01*
X0148300Y0034800D01*
X0151800Y0034800D02*
X0151800Y0031800D01*
X0154300Y0031800D01*
X0151800Y0031800D02*
X0151800Y0028800D01*
X0161300Y0025300D02*
X0161460Y0025302D01*
X0161619Y0025308D01*
X0161778Y0025318D01*
X0161937Y0025331D01*
X0162096Y0025349D01*
X0162254Y0025370D01*
X0162411Y0025396D01*
X0162568Y0025425D01*
X0162724Y0025458D01*
X0162879Y0025495D01*
X0163034Y0025535D01*
X0163187Y0025580D01*
X0163339Y0025628D01*
X0163490Y0025680D01*
X0163639Y0025736D01*
X0163787Y0025795D01*
X0163934Y0025858D01*
X0164079Y0025924D01*
X0164222Y0025994D01*
X0164364Y0026068D01*
X0164504Y0026144D01*
X0164642Y0026225D01*
X0164777Y0026308D01*
X0164911Y0026395D01*
X0165043Y0026486D01*
X0165172Y0026579D01*
X0165299Y0026676D01*
X0165424Y0026775D01*
X0165546Y0026878D01*
X0165665Y0026984D01*
X0165782Y0027092D01*
X0165896Y0027204D01*
X0166008Y0027318D01*
X0166116Y0027435D01*
X0166222Y0027554D01*
X0166325Y0027676D01*
X0166424Y0027801D01*
X0166521Y0027928D01*
X0166614Y0028057D01*
X0166705Y0028189D01*
X0166792Y0028323D01*
X0166875Y0028458D01*
X0166956Y0028596D01*
X0167032Y0028736D01*
X0167106Y0028878D01*
X0167176Y0029021D01*
X0167242Y0029166D01*
X0167305Y0029313D01*
X0167364Y0029461D01*
X0167420Y0029610D01*
X0167472Y0029761D01*
X0167520Y0029913D01*
X0167565Y0030066D01*
X0167605Y0030221D01*
X0167642Y0030376D01*
X0167675Y0030532D01*
X0167704Y0030689D01*
X0167730Y0030846D01*
X0167751Y0031004D01*
X0167769Y0031163D01*
X0167782Y0031322D01*
X0167792Y0031481D01*
X0167798Y0031640D01*
X0167800Y0031800D01*
X0167798Y0031960D01*
X0167792Y0032119D01*
X0167782Y0032278D01*
X0167769Y0032437D01*
X0167751Y0032596D01*
X0167730Y0032754D01*
X0167704Y0032911D01*
X0167675Y0033068D01*
X0167642Y0033224D01*
X0167605Y0033379D01*
X0167565Y0033534D01*
X0167520Y0033687D01*
X0167472Y0033839D01*
X0167420Y0033990D01*
X0167364Y0034139D01*
X0167305Y0034287D01*
X0167242Y0034434D01*
X0167176Y0034579D01*
X0167106Y0034722D01*
X0167032Y0034864D01*
X0166956Y0035004D01*
X0166875Y0035142D01*
X0166792Y0035277D01*
X0166705Y0035411D01*
X0166614Y0035543D01*
X0166521Y0035672D01*
X0166424Y0035799D01*
X0166325Y0035924D01*
X0166222Y0036046D01*
X0166116Y0036165D01*
X0166008Y0036282D01*
X0165896Y0036396D01*
X0165782Y0036508D01*
X0165665Y0036616D01*
X0165546Y0036722D01*
X0165424Y0036825D01*
X0165299Y0036924D01*
X0165172Y0037021D01*
X0165043Y0037114D01*
X0164911Y0037205D01*
X0164777Y0037292D01*
X0164642Y0037375D01*
X0164504Y0037456D01*
X0164364Y0037532D01*
X0164222Y0037606D01*
X0164079Y0037676D01*
X0163934Y0037742D01*
X0163787Y0037805D01*
X0163639Y0037864D01*
X0163490Y0037920D01*
X0163339Y0037972D01*
X0163187Y0038020D01*
X0163034Y0038065D01*
X0162879Y0038105D01*
X0162724Y0038142D01*
X0162568Y0038175D01*
X0162411Y0038204D01*
X0162254Y0038230D01*
X0162096Y0038251D01*
X0161937Y0038269D01*
X0161778Y0038282D01*
X0161619Y0038292D01*
X0161460Y0038298D01*
X0161300Y0038300D01*
X0137300Y0038300D01*
X0137140Y0038298D01*
X0136981Y0038292D01*
X0136822Y0038282D01*
X0136663Y0038269D01*
X0136504Y0038251D01*
X0136346Y0038230D01*
X0136189Y0038204D01*
X0136032Y0038175D01*
X0135876Y0038142D01*
X0135721Y0038105D01*
X0135566Y0038065D01*
X0135413Y0038020D01*
X0135261Y0037972D01*
X0135110Y0037920D01*
X0134961Y0037864D01*
X0134813Y0037805D01*
X0134666Y0037742D01*
X0134521Y0037676D01*
X0134378Y0037606D01*
X0134236Y0037532D01*
X0134096Y0037456D01*
X0133958Y0037375D01*
X0133823Y0037292D01*
X0133689Y0037205D01*
X0133557Y0037114D01*
X0133428Y0037021D01*
X0133301Y0036924D01*
X0133176Y0036825D01*
X0133054Y0036722D01*
X0132935Y0036616D01*
X0132818Y0036508D01*
X0132704Y0036396D01*
X0132592Y0036282D01*
X0132484Y0036165D01*
X0132378Y0036046D01*
X0132275Y0035924D01*
X0132176Y0035799D01*
X0132079Y0035672D01*
X0131986Y0035543D01*
X0131895Y0035411D01*
X0131808Y0035277D01*
X0131725Y0035142D01*
X0131644Y0035004D01*
X0131568Y0034864D01*
X0131494Y0034722D01*
X0131424Y0034579D01*
X0131358Y0034434D01*
X0131295Y0034287D01*
X0131236Y0034139D01*
X0131180Y0033990D01*
X0131128Y0033839D01*
X0131080Y0033687D01*
X0131035Y0033534D01*
X0130995Y0033379D01*
X0130958Y0033224D01*
X0130925Y0033068D01*
X0130896Y0032911D01*
X0130870Y0032754D01*
X0130849Y0032596D01*
X0130831Y0032437D01*
X0130818Y0032278D01*
X0130808Y0032119D01*
X0130802Y0031960D01*
X0130800Y0031800D01*
X0130802Y0031640D01*
X0130808Y0031481D01*
X0130818Y0031322D01*
X0130831Y0031163D01*
X0130849Y0031004D01*
X0130870Y0030846D01*
X0130896Y0030689D01*
X0130925Y0030532D01*
X0130958Y0030376D01*
X0130995Y0030221D01*
X0131035Y0030066D01*
X0131080Y0029913D01*
X0131128Y0029761D01*
X0131180Y0029610D01*
X0131236Y0029461D01*
X0131295Y0029313D01*
X0131358Y0029166D01*
X0131424Y0029021D01*
X0131494Y0028878D01*
X0131568Y0028736D01*
X0131644Y0028596D01*
X0131725Y0028458D01*
X0131808Y0028323D01*
X0131895Y0028189D01*
X0131986Y0028057D01*
X0132079Y0027928D01*
X0132176Y0027801D01*
X0132275Y0027676D01*
X0132378Y0027554D01*
X0132484Y0027435D01*
X0132592Y0027318D01*
X0132704Y0027204D01*
X0132818Y0027092D01*
X0132935Y0026984D01*
X0133054Y0026878D01*
X0133176Y0026775D01*
X0133301Y0026676D01*
X0133428Y0026579D01*
X0133557Y0026486D01*
X0133689Y0026395D01*
X0133823Y0026308D01*
X0133958Y0026225D01*
X0134096Y0026144D01*
X0134236Y0026068D01*
X0134378Y0025994D01*
X0134521Y0025924D01*
X0134666Y0025858D01*
X0134813Y0025795D01*
X0134961Y0025736D01*
X0135110Y0025680D01*
X0135261Y0025628D01*
X0135413Y0025580D01*
X0135566Y0025535D01*
X0135721Y0025495D01*
X0135876Y0025458D01*
X0136032Y0025425D01*
X0136189Y0025396D01*
X0136346Y0025370D01*
X0136504Y0025349D01*
X0136663Y0025331D01*
X0136822Y0025318D01*
X0136981Y0025308D01*
X0137140Y0025302D01*
X0137300Y0025300D01*
X0186800Y0030300D02*
X0186800Y0030800D01*
X0186800Y0032800D02*
X0186800Y0033300D01*
X0239300Y0038800D02*
X0249300Y0038800D01*
X0249300Y0054800D01*
X0239300Y0054800D01*
X0239300Y0038800D01*
X0244300Y0044300D02*
X0244300Y0046800D01*
X0246800Y0046800D01*
X0244300Y0046800D02*
X0241800Y0046800D01*
X0244300Y0046800D02*
X0241800Y0050800D01*
X0246800Y0050800D01*
X0244300Y0046800D01*
X0244300Y0052800D01*
X0227800Y0051800D02*
X0227800Y0050800D01*
X0227798Y0050740D01*
X0227793Y0050679D01*
X0227784Y0050620D01*
X0227771Y0050561D01*
X0227755Y0050502D01*
X0227735Y0050445D01*
X0227712Y0050390D01*
X0227685Y0050335D01*
X0227656Y0050283D01*
X0227623Y0050232D01*
X0227587Y0050183D01*
X0227549Y0050137D01*
X0227507Y0050093D01*
X0227463Y0050051D01*
X0227417Y0050013D01*
X0227368Y0049977D01*
X0227317Y0049944D01*
X0227265Y0049915D01*
X0227210Y0049888D01*
X0227155Y0049865D01*
X0227098Y0049845D01*
X0227039Y0049829D01*
X0226980Y0049816D01*
X0226921Y0049807D01*
X0226860Y0049802D01*
X0226800Y0049800D01*
X0227800Y0051800D02*
X0227300Y0052300D01*
X0227300Y0061300D01*
X0227800Y0061800D01*
X0227800Y0062800D01*
X0227798Y0062860D01*
X0227793Y0062921D01*
X0227784Y0062980D01*
X0227771Y0063039D01*
X0227755Y0063098D01*
X0227735Y0063155D01*
X0227712Y0063210D01*
X0227685Y0063265D01*
X0227656Y0063317D01*
X0227623Y0063368D01*
X0227587Y0063417D01*
X0227549Y0063463D01*
X0227507Y0063507D01*
X0227463Y0063549D01*
X0227417Y0063587D01*
X0227368Y0063623D01*
X0227317Y0063656D01*
X0227265Y0063685D01*
X0227210Y0063712D01*
X0227155Y0063735D01*
X0227098Y0063755D01*
X0227039Y0063771D01*
X0226980Y0063784D01*
X0226921Y0063793D01*
X0226860Y0063798D01*
X0226800Y0063800D01*
X0221800Y0063800D02*
X0221740Y0063798D01*
X0221679Y0063793D01*
X0221620Y0063784D01*
X0221561Y0063771D01*
X0221502Y0063755D01*
X0221445Y0063735D01*
X0221390Y0063712D01*
X0221335Y0063685D01*
X0221283Y0063656D01*
X0221232Y0063623D01*
X0221183Y0063587D01*
X0221137Y0063549D01*
X0221093Y0063507D01*
X0221051Y0063463D01*
X0221013Y0063417D01*
X0220977Y0063368D01*
X0220944Y0063317D01*
X0220915Y0063265D01*
X0220888Y0063210D01*
X0220865Y0063155D01*
X0220845Y0063098D01*
X0220829Y0063039D01*
X0220816Y0062980D01*
X0220807Y0062921D01*
X0220802Y0062860D01*
X0220800Y0062800D01*
X0220800Y0061800D01*
X0221300Y0061300D01*
X0221300Y0052300D01*
X0220800Y0051800D01*
X0220800Y0050800D01*
X0220802Y0050740D01*
X0220807Y0050679D01*
X0220816Y0050620D01*
X0220829Y0050561D01*
X0220845Y0050502D01*
X0220865Y0050445D01*
X0220888Y0050390D01*
X0220915Y0050335D01*
X0220944Y0050283D01*
X0220977Y0050232D01*
X0221013Y0050183D01*
X0221051Y0050137D01*
X0221093Y0050093D01*
X0221137Y0050051D01*
X0221183Y0050013D01*
X0221232Y0049977D01*
X0221283Y0049944D01*
X0221335Y0049915D01*
X0221390Y0049888D01*
X0221445Y0049865D01*
X0221502Y0049845D01*
X0221561Y0049829D01*
X0221620Y0049816D01*
X0221679Y0049807D01*
X0221740Y0049802D01*
X0221800Y0049800D01*
X0202300Y0053300D02*
X0202300Y0075300D01*
X0056300Y0075300D01*
X0056300Y0066800D01*
X0056398Y0066798D01*
X0056496Y0066792D01*
X0056594Y0066783D01*
X0056691Y0066769D01*
X0056788Y0066752D01*
X0056884Y0066731D01*
X0056979Y0066706D01*
X0057073Y0066678D01*
X0057165Y0066645D01*
X0057257Y0066610D01*
X0057347Y0066570D01*
X0057435Y0066528D01*
X0057522Y0066481D01*
X0057606Y0066432D01*
X0057689Y0066379D01*
X0057769Y0066323D01*
X0057848Y0066263D01*
X0057924Y0066201D01*
X0057997Y0066136D01*
X0058068Y0066068D01*
X0058136Y0065997D01*
X0058201Y0065924D01*
X0058263Y0065848D01*
X0058323Y0065769D01*
X0058379Y0065689D01*
X0058432Y0065606D01*
X0058481Y0065522D01*
X0058528Y0065435D01*
X0058570Y0065347D01*
X0058610Y0065257D01*
X0058645Y0065165D01*
X0058678Y0065073D01*
X0058706Y0064979D01*
X0058731Y0064884D01*
X0058752Y0064788D01*
X0058769Y0064691D01*
X0058783Y0064594D01*
X0058792Y0064496D01*
X0058798Y0064398D01*
X0058800Y0064300D01*
X0058798Y0064202D01*
X0058792Y0064104D01*
X0058783Y0064006D01*
X0058769Y0063909D01*
X0058752Y0063812D01*
X0058731Y0063716D01*
X0058706Y0063621D01*
X0058678Y0063527D01*
X0058645Y0063435D01*
X0058610Y0063343D01*
X0058570Y0063253D01*
X0058528Y0063165D01*
X0058481Y0063078D01*
X0058432Y0062994D01*
X0058379Y0062911D01*
X0058323Y0062831D01*
X0058263Y0062752D01*
X0058201Y0062676D01*
X0058136Y0062603D01*
X0058068Y0062532D01*
X0057997Y0062464D01*
X0057924Y0062399D01*
X0057848Y0062337D01*
X0057769Y0062277D01*
X0057689Y0062221D01*
X0057606Y0062168D01*
X0057522Y0062119D01*
X0057435Y0062072D01*
X0057347Y0062030D01*
X0057257Y0061990D01*
X0057165Y0061955D01*
X0057073Y0061922D01*
X0056979Y0061894D01*
X0056884Y0061869D01*
X0056788Y0061848D01*
X0056691Y0061831D01*
X0056594Y0061817D01*
X0056496Y0061808D01*
X0056398Y0061802D01*
X0056300Y0061800D01*
X0056300Y0053300D01*
X0202300Y0053300D01*
X0268800Y0054300D02*
X0270300Y0054300D01*
X0270300Y0055800D01*
X0270300Y0054300D02*
X0271800Y0054300D01*
X0270300Y0054300D02*
X0270300Y0052800D01*
X0265800Y0049300D02*
X0265803Y0049570D01*
X0265813Y0049840D01*
X0265830Y0050109D01*
X0265853Y0050378D01*
X0265883Y0050647D01*
X0265919Y0050914D01*
X0265962Y0051181D01*
X0266011Y0051446D01*
X0266067Y0051710D01*
X0266130Y0051973D01*
X0266198Y0052234D01*
X0266274Y0052493D01*
X0266355Y0052750D01*
X0266443Y0053006D01*
X0266537Y0053259D01*
X0266637Y0053510D01*
X0266744Y0053758D01*
X0266856Y0054003D01*
X0266975Y0054246D01*
X0267099Y0054485D01*
X0267229Y0054722D01*
X0267365Y0054955D01*
X0267507Y0055185D01*
X0267654Y0055411D01*
X0267807Y0055634D01*
X0267965Y0055853D01*
X0268128Y0056068D01*
X0268297Y0056278D01*
X0268471Y0056485D01*
X0268650Y0056687D01*
X0268833Y0056885D01*
X0269022Y0057078D01*
X0269215Y0057267D01*
X0269413Y0057450D01*
X0269615Y0057629D01*
X0269822Y0057803D01*
X0270032Y0057972D01*
X0270247Y0058135D01*
X0270466Y0058293D01*
X0270689Y0058446D01*
X0270915Y0058593D01*
X0271145Y0058735D01*
X0271378Y0058871D01*
X0271615Y0059001D01*
X0271854Y0059125D01*
X0272097Y0059244D01*
X0272342Y0059356D01*
X0272590Y0059463D01*
X0272841Y0059563D01*
X0273094Y0059657D01*
X0273350Y0059745D01*
X0273607Y0059826D01*
X0273866Y0059902D01*
X0274127Y0059970D01*
X0274390Y0060033D01*
X0274654Y0060089D01*
X0274919Y0060138D01*
X0275186Y0060181D01*
X0275453Y0060217D01*
X0275722Y0060247D01*
X0275991Y0060270D01*
X0276260Y0060287D01*
X0276530Y0060297D01*
X0276800Y0060300D01*
X0277070Y0060297D01*
X0277340Y0060287D01*
X0277609Y0060270D01*
X0277878Y0060247D01*
X0278147Y0060217D01*
X0278414Y0060181D01*
X0278681Y0060138D01*
X0278946Y0060089D01*
X0279210Y0060033D01*
X0279473Y0059970D01*
X0279734Y0059902D01*
X0279993Y0059826D01*
X0280250Y0059745D01*
X0280506Y0059657D01*
X0280759Y0059563D01*
X0281010Y0059463D01*
X0281258Y0059356D01*
X0281503Y0059244D01*
X0281746Y0059125D01*
X0281985Y0059001D01*
X0282222Y0058871D01*
X0282455Y0058735D01*
X0282685Y0058593D01*
X0282911Y0058446D01*
X0283134Y0058293D01*
X0283353Y0058135D01*
X0283568Y0057972D01*
X0283778Y0057803D01*
X0283985Y0057629D01*
X0284187Y0057450D01*
X0284385Y0057267D01*
X0284578Y0057078D01*
X0284767Y0056885D01*
X0284950Y0056687D01*
X0285129Y0056485D01*
X0285303Y0056278D01*
X0285472Y0056068D01*
X0285635Y0055853D01*
X0285793Y0055634D01*
X0285946Y0055411D01*
X0286093Y0055185D01*
X0286235Y0054955D01*
X0286371Y0054722D01*
X0286501Y0054485D01*
X0286625Y0054246D01*
X0286744Y0054003D01*
X0286856Y0053758D01*
X0286963Y0053510D01*
X0287063Y0053259D01*
X0287157Y0053006D01*
X0287245Y0052750D01*
X0287326Y0052493D01*
X0287402Y0052234D01*
X0287470Y0051973D01*
X0287533Y0051710D01*
X0287589Y0051446D01*
X0287638Y0051181D01*
X0287681Y0050914D01*
X0287717Y0050647D01*
X0287747Y0050378D01*
X0287770Y0050109D01*
X0287787Y0049840D01*
X0287797Y0049570D01*
X0287800Y0049300D01*
X0287797Y0049030D01*
X0287787Y0048760D01*
X0287770Y0048491D01*
X0287747Y0048222D01*
X0287717Y0047953D01*
X0287681Y0047686D01*
X0287638Y0047419D01*
X0287589Y0047154D01*
X0287533Y0046890D01*
X0287470Y0046627D01*
X0287402Y0046366D01*
X0287326Y0046107D01*
X0287245Y0045850D01*
X0287157Y0045594D01*
X0287063Y0045341D01*
X0286963Y0045090D01*
X0286856Y0044842D01*
X0286744Y0044597D01*
X0286625Y0044354D01*
X0286501Y0044115D01*
X0286371Y0043878D01*
X0286235Y0043645D01*
X0286093Y0043415D01*
X0285946Y0043189D01*
X0285793Y0042966D01*
X0285635Y0042747D01*
X0285472Y0042532D01*
X0285303Y0042322D01*
X0285129Y0042115D01*
X0284950Y0041913D01*
X0284767Y0041715D01*
X0284578Y0041522D01*
X0284385Y0041333D01*
X0284187Y0041150D01*
X0283985Y0040971D01*
X0283778Y0040797D01*
X0283568Y0040628D01*
X0283353Y0040465D01*
X0283134Y0040307D01*
X0282911Y0040154D01*
X0282685Y0040007D01*
X0282455Y0039865D01*
X0282222Y0039729D01*
X0281985Y0039599D01*
X0281746Y0039475D01*
X0281503Y0039356D01*
X0281258Y0039244D01*
X0281010Y0039137D01*
X0280759Y0039037D01*
X0280506Y0038943D01*
X0280250Y0038855D01*
X0279993Y0038774D01*
X0279734Y0038698D01*
X0279473Y0038630D01*
X0279210Y0038567D01*
X0278946Y0038511D01*
X0278681Y0038462D01*
X0278414Y0038419D01*
X0278147Y0038383D01*
X0277878Y0038353D01*
X0277609Y0038330D01*
X0277340Y0038313D01*
X0277070Y0038303D01*
X0276800Y0038300D01*
X0276530Y0038303D01*
X0276260Y0038313D01*
X0275991Y0038330D01*
X0275722Y0038353D01*
X0275453Y0038383D01*
X0275186Y0038419D01*
X0274919Y0038462D01*
X0274654Y0038511D01*
X0274390Y0038567D01*
X0274127Y0038630D01*
X0273866Y0038698D01*
X0273607Y0038774D01*
X0273350Y0038855D01*
X0273094Y0038943D01*
X0272841Y0039037D01*
X0272590Y0039137D01*
X0272342Y0039244D01*
X0272097Y0039356D01*
X0271854Y0039475D01*
X0271615Y0039599D01*
X0271378Y0039729D01*
X0271145Y0039865D01*
X0270915Y0040007D01*
X0270689Y0040154D01*
X0270466Y0040307D01*
X0270247Y0040465D01*
X0270032Y0040628D01*
X0269822Y0040797D01*
X0269615Y0040971D01*
X0269413Y0041150D01*
X0269215Y0041333D01*
X0269022Y0041522D01*
X0268833Y0041715D01*
X0268650Y0041913D01*
X0268471Y0042115D01*
X0268297Y0042322D01*
X0268128Y0042532D01*
X0267965Y0042747D01*
X0267807Y0042966D01*
X0267654Y0043189D01*
X0267507Y0043415D01*
X0267365Y0043645D01*
X0267229Y0043878D01*
X0267099Y0044115D01*
X0266975Y0044354D01*
X0266856Y0044597D01*
X0266744Y0044842D01*
X0266637Y0045090D01*
X0266537Y0045341D01*
X0266443Y0045594D01*
X0266355Y0045850D01*
X0266274Y0046107D01*
X0266198Y0046366D01*
X0266130Y0046627D01*
X0266067Y0046890D01*
X0266011Y0047154D01*
X0265962Y0047419D01*
X0265919Y0047686D01*
X0265883Y0047953D01*
X0265853Y0048222D01*
X0265830Y0048491D01*
X0265813Y0048760D01*
X0265803Y0049030D01*
X0265800Y0049300D01*
X0270800Y0070300D02*
X0270800Y0071800D01*
X0269300Y0071800D01*
X0270800Y0071800D02*
X0270800Y0073300D01*
X0270800Y0071800D02*
X0272300Y0071800D01*
X0253300Y0076800D02*
X0253303Y0077070D01*
X0253313Y0077340D01*
X0253330Y0077609D01*
X0253353Y0077878D01*
X0253383Y0078147D01*
X0253419Y0078414D01*
X0253462Y0078681D01*
X0253511Y0078946D01*
X0253567Y0079210D01*
X0253630Y0079473D01*
X0253698Y0079734D01*
X0253774Y0079993D01*
X0253855Y0080250D01*
X0253943Y0080506D01*
X0254037Y0080759D01*
X0254137Y0081010D01*
X0254244Y0081258D01*
X0254356Y0081503D01*
X0254475Y0081746D01*
X0254599Y0081985D01*
X0254729Y0082222D01*
X0254865Y0082455D01*
X0255007Y0082685D01*
X0255154Y0082911D01*
X0255307Y0083134D01*
X0255465Y0083353D01*
X0255628Y0083568D01*
X0255797Y0083778D01*
X0255971Y0083985D01*
X0256150Y0084187D01*
X0256333Y0084385D01*
X0256522Y0084578D01*
X0256715Y0084767D01*
X0256913Y0084950D01*
X0257115Y0085129D01*
X0257322Y0085303D01*
X0257532Y0085472D01*
X0257747Y0085635D01*
X0257966Y0085793D01*
X0258189Y0085946D01*
X0258415Y0086093D01*
X0258645Y0086235D01*
X0258878Y0086371D01*
X0259115Y0086501D01*
X0259354Y0086625D01*
X0259597Y0086744D01*
X0259842Y0086856D01*
X0260090Y0086963D01*
X0260341Y0087063D01*
X0260594Y0087157D01*
X0260850Y0087245D01*
X0261107Y0087326D01*
X0261366Y0087402D01*
X0261627Y0087470D01*
X0261890Y0087533D01*
X0262154Y0087589D01*
X0262419Y0087638D01*
X0262686Y0087681D01*
X0262953Y0087717D01*
X0263222Y0087747D01*
X0263491Y0087770D01*
X0263760Y0087787D01*
X0264030Y0087797D01*
X0264300Y0087800D01*
X0264570Y0087797D01*
X0264840Y0087787D01*
X0265109Y0087770D01*
X0265378Y0087747D01*
X0265647Y0087717D01*
X0265914Y0087681D01*
X0266181Y0087638D01*
X0266446Y0087589D01*
X0266710Y0087533D01*
X0266973Y0087470D01*
X0267234Y0087402D01*
X0267493Y0087326D01*
X0267750Y0087245D01*
X0268006Y0087157D01*
X0268259Y0087063D01*
X0268510Y0086963D01*
X0268758Y0086856D01*
X0269003Y0086744D01*
X0269246Y0086625D01*
X0269485Y0086501D01*
X0269722Y0086371D01*
X0269955Y0086235D01*
X0270185Y0086093D01*
X0270411Y0085946D01*
X0270634Y0085793D01*
X0270853Y0085635D01*
X0271068Y0085472D01*
X0271278Y0085303D01*
X0271485Y0085129D01*
X0271687Y0084950D01*
X0271885Y0084767D01*
X0272078Y0084578D01*
X0272267Y0084385D01*
X0272450Y0084187D01*
X0272629Y0083985D01*
X0272803Y0083778D01*
X0272972Y0083568D01*
X0273135Y0083353D01*
X0273293Y0083134D01*
X0273446Y0082911D01*
X0273593Y0082685D01*
X0273735Y0082455D01*
X0273871Y0082222D01*
X0274001Y0081985D01*
X0274125Y0081746D01*
X0274244Y0081503D01*
X0274356Y0081258D01*
X0274463Y0081010D01*
X0274563Y0080759D01*
X0274657Y0080506D01*
X0274745Y0080250D01*
X0274826Y0079993D01*
X0274902Y0079734D01*
X0274970Y0079473D01*
X0275033Y0079210D01*
X0275089Y0078946D01*
X0275138Y0078681D01*
X0275181Y0078414D01*
X0275217Y0078147D01*
X0275247Y0077878D01*
X0275270Y0077609D01*
X0275287Y0077340D01*
X0275297Y0077070D01*
X0275300Y0076800D01*
X0275297Y0076530D01*
X0275287Y0076260D01*
X0275270Y0075991D01*
X0275247Y0075722D01*
X0275217Y0075453D01*
X0275181Y0075186D01*
X0275138Y0074919D01*
X0275089Y0074654D01*
X0275033Y0074390D01*
X0274970Y0074127D01*
X0274902Y0073866D01*
X0274826Y0073607D01*
X0274745Y0073350D01*
X0274657Y0073094D01*
X0274563Y0072841D01*
X0274463Y0072590D01*
X0274356Y0072342D01*
X0274244Y0072097D01*
X0274125Y0071854D01*
X0274001Y0071615D01*
X0273871Y0071378D01*
X0273735Y0071145D01*
X0273593Y0070915D01*
X0273446Y0070689D01*
X0273293Y0070466D01*
X0273135Y0070247D01*
X0272972Y0070032D01*
X0272803Y0069822D01*
X0272629Y0069615D01*
X0272450Y0069413D01*
X0272267Y0069215D01*
X0272078Y0069022D01*
X0271885Y0068833D01*
X0271687Y0068650D01*
X0271485Y0068471D01*
X0271278Y0068297D01*
X0271068Y0068128D01*
X0270853Y0067965D01*
X0270634Y0067807D01*
X0270411Y0067654D01*
X0270185Y0067507D01*
X0269955Y0067365D01*
X0269722Y0067229D01*
X0269485Y0067099D01*
X0269246Y0066975D01*
X0269003Y0066856D01*
X0268758Y0066744D01*
X0268510Y0066637D01*
X0268259Y0066537D01*
X0268006Y0066443D01*
X0267750Y0066355D01*
X0267493Y0066274D01*
X0267234Y0066198D01*
X0266973Y0066130D01*
X0266710Y0066067D01*
X0266446Y0066011D01*
X0266181Y0065962D01*
X0265914Y0065919D01*
X0265647Y0065883D01*
X0265378Y0065853D01*
X0265109Y0065830D01*
X0264840Y0065813D01*
X0264570Y0065803D01*
X0264300Y0065800D01*
X0264030Y0065803D01*
X0263760Y0065813D01*
X0263491Y0065830D01*
X0263222Y0065853D01*
X0262953Y0065883D01*
X0262686Y0065919D01*
X0262419Y0065962D01*
X0262154Y0066011D01*
X0261890Y0066067D01*
X0261627Y0066130D01*
X0261366Y0066198D01*
X0261107Y0066274D01*
X0260850Y0066355D01*
X0260594Y0066443D01*
X0260341Y0066537D01*
X0260090Y0066637D01*
X0259842Y0066744D01*
X0259597Y0066856D01*
X0259354Y0066975D01*
X0259115Y0067099D01*
X0258878Y0067229D01*
X0258645Y0067365D01*
X0258415Y0067507D01*
X0258189Y0067654D01*
X0257966Y0067807D01*
X0257747Y0067965D01*
X0257532Y0068128D01*
X0257322Y0068297D01*
X0257115Y0068471D01*
X0256913Y0068650D01*
X0256715Y0068833D01*
X0256522Y0069022D01*
X0256333Y0069215D01*
X0256150Y0069413D01*
X0255971Y0069615D01*
X0255797Y0069822D01*
X0255628Y0070032D01*
X0255465Y0070247D01*
X0255307Y0070466D01*
X0255154Y0070689D01*
X0255007Y0070915D01*
X0254865Y0071145D01*
X0254729Y0071378D01*
X0254599Y0071615D01*
X0254475Y0071854D01*
X0254356Y0072097D01*
X0254244Y0072342D01*
X0254137Y0072590D01*
X0254037Y0072841D01*
X0253943Y0073094D01*
X0253855Y0073350D01*
X0253774Y0073607D01*
X0253698Y0073866D01*
X0253630Y0074127D01*
X0253567Y0074390D01*
X0253511Y0074654D01*
X0253462Y0074919D01*
X0253419Y0075186D01*
X0253383Y0075453D01*
X0253353Y0075722D01*
X0253330Y0075991D01*
X0253313Y0076260D01*
X0253303Y0076530D01*
X0253300Y0076800D01*
X0242800Y0081800D02*
X0225800Y0081800D01*
X0225740Y0081802D01*
X0225679Y0081807D01*
X0225620Y0081816D01*
X0225561Y0081829D01*
X0225502Y0081845D01*
X0225445Y0081865D01*
X0225390Y0081888D01*
X0225335Y0081915D01*
X0225283Y0081944D01*
X0225232Y0081977D01*
X0225183Y0082013D01*
X0225137Y0082051D01*
X0225093Y0082093D01*
X0225051Y0082137D01*
X0225013Y0082183D01*
X0224977Y0082232D01*
X0224944Y0082283D01*
X0224915Y0082335D01*
X0224888Y0082390D01*
X0224865Y0082445D01*
X0224845Y0082502D01*
X0224829Y0082561D01*
X0224816Y0082620D01*
X0224807Y0082679D01*
X0224802Y0082740D01*
X0224800Y0082800D01*
X0224800Y0090800D01*
X0224802Y0090860D01*
X0224807Y0090921D01*
X0224816Y0090980D01*
X0224829Y0091039D01*
X0224845Y0091098D01*
X0224865Y0091155D01*
X0224888Y0091210D01*
X0224915Y0091265D01*
X0224944Y0091317D01*
X0224977Y0091368D01*
X0225013Y0091417D01*
X0225051Y0091463D01*
X0225093Y0091507D01*
X0225137Y0091549D01*
X0225183Y0091587D01*
X0225232Y0091623D01*
X0225283Y0091656D01*
X0225335Y0091685D01*
X0225390Y0091712D01*
X0225445Y0091735D01*
X0225502Y0091755D01*
X0225561Y0091771D01*
X0225620Y0091784D01*
X0225679Y0091793D01*
X0225740Y0091798D01*
X0225800Y0091800D01*
X0242800Y0091800D01*
X0242860Y0091798D01*
X0242921Y0091793D01*
X0242980Y0091784D01*
X0243039Y0091771D01*
X0243098Y0091755D01*
X0243155Y0091735D01*
X0243210Y0091712D01*
X0243265Y0091685D01*
X0243317Y0091656D01*
X0243368Y0091623D01*
X0243417Y0091587D01*
X0243463Y0091549D01*
X0243507Y0091507D01*
X0243549Y0091463D01*
X0243587Y0091417D01*
X0243623Y0091368D01*
X0243656Y0091317D01*
X0243685Y0091265D01*
X0243712Y0091210D01*
X0243735Y0091155D01*
X0243755Y0091098D01*
X0243771Y0091039D01*
X0243784Y0090980D01*
X0243793Y0090921D01*
X0243798Y0090860D01*
X0243800Y0090800D01*
X0243800Y0082800D01*
X0243798Y0082740D01*
X0243793Y0082679D01*
X0243784Y0082620D01*
X0243771Y0082561D01*
X0243755Y0082502D01*
X0243735Y0082445D01*
X0243712Y0082390D01*
X0243685Y0082335D01*
X0243656Y0082283D01*
X0243623Y0082232D01*
X0243587Y0082183D01*
X0243549Y0082137D01*
X0243507Y0082093D01*
X0243463Y0082051D01*
X0243417Y0082013D01*
X0243368Y0081977D01*
X0243317Y0081944D01*
X0243265Y0081915D01*
X0243210Y0081888D01*
X0243155Y0081865D01*
X0243098Y0081845D01*
X0243039Y0081829D01*
X0242980Y0081816D01*
X0242921Y0081807D01*
X0242860Y0081802D01*
X0242800Y0081800D01*
X0235800Y0086800D02*
X0235300Y0086800D01*
X0233300Y0086800D02*
X0232800Y0086800D01*
X0050300Y0072800D02*
X0050300Y0071800D01*
X0049800Y0071300D01*
X0049800Y0062300D01*
X0050300Y0061800D01*
X0050300Y0060800D01*
X0050298Y0060740D01*
X0050293Y0060679D01*
X0050284Y0060620D01*
X0050271Y0060561D01*
X0050255Y0060502D01*
X0050235Y0060445D01*
X0050212Y0060390D01*
X0050185Y0060335D01*
X0050156Y0060283D01*
X0050123Y0060232D01*
X0050087Y0060183D01*
X0050049Y0060137D01*
X0050007Y0060093D01*
X0049963Y0060051D01*
X0049917Y0060013D01*
X0049868Y0059977D01*
X0049817Y0059944D01*
X0049765Y0059915D01*
X0049710Y0059888D01*
X0049655Y0059865D01*
X0049598Y0059845D01*
X0049539Y0059829D01*
X0049480Y0059816D01*
X0049421Y0059807D01*
X0049360Y0059802D01*
X0049300Y0059800D01*
X0044300Y0059800D02*
X0044240Y0059802D01*
X0044179Y0059807D01*
X0044120Y0059816D01*
X0044061Y0059829D01*
X0044002Y0059845D01*
X0043945Y0059865D01*
X0043890Y0059888D01*
X0043835Y0059915D01*
X0043783Y0059944D01*
X0043732Y0059977D01*
X0043683Y0060013D01*
X0043637Y0060051D01*
X0043593Y0060093D01*
X0043551Y0060137D01*
X0043513Y0060183D01*
X0043477Y0060232D01*
X0043444Y0060283D01*
X0043415Y0060335D01*
X0043388Y0060390D01*
X0043365Y0060445D01*
X0043345Y0060502D01*
X0043329Y0060561D01*
X0043316Y0060620D01*
X0043307Y0060679D01*
X0043302Y0060740D01*
X0043300Y0060800D01*
X0043300Y0061800D01*
X0043800Y0062300D01*
X0043800Y0071300D01*
X0043300Y0071800D01*
X0043300Y0072800D01*
X0043302Y0072860D01*
X0043307Y0072921D01*
X0043316Y0072980D01*
X0043329Y0073039D01*
X0043345Y0073098D01*
X0043365Y0073155D01*
X0043388Y0073210D01*
X0043415Y0073265D01*
X0043444Y0073317D01*
X0043477Y0073368D01*
X0043513Y0073417D01*
X0043551Y0073463D01*
X0043593Y0073507D01*
X0043637Y0073549D01*
X0043683Y0073587D01*
X0043732Y0073623D01*
X0043783Y0073656D01*
X0043835Y0073685D01*
X0043890Y0073712D01*
X0043945Y0073735D01*
X0044002Y0073755D01*
X0044061Y0073771D01*
X0044120Y0073784D01*
X0044179Y0073793D01*
X0044240Y0073798D01*
X0044300Y0073800D01*
X0049300Y0073800D02*
X0049360Y0073798D01*
X0049421Y0073793D01*
X0049480Y0073784D01*
X0049539Y0073771D01*
X0049598Y0073755D01*
X0049655Y0073735D01*
X0049710Y0073712D01*
X0049765Y0073685D01*
X0049817Y0073656D01*
X0049868Y0073623D01*
X0049917Y0073587D01*
X0049963Y0073549D01*
X0050007Y0073507D01*
X0050049Y0073463D01*
X0050087Y0073417D01*
X0050123Y0073368D01*
X0050156Y0073317D01*
X0050185Y0073265D01*
X0050212Y0073210D01*
X0050235Y0073155D01*
X0050255Y0073098D01*
X0050271Y0073039D01*
X0050284Y0072980D01*
X0050293Y0072921D01*
X0050298Y0072860D01*
X0050300Y0072800D01*
X0037800Y0081800D02*
X0020800Y0081800D01*
X0020740Y0081802D01*
X0020679Y0081807D01*
X0020620Y0081816D01*
X0020561Y0081829D01*
X0020502Y0081845D01*
X0020445Y0081865D01*
X0020390Y0081888D01*
X0020335Y0081915D01*
X0020283Y0081944D01*
X0020232Y0081977D01*
X0020183Y0082013D01*
X0020137Y0082051D01*
X0020093Y0082093D01*
X0020051Y0082137D01*
X0020013Y0082183D01*
X0019977Y0082232D01*
X0019944Y0082283D01*
X0019915Y0082335D01*
X0019888Y0082390D01*
X0019865Y0082445D01*
X0019845Y0082502D01*
X0019829Y0082561D01*
X0019816Y0082620D01*
X0019807Y0082679D01*
X0019802Y0082740D01*
X0019800Y0082800D01*
X0019800Y0090800D01*
X0019802Y0090860D01*
X0019807Y0090921D01*
X0019816Y0090980D01*
X0019829Y0091039D01*
X0019845Y0091098D01*
X0019865Y0091155D01*
X0019888Y0091210D01*
X0019915Y0091265D01*
X0019944Y0091317D01*
X0019977Y0091368D01*
X0020013Y0091417D01*
X0020051Y0091463D01*
X0020093Y0091507D01*
X0020137Y0091549D01*
X0020183Y0091587D01*
X0020232Y0091623D01*
X0020283Y0091656D01*
X0020335Y0091685D01*
X0020390Y0091712D01*
X0020445Y0091735D01*
X0020502Y0091755D01*
X0020561Y0091771D01*
X0020620Y0091784D01*
X0020679Y0091793D01*
X0020740Y0091798D01*
X0020800Y0091800D01*
X0037800Y0091800D01*
X0037860Y0091798D01*
X0037921Y0091793D01*
X0037980Y0091784D01*
X0038039Y0091771D01*
X0038098Y0091755D01*
X0038155Y0091735D01*
X0038210Y0091712D01*
X0038265Y0091685D01*
X0038317Y0091656D01*
X0038368Y0091623D01*
X0038417Y0091587D01*
X0038463Y0091549D01*
X0038507Y0091507D01*
X0038549Y0091463D01*
X0038587Y0091417D01*
X0038623Y0091368D01*
X0038656Y0091317D01*
X0038685Y0091265D01*
X0038712Y0091210D01*
X0038735Y0091155D01*
X0038755Y0091098D01*
X0038771Y0091039D01*
X0038784Y0090980D01*
X0038793Y0090921D01*
X0038798Y0090860D01*
X0038800Y0090800D01*
X0038800Y0082800D01*
X0038798Y0082740D01*
X0038793Y0082679D01*
X0038784Y0082620D01*
X0038771Y0082561D01*
X0038755Y0082502D01*
X0038735Y0082445D01*
X0038712Y0082390D01*
X0038685Y0082335D01*
X0038656Y0082283D01*
X0038623Y0082232D01*
X0038587Y0082183D01*
X0038549Y0082137D01*
X0038507Y0082093D01*
X0038463Y0082051D01*
X0038417Y0082013D01*
X0038368Y0081977D01*
X0038317Y0081944D01*
X0038265Y0081915D01*
X0038210Y0081888D01*
X0038155Y0081865D01*
X0038098Y0081845D01*
X0038039Y0081829D01*
X0037980Y0081816D01*
X0037921Y0081807D01*
X0037860Y0081802D01*
X0037800Y0081800D01*
X0030800Y0086800D02*
X0030300Y0086800D01*
X0028300Y0086800D02*
X0027800Y0086800D01*
D13*
X0295000Y0023900D03*
D14*
X0294050Y0011800D03*
X0259550Y0011800D03*
D15*
X0266800Y0010800D03*
X0276800Y0010800D03*
X0286800Y0010800D03*
D16*
X0281800Y0011800D03*
X0271800Y0011800D03*
D17*
X0301583Y0045363D02*
X0301583Y0051119D01*
X0301583Y0045363D02*
X0312351Y0045363D01*
X0326249Y0045363D02*
X0337017Y0045363D01*
X0337017Y0098489D01*
X0301583Y0098489D01*
X0301583Y0063623D01*
X0051300Y0033300D02*
X0051300Y0025253D01*
X0032300Y0029300D02*
X0032302Y0029472D01*
X0032308Y0029643D01*
X0032319Y0029815D01*
X0032334Y0029986D01*
X0032353Y0030157D01*
X0032376Y0030327D01*
X0032403Y0030497D01*
X0032435Y0030666D01*
X0032470Y0030834D01*
X0032510Y0031001D01*
X0032554Y0031167D01*
X0032601Y0031332D01*
X0032653Y0031496D01*
X0032709Y0031658D01*
X0032769Y0031819D01*
X0032833Y0031979D01*
X0032901Y0032137D01*
X0032972Y0032293D01*
X0033047Y0032447D01*
X0033127Y0032600D01*
X0033209Y0032750D01*
X0033296Y0032899D01*
X0033386Y0033045D01*
X0033480Y0033189D01*
X0033577Y0033331D01*
X0033678Y0033470D01*
X0033782Y0033607D01*
X0033889Y0033741D01*
X0034000Y0033872D01*
X0034113Y0034001D01*
X0034230Y0034127D01*
X0034350Y0034250D01*
X0034473Y0034370D01*
X0034599Y0034487D01*
X0034728Y0034600D01*
X0034859Y0034711D01*
X0034993Y0034818D01*
X0035130Y0034922D01*
X0035269Y0035023D01*
X0035411Y0035120D01*
X0035555Y0035214D01*
X0035701Y0035304D01*
X0035850Y0035391D01*
X0036000Y0035473D01*
X0036153Y0035553D01*
X0036307Y0035628D01*
X0036463Y0035699D01*
X0036621Y0035767D01*
X0036781Y0035831D01*
X0036942Y0035891D01*
X0037104Y0035947D01*
X0037268Y0035999D01*
X0037433Y0036046D01*
X0037599Y0036090D01*
X0037766Y0036130D01*
X0037934Y0036165D01*
X0038103Y0036197D01*
X0038273Y0036224D01*
X0038443Y0036247D01*
X0038614Y0036266D01*
X0038785Y0036281D01*
X0038957Y0036292D01*
X0039128Y0036298D01*
X0039300Y0036300D01*
X0039472Y0036298D01*
X0039643Y0036292D01*
X0039815Y0036281D01*
X0039986Y0036266D01*
X0040157Y0036247D01*
X0040327Y0036224D01*
X0040497Y0036197D01*
X0040666Y0036165D01*
X0040834Y0036130D01*
X0041001Y0036090D01*
X0041167Y0036046D01*
X0041332Y0035999D01*
X0041496Y0035947D01*
X0041658Y0035891D01*
X0041819Y0035831D01*
X0041979Y0035767D01*
X0042137Y0035699D01*
X0042293Y0035628D01*
X0042447Y0035553D01*
X0042600Y0035473D01*
X0042750Y0035391D01*
X0042899Y0035304D01*
X0043045Y0035214D01*
X0043189Y0035120D01*
X0043331Y0035023D01*
X0043470Y0034922D01*
X0043607Y0034818D01*
X0043741Y0034711D01*
X0043872Y0034600D01*
X0044001Y0034487D01*
X0044127Y0034370D01*
X0044250Y0034250D01*
X0044370Y0034127D01*
X0044487Y0034001D01*
X0044600Y0033872D01*
X0044711Y0033741D01*
X0044818Y0033607D01*
X0044922Y0033470D01*
X0045023Y0033331D01*
X0045120Y0033189D01*
X0045214Y0033045D01*
X0045304Y0032899D01*
X0045391Y0032750D01*
X0045473Y0032600D01*
X0045553Y0032447D01*
X0045628Y0032293D01*
X0045699Y0032137D01*
X0045767Y0031979D01*
X0045831Y0031819D01*
X0045891Y0031658D01*
X0045947Y0031496D01*
X0045999Y0031332D01*
X0046046Y0031167D01*
X0046090Y0031001D01*
X0046130Y0030834D01*
X0046165Y0030666D01*
X0046197Y0030497D01*
X0046224Y0030327D01*
X0046247Y0030157D01*
X0046266Y0029986D01*
X0046281Y0029815D01*
X0046292Y0029643D01*
X0046298Y0029472D01*
X0046300Y0029300D01*
X0046298Y0029128D01*
X0046292Y0028957D01*
X0046281Y0028785D01*
X0046266Y0028614D01*
X0046247Y0028443D01*
X0046224Y0028273D01*
X0046197Y0028103D01*
X0046165Y0027934D01*
X0046130Y0027766D01*
X0046090Y0027599D01*
X0046046Y0027433D01*
X0045999Y0027268D01*
X0045947Y0027104D01*
X0045891Y0026942D01*
X0045831Y0026781D01*
X0045767Y0026621D01*
X0045699Y0026463D01*
X0045628Y0026307D01*
X0045553Y0026153D01*
X0045473Y0026000D01*
X0045391Y0025850D01*
X0045304Y0025701D01*
X0045214Y0025555D01*
X0045120Y0025411D01*
X0045023Y0025269D01*
X0044922Y0025130D01*
X0044818Y0024993D01*
X0044711Y0024859D01*
X0044600Y0024728D01*
X0044487Y0024599D01*
X0044370Y0024473D01*
X0044250Y0024350D01*
X0044127Y0024230D01*
X0044001Y0024113D01*
X0043872Y0024000D01*
X0043741Y0023889D01*
X0043607Y0023782D01*
X0043470Y0023678D01*
X0043331Y0023577D01*
X0043189Y0023480D01*
X0043045Y0023386D01*
X0042899Y0023296D01*
X0042750Y0023209D01*
X0042600Y0023127D01*
X0042447Y0023047D01*
X0042293Y0022972D01*
X0042137Y0022901D01*
X0041979Y0022833D01*
X0041819Y0022769D01*
X0041658Y0022709D01*
X0041496Y0022653D01*
X0041332Y0022601D01*
X0041167Y0022554D01*
X0041001Y0022510D01*
X0040834Y0022470D01*
X0040666Y0022435D01*
X0040497Y0022403D01*
X0040327Y0022376D01*
X0040157Y0022353D01*
X0039986Y0022334D01*
X0039815Y0022319D01*
X0039643Y0022308D01*
X0039472Y0022302D01*
X0039300Y0022300D01*
X0039128Y0022302D01*
X0038957Y0022308D01*
X0038785Y0022319D01*
X0038614Y0022334D01*
X0038443Y0022353D01*
X0038273Y0022376D01*
X0038103Y0022403D01*
X0037934Y0022435D01*
X0037766Y0022470D01*
X0037599Y0022510D01*
X0037433Y0022554D01*
X0037268Y0022601D01*
X0037104Y0022653D01*
X0036942Y0022709D01*
X0036781Y0022769D01*
X0036621Y0022833D01*
X0036463Y0022901D01*
X0036307Y0022972D01*
X0036153Y0023047D01*
X0036000Y0023127D01*
X0035850Y0023209D01*
X0035701Y0023296D01*
X0035555Y0023386D01*
X0035411Y0023480D01*
X0035269Y0023577D01*
X0035130Y0023678D01*
X0034993Y0023782D01*
X0034859Y0023889D01*
X0034728Y0024000D01*
X0034599Y0024113D01*
X0034473Y0024230D01*
X0034350Y0024350D01*
X0034230Y0024473D01*
X0034113Y0024599D01*
X0034000Y0024728D01*
X0033889Y0024859D01*
X0033782Y0024993D01*
X0033678Y0025130D01*
X0033577Y0025269D01*
X0033480Y0025411D01*
X0033386Y0025555D01*
X0033296Y0025701D01*
X0033209Y0025850D01*
X0033127Y0026000D01*
X0033047Y0026153D01*
X0032972Y0026307D01*
X0032901Y0026463D01*
X0032833Y0026621D01*
X0032769Y0026781D01*
X0032709Y0026942D01*
X0032653Y0027104D01*
X0032601Y0027268D01*
X0032554Y0027433D01*
X0032510Y0027599D01*
X0032470Y0027766D01*
X0032435Y0027934D01*
X0032403Y0028103D01*
X0032376Y0028273D01*
X0032353Y0028443D01*
X0032334Y0028614D01*
X0032319Y0028785D01*
X0032308Y0028957D01*
X0032302Y0029128D01*
X0032300Y0029300D01*
X0027300Y0025371D02*
X0027300Y0033300D01*
X0030800Y0041300D02*
X0047800Y0041300D01*
X0047800Y0017300D02*
X0030800Y0017300D01*
D18*
X0244300Y0041300D03*
D19*
X0244300Y0035050D03*
X0244300Y0058550D03*
D20*
X0235300Y0083800D02*
X0235300Y0086800D01*
X0235300Y0089800D01*
X0233300Y0089800D02*
X0233300Y0086800D01*
X0233300Y0083800D01*
X0189800Y0032800D02*
X0186800Y0032800D01*
X0183800Y0032800D01*
X0183800Y0030800D02*
X0186800Y0030800D01*
X0189800Y0030800D01*
X0214854Y0017831D02*
X0214953Y0017662D01*
X0215057Y0017496D01*
X0215164Y0017332D01*
X0215275Y0017171D01*
X0215390Y0017013D01*
X0215509Y0016858D01*
X0215632Y0016705D01*
X0215758Y0016556D01*
X0215888Y0016410D01*
X0216022Y0016267D01*
X0216159Y0016127D01*
X0216299Y0015991D01*
X0216443Y0015858D01*
X0216590Y0015729D01*
X0216740Y0015603D01*
X0216893Y0015482D01*
X0217049Y0015363D01*
X0217208Y0015249D01*
X0217369Y0015139D01*
X0217534Y0015033D01*
X0217700Y0014930D01*
X0217870Y0014832D01*
X0218041Y0014738D01*
X0218215Y0014648D01*
X0218391Y0014563D01*
X0218569Y0014481D01*
X0218749Y0014405D01*
X0218931Y0014332D01*
X0219114Y0014264D01*
X0219299Y0014201D01*
X0219486Y0014142D01*
X0219674Y0014088D01*
X0219863Y0014038D01*
X0220053Y0013993D01*
X0220245Y0013953D01*
X0220437Y0013917D01*
X0220630Y0013886D01*
X0220824Y0013860D01*
X0221019Y0013838D01*
X0221214Y0013822D01*
X0221409Y0013810D01*
X0221605Y0013802D01*
X0221800Y0013800D01*
X0214741Y0025565D02*
X0214834Y0025733D01*
X0214930Y0025899D01*
X0215030Y0026063D01*
X0215135Y0026224D01*
X0215243Y0026383D01*
X0215355Y0026539D01*
X0215471Y0026693D01*
X0215590Y0026843D01*
X0215713Y0026991D01*
X0215839Y0027136D01*
X0215969Y0027277D01*
X0216102Y0027416D01*
X0216239Y0027551D01*
X0216379Y0027683D01*
X0216521Y0027811D01*
X0216667Y0027936D01*
X0216816Y0028058D01*
X0216968Y0028176D01*
X0217122Y0028290D01*
X0217280Y0028400D01*
X0217439Y0028507D01*
X0217602Y0028610D01*
X0217767Y0028709D01*
X0217934Y0028804D01*
X0218103Y0028894D01*
X0218274Y0028981D01*
X0218448Y0029064D01*
X0218623Y0029142D01*
X0218801Y0029216D01*
X0218980Y0029286D01*
X0219160Y0029352D01*
X0219342Y0029413D01*
X0219526Y0029470D01*
X0219711Y0029522D01*
X0219897Y0029570D01*
X0220084Y0029614D01*
X0220272Y0029653D01*
X0220461Y0029687D01*
X0220651Y0029717D01*
X0220841Y0029742D01*
X0221032Y0029763D01*
X0221224Y0029779D01*
X0221416Y0029791D01*
X0221608Y0029798D01*
X0221800Y0029800D01*
X0227907Y0016632D02*
X0227780Y0016486D01*
X0227651Y0016344D01*
X0227517Y0016204D01*
X0227381Y0016068D01*
X0227241Y0015935D01*
X0227098Y0015805D01*
X0226951Y0015679D01*
X0226802Y0015557D01*
X0226650Y0015438D01*
X0226495Y0015323D01*
X0226338Y0015211D01*
X0226178Y0015104D01*
X0226015Y0015000D01*
X0225849Y0014901D01*
X0225682Y0014805D01*
X0225512Y0014713D01*
X0225340Y0014626D01*
X0225166Y0014542D01*
X0224990Y0014463D01*
X0224812Y0014389D01*
X0224632Y0014318D01*
X0224451Y0014252D01*
X0224268Y0014190D01*
X0224084Y0014133D01*
X0223898Y0014080D01*
X0223711Y0014032D01*
X0223523Y0013988D01*
X0223334Y0013949D01*
X0223144Y0013914D01*
X0222954Y0013884D01*
X0222763Y0013858D01*
X0222571Y0013837D01*
X0222378Y0013821D01*
X0222186Y0013809D01*
X0221993Y0013802D01*
X0221800Y0013800D01*
X0227946Y0026922D02*
X0227819Y0027070D01*
X0227689Y0027215D01*
X0227556Y0027356D01*
X0227419Y0027495D01*
X0227279Y0027630D01*
X0227135Y0027761D01*
X0226988Y0027889D01*
X0226839Y0028014D01*
X0226686Y0028135D01*
X0226531Y0028252D01*
X0226372Y0028365D01*
X0226211Y0028474D01*
X0226047Y0028579D01*
X0225881Y0028681D01*
X0225712Y0028778D01*
X0225542Y0028871D01*
X0225368Y0028960D01*
X0225193Y0029045D01*
X0225016Y0029125D01*
X0224837Y0029201D01*
X0224656Y0029273D01*
X0224473Y0029340D01*
X0224289Y0029403D01*
X0224103Y0029461D01*
X0223916Y0029515D01*
X0223728Y0029564D01*
X0223538Y0029609D01*
X0223348Y0029649D01*
X0223156Y0029684D01*
X0222964Y0029715D01*
X0222771Y0029741D01*
X0222577Y0029762D01*
X0222383Y0029779D01*
X0222189Y0029791D01*
X0221995Y0029798D01*
X0221800Y0029800D01*
X0162800Y0017300D02*
X0162800Y0014300D01*
X0162800Y0011300D01*
X0160800Y0011300D02*
X0160800Y0014300D01*
X0160800Y0017300D01*
X0030300Y0083800D02*
X0030300Y0086800D01*
X0030300Y0089800D01*
X0028300Y0089800D02*
X0028300Y0086800D01*
X0028300Y0083800D01*
D21*
X0137300Y0040300D02*
X0161300Y0040300D01*
X0161507Y0040297D01*
X0161714Y0040290D01*
X0161920Y0040277D01*
X0162127Y0040260D01*
X0162332Y0040237D01*
X0162538Y0040209D01*
X0162742Y0040177D01*
X0162946Y0040139D01*
X0163148Y0040097D01*
X0163350Y0040049D01*
X0163550Y0039997D01*
X0163749Y0039940D01*
X0163946Y0039878D01*
X0164142Y0039811D01*
X0164336Y0039739D01*
X0164529Y0039663D01*
X0164719Y0039582D01*
X0164908Y0039496D01*
X0165094Y0039406D01*
X0165278Y0039312D01*
X0165460Y0039212D01*
X0165639Y0039109D01*
X0165816Y0039001D01*
X0165990Y0038889D01*
X0166161Y0038773D01*
X0166330Y0038652D01*
X0166495Y0038528D01*
X0166657Y0038399D01*
X0166816Y0038267D01*
X0166972Y0038131D01*
X0167125Y0037991D01*
X0167274Y0037847D01*
X0167419Y0037700D01*
X0167561Y0037549D01*
X0167699Y0037395D01*
X0167834Y0037237D01*
X0167964Y0037077D01*
X0168090Y0036913D01*
X0168213Y0036746D01*
X0168331Y0036576D01*
X0168446Y0036403D01*
X0168556Y0036228D01*
X0168661Y0036050D01*
X0168763Y0035869D01*
X0168859Y0035687D01*
X0168952Y0035501D01*
X0169040Y0035314D01*
X0169123Y0035124D01*
X0169202Y0034933D01*
X0169276Y0034740D01*
X0169345Y0034544D01*
X0169409Y0034348D01*
X0169469Y0034150D01*
X0169524Y0033950D01*
X0169574Y0033749D01*
X0169619Y0033547D01*
X0169659Y0033344D01*
X0169694Y0033140D01*
X0169724Y0032935D01*
X0169749Y0032730D01*
X0169769Y0032524D01*
X0169784Y0032317D01*
X0169794Y0032110D01*
X0169799Y0031903D01*
X0169799Y0031697D01*
X0169794Y0031490D01*
X0169784Y0031283D01*
X0169769Y0031076D01*
X0169749Y0030870D01*
X0169724Y0030665D01*
X0169694Y0030460D01*
X0169659Y0030256D01*
X0169619Y0030053D01*
X0169574Y0029851D01*
X0169524Y0029650D01*
X0169469Y0029450D01*
X0169409Y0029252D01*
X0169345Y0029056D01*
X0169276Y0028860D01*
X0169202Y0028667D01*
X0169123Y0028476D01*
X0169040Y0028286D01*
X0168952Y0028099D01*
X0168859Y0027913D01*
X0168763Y0027731D01*
X0168661Y0027550D01*
X0168556Y0027372D01*
X0168446Y0027197D01*
X0168331Y0027024D01*
X0168213Y0026854D01*
X0168090Y0026687D01*
X0167964Y0026523D01*
X0167834Y0026363D01*
X0167699Y0026205D01*
X0167561Y0026051D01*
X0167419Y0025900D01*
X0167274Y0025753D01*
X0167125Y0025609D01*
X0166972Y0025469D01*
X0166816Y0025333D01*
X0166657Y0025201D01*
X0166495Y0025072D01*
X0166330Y0024948D01*
X0166161Y0024827D01*
X0165990Y0024711D01*
X0165816Y0024599D01*
X0165639Y0024491D01*
X0165460Y0024388D01*
X0165278Y0024288D01*
X0165094Y0024194D01*
X0164908Y0024104D01*
X0164719Y0024018D01*
X0164529Y0023937D01*
X0164336Y0023861D01*
X0164142Y0023789D01*
X0163946Y0023722D01*
X0163749Y0023660D01*
X0163550Y0023603D01*
X0163350Y0023551D01*
X0163148Y0023503D01*
X0162946Y0023461D01*
X0162742Y0023423D01*
X0162538Y0023391D01*
X0162332Y0023363D01*
X0162127Y0023340D01*
X0161920Y0023323D01*
X0161714Y0023310D01*
X0161507Y0023303D01*
X0161300Y0023300D01*
X0137300Y0023300D01*
X0137093Y0023303D01*
X0136886Y0023310D01*
X0136680Y0023323D01*
X0136473Y0023340D01*
X0136268Y0023363D01*
X0136062Y0023391D01*
X0135858Y0023423D01*
X0135654Y0023461D01*
X0135452Y0023503D01*
X0135250Y0023551D01*
X0135050Y0023603D01*
X0134851Y0023660D01*
X0134654Y0023722D01*
X0134458Y0023789D01*
X0134264Y0023861D01*
X0134071Y0023937D01*
X0133881Y0024018D01*
X0133692Y0024104D01*
X0133506Y0024194D01*
X0133322Y0024288D01*
X0133140Y0024388D01*
X0132961Y0024491D01*
X0132784Y0024599D01*
X0132610Y0024711D01*
X0132439Y0024827D01*
X0132270Y0024948D01*
X0132105Y0025072D01*
X0131943Y0025201D01*
X0131784Y0025333D01*
X0131628Y0025469D01*
X0131475Y0025609D01*
X0131326Y0025753D01*
X0131181Y0025900D01*
X0131039Y0026051D01*
X0130901Y0026205D01*
X0130766Y0026363D01*
X0130636Y0026523D01*
X0130510Y0026687D01*
X0130387Y0026854D01*
X0130269Y0027024D01*
X0130154Y0027197D01*
X0130044Y0027372D01*
X0129939Y0027550D01*
X0129837Y0027731D01*
X0129741Y0027913D01*
X0129648Y0028099D01*
X0129560Y0028286D01*
X0129477Y0028476D01*
X0129398Y0028667D01*
X0129324Y0028860D01*
X0129255Y0029056D01*
X0129191Y0029252D01*
X0129131Y0029450D01*
X0129076Y0029650D01*
X0129026Y0029851D01*
X0128981Y0030053D01*
X0128941Y0030256D01*
X0128906Y0030460D01*
X0128876Y0030665D01*
X0128851Y0030870D01*
X0128831Y0031076D01*
X0128816Y0031283D01*
X0128806Y0031490D01*
X0128801Y0031697D01*
X0128801Y0031903D01*
X0128806Y0032110D01*
X0128816Y0032317D01*
X0128831Y0032524D01*
X0128851Y0032730D01*
X0128876Y0032935D01*
X0128906Y0033140D01*
X0128941Y0033344D01*
X0128981Y0033547D01*
X0129026Y0033749D01*
X0129076Y0033950D01*
X0129131Y0034150D01*
X0129191Y0034348D01*
X0129255Y0034544D01*
X0129324Y0034740D01*
X0129398Y0034933D01*
X0129477Y0035124D01*
X0129560Y0035314D01*
X0129648Y0035501D01*
X0129741Y0035687D01*
X0129837Y0035869D01*
X0129939Y0036050D01*
X0130044Y0036228D01*
X0130154Y0036403D01*
X0130269Y0036576D01*
X0130387Y0036746D01*
X0130510Y0036913D01*
X0130636Y0037077D01*
X0130766Y0037237D01*
X0130901Y0037395D01*
X0131039Y0037549D01*
X0131181Y0037700D01*
X0131326Y0037847D01*
X0131475Y0037991D01*
X0131628Y0038131D01*
X0131784Y0038267D01*
X0131943Y0038399D01*
X0132105Y0038528D01*
X0132270Y0038652D01*
X0132439Y0038773D01*
X0132610Y0038889D01*
X0132784Y0039001D01*
X0132961Y0039109D01*
X0133140Y0039212D01*
X0133322Y0039312D01*
X0133506Y0039406D01*
X0133692Y0039496D01*
X0133881Y0039582D01*
X0134071Y0039663D01*
X0134264Y0039739D01*
X0134458Y0039811D01*
X0134654Y0039878D01*
X0134851Y0039940D01*
X0135050Y0039997D01*
X0135250Y0040049D01*
X0135452Y0040097D01*
X0135654Y0040139D01*
X0135858Y0040177D01*
X0136062Y0040209D01*
X0136268Y0040237D01*
X0136473Y0040260D01*
X0136680Y0040277D01*
X0136886Y0040290D01*
X0137093Y0040297D01*
X0137300Y0040300D01*
M02*
