G75*
%MOIN*%
%OFA0B0*%
%FSLAX25Y25*%
%IPPOS*%
%LPD*%
%AMOC8*
5,1,8,0,0,1.08239X$1,22.5*
%
%ADD10C,0.06600*%
%ADD11C,0.07600*%
%ADD12OC8,0.07600*%
%ADD13C,0.11600*%
%ADD14C,0.08200*%
%ADD15C,0.07200*%
%ADD16OC8,0.07200*%
%ADD17C,0.05400*%
%ADD18C,0.08000*%
%ADD19C,0.07800*%
D10*
X0270000Y0019500D02*
X0270000Y0025500D01*
X0280000Y0025500D02*
X0280000Y0019500D01*
X0290000Y0019500D02*
X0290000Y0025500D01*
D11*
X0275000Y0052500D03*
X0275000Y0077500D03*
D12*
X0265000Y0077500D03*
X0292500Y0087500D03*
X0292500Y0097500D03*
X0285000Y0052500D03*
D13*
X0303996Y0060374D03*
X0322500Y0048563D03*
X0322500Y0072185D03*
D14*
X0252500Y0070000D03*
X0252500Y0030000D03*
D15*
X0197500Y0052500D03*
X0187500Y0052500D03*
X0177500Y0052500D03*
X0167500Y0052500D03*
X0157500Y0052500D03*
X0147500Y0052500D03*
X0137500Y0052500D03*
X0127500Y0052500D03*
X0117500Y0052500D03*
X0107500Y0052500D03*
X0097500Y0052500D03*
X0087500Y0052500D03*
X0077500Y0052500D03*
X0067500Y0052500D03*
X0067500Y0082500D03*
X0077500Y0082500D03*
X0087500Y0082500D03*
X0097500Y0082500D03*
X0107500Y0082500D03*
X0117500Y0082500D03*
X0127500Y0082500D03*
X0137500Y0082500D03*
X0147500Y0082500D03*
X0157500Y0082500D03*
X0167500Y0082500D03*
X0177500Y0082500D03*
X0187500Y0082500D03*
X0197500Y0082500D03*
D16*
X0217500Y0072500D03*
X0235000Y0072500D03*
X0237500Y0090000D03*
X0247500Y0090000D03*
X0265000Y0097500D03*
X0275000Y0097500D03*
X0235000Y0042500D03*
X0217500Y0042500D03*
X0190000Y0040000D03*
X0190000Y0030000D03*
X0170000Y0017500D03*
X0160000Y0017500D03*
X0227500Y0022500D03*
X0237500Y0022500D03*
X0050000Y0055000D03*
X0050000Y0085000D03*
X0037500Y0090000D03*
X0027500Y0090000D03*
D17*
X0143000Y0035000D03*
X0162000Y0035000D03*
D18*
X0147500Y0017500D03*
X0137500Y0017500D03*
X0127500Y0017500D03*
X0117500Y0017500D03*
X0107500Y0017500D03*
X0097500Y0017500D03*
X0087500Y0017500D03*
X0077500Y0017500D03*
X0067500Y0017500D03*
X0055300Y0023600D03*
X0029700Y0023600D03*
X0029700Y0041400D03*
X0055300Y0041400D03*
X0067500Y0095000D03*
X0077500Y0095000D03*
X0087500Y0095000D03*
X0097500Y0095000D03*
X0107500Y0095000D03*
X0117500Y0095000D03*
X0127500Y0095000D03*
X0137500Y0095000D03*
X0147500Y0095000D03*
X0157500Y0095000D03*
X0167500Y0095000D03*
X0177500Y0095000D03*
X0187500Y0095000D03*
X0197500Y0095000D03*
X0207500Y0095000D03*
X0217500Y0095000D03*
D19*
X0015000Y0017500D03*
X0015000Y0027500D03*
X0015000Y0037500D03*
X0015000Y0047500D03*
X0015000Y0057500D03*
X0015000Y0067500D03*
X0180000Y0017500D03*
X0190000Y0017500D03*
X0200000Y0017500D03*
X0210000Y0017500D03*
M02*
