G75*
%MOIN*%
%OFA0B0*%
%FSLAX25Y25*%
%IPPOS*%
%LPD*%
%AMOC8*
5,1,8,0,0,1.08239X$1,22.5*
%
%ADD10C,0.06000*%
%ADD11C,0.07000*%
%ADD12OC8,0.07000*%
%ADD13C,0.11000*%
%ADD14C,0.07600*%
%ADD15C,0.06600*%
%ADD16OC8,0.06600*%
%ADD17C,0.04800*%
%ADD18C,0.07400*%
%ADD19C,0.07200*%
%ADD20OC8,0.04800*%
%ADD21C,0.01600*%
D10*
X0266800Y0016300D02*
X0266800Y0022300D01*
X0276800Y0022300D02*
X0276800Y0016300D01*
X0286800Y0016300D02*
X0286800Y0022300D01*
D11*
X0271800Y0049300D03*
X0269300Y0076800D03*
D12*
X0259300Y0076800D03*
X0289300Y0084300D03*
X0289300Y0094300D03*
X0281800Y0049300D03*
D13*
X0300796Y0057174D03*
X0319300Y0045363D03*
X0319300Y0068985D03*
D14*
X0244300Y0066800D03*
X0244300Y0026800D03*
D15*
X0194300Y0049300D03*
X0184300Y0049300D03*
X0174300Y0049300D03*
X0164300Y0049300D03*
X0154300Y0049300D03*
X0144300Y0049300D03*
X0134300Y0049300D03*
X0124300Y0049300D03*
X0114300Y0049300D03*
X0104300Y0049300D03*
X0094300Y0049300D03*
X0084300Y0049300D03*
X0074300Y0049300D03*
X0064300Y0049300D03*
X0064300Y0079300D03*
X0074300Y0079300D03*
X0084300Y0079300D03*
X0094300Y0079300D03*
X0104300Y0079300D03*
X0114300Y0079300D03*
X0124300Y0079300D03*
X0134300Y0079300D03*
X0144300Y0079300D03*
X0154300Y0079300D03*
X0164300Y0079300D03*
X0174300Y0079300D03*
X0184300Y0079300D03*
X0194300Y0079300D03*
D16*
X0229300Y0086800D03*
X0239300Y0086800D03*
X0186800Y0036800D03*
X0186800Y0026800D03*
X0166800Y0014300D03*
X0156800Y0014300D03*
X0034300Y0086800D03*
X0024300Y0086800D03*
D17*
X0139800Y0031800D03*
X0158800Y0031800D03*
D18*
X0144300Y0014300D03*
X0134300Y0014300D03*
X0124300Y0014300D03*
X0114300Y0014300D03*
X0104300Y0014300D03*
X0094300Y0014300D03*
X0084300Y0014300D03*
X0074300Y0014300D03*
X0064300Y0014300D03*
X0052100Y0020400D03*
X0026500Y0020400D03*
X0026500Y0038200D03*
X0052100Y0038200D03*
X0064300Y0091800D03*
X0074300Y0091800D03*
X0084300Y0091800D03*
X0094300Y0091800D03*
X0104300Y0091800D03*
X0114300Y0091800D03*
X0124300Y0091800D03*
X0134300Y0091800D03*
X0144300Y0091800D03*
X0154300Y0091800D03*
X0164300Y0091800D03*
X0174300Y0091800D03*
X0184300Y0091800D03*
X0194300Y0091800D03*
X0204300Y0091800D03*
X0214300Y0091800D03*
D19*
X0011800Y0014300D03*
X0011800Y0024300D03*
X0011800Y0034300D03*
X0011800Y0044300D03*
X0011800Y0054300D03*
X0011800Y0064300D03*
X0176800Y0014300D03*
X0186800Y0014300D03*
X0196800Y0014300D03*
X0206800Y0014300D03*
D20*
X0216800Y0021800D03*
X0226800Y0021800D03*
X0224300Y0046800D03*
X0224300Y0066800D03*
X0046800Y0056800D03*
X0046800Y0076800D03*
D21*
X0051800Y0076800D01*
X0064300Y0064300D01*
X0064300Y0049300D01*
X0074300Y0049300D02*
X0074300Y0034300D01*
X0094300Y0014300D01*
X0084300Y0014300D02*
X0046800Y0051800D01*
X0029300Y0051800D01*
X0011800Y0034300D01*
X0046800Y0051800D02*
X0046800Y0056800D01*
X0011800Y0064300D02*
X0011800Y0074300D01*
X0024300Y0086800D01*
X0034300Y0086800D02*
X0036800Y0086800D01*
X0046800Y0076800D01*
X0064300Y0079300D02*
X0064300Y0091800D01*
X0074300Y0091800D02*
X0074300Y0079300D01*
X0084300Y0079300D02*
X0084300Y0091800D01*
X0094300Y0091800D02*
X0094300Y0079300D01*
X0104300Y0079300D02*
X0104300Y0091800D01*
X0114300Y0091800D02*
X0114300Y0079300D01*
X0124300Y0079300D02*
X0124300Y0091800D01*
X0134300Y0091800D02*
X0134300Y0079300D01*
X0144300Y0079300D02*
X0144300Y0069300D01*
X0146800Y0066800D01*
X0224300Y0066800D01*
X0231800Y0059300D01*
X0254300Y0059300D01*
X0264300Y0049300D01*
X0271800Y0049300D01*
X0291800Y0036800D02*
X0294300Y0034300D01*
X0301800Y0034300D01*
X0316800Y0034300D01*
X0319300Y0036800D01*
X0319300Y0045363D01*
X0291800Y0036800D02*
X0291800Y0066800D01*
X0281800Y0076800D01*
X0269300Y0076800D01*
X0281800Y0076800D02*
X0289300Y0084300D01*
X0229300Y0086800D02*
X0224300Y0081800D01*
X0214300Y0091800D01*
X0194300Y0091800D02*
X0194300Y0079300D01*
X0184300Y0079300D02*
X0184300Y0091800D01*
X0174300Y0091800D02*
X0174300Y0079300D01*
X0164300Y0079300D02*
X0164300Y0091800D01*
X0154300Y0091800D02*
X0154300Y0079300D01*
X0144300Y0079300D02*
X0144300Y0091800D01*
X0144300Y0069300D02*
X0124300Y0049300D01*
X0124300Y0034300D01*
X0144300Y0014300D01*
X0134300Y0014300D02*
X0114300Y0034300D01*
X0114300Y0049300D01*
X0104300Y0049300D02*
X0104300Y0034300D01*
X0124300Y0014300D01*
X0114300Y0014300D02*
X0094300Y0034300D01*
X0094300Y0049300D01*
X0084300Y0049300D02*
X0084300Y0034300D01*
X0104300Y0014300D01*
X0139800Y0031800D02*
X0156800Y0014800D01*
X0156800Y0014300D01*
X0163800Y0026800D02*
X0186800Y0026800D01*
X0163800Y0026800D02*
X0158800Y0031800D01*
X0158800Y0044800D01*
X0154300Y0049300D01*
X0144300Y0049300D02*
X0139800Y0044800D01*
X0139800Y0031800D01*
X0184300Y0049300D02*
X0186800Y0049300D01*
X0196800Y0039300D01*
X0196800Y0014300D01*
X0206800Y0014300D02*
X0206800Y0041800D01*
X0199300Y0049300D01*
X0194300Y0049300D01*
X0216800Y0039300D02*
X0224300Y0046800D01*
X0216800Y0039300D02*
X0216800Y0021800D01*
X0244300Y0026800D02*
X0249300Y0031800D01*
X0284300Y0031800D01*
X0286800Y0029300D01*
X0286800Y0019300D01*
X0301800Y0034300D01*
X0224300Y0066800D02*
X0224300Y0081800D01*
M02*
