G75*
%MOIN*%
%OFA0B0*%
%FSLAX25Y25*%
%IPPOS*%
%LPD*%
%AMOC8*
5,1,8,0,0,1.08239X$1,22.5*
%
%ADD10C,0.06000*%
%ADD11C,0.07000*%
%ADD12OC8,0.07000*%
%ADD13C,0.11000*%
%ADD14C,0.07600*%
%ADD15C,0.06600*%
%ADD16OC8,0.06600*%
%ADD17C,0.04800*%
%ADD18C,0.07400*%
%ADD19C,0.07200*%
%ADD20OC8,0.04800*%
%ADD21C,0.01600*%
D10*
X0266800Y0016300D02*
X0266800Y0022300D01*
X0276800Y0022300D02*
X0276800Y0016300D01*
X0286800Y0016300D02*
X0286800Y0022300D01*
D11*
X0271800Y0049300D03*
X0269300Y0076800D03*
D12*
X0259300Y0076800D03*
X0289300Y0084300D03*
X0289300Y0094300D03*
X0281800Y0049300D03*
D13*
X0300796Y0057174D03*
X0319300Y0045363D03*
X0319300Y0068985D03*
D14*
X0244300Y0066800D03*
X0244300Y0026800D03*
D15*
X0194300Y0049300D03*
X0184300Y0049300D03*
X0174300Y0049300D03*
X0164300Y0049300D03*
X0154300Y0049300D03*
X0144300Y0049300D03*
X0134300Y0049300D03*
X0124300Y0049300D03*
X0114300Y0049300D03*
X0104300Y0049300D03*
X0094300Y0049300D03*
X0084300Y0049300D03*
X0074300Y0049300D03*
X0064300Y0049300D03*
X0064300Y0079300D03*
X0074300Y0079300D03*
X0084300Y0079300D03*
X0094300Y0079300D03*
X0104300Y0079300D03*
X0114300Y0079300D03*
X0124300Y0079300D03*
X0134300Y0079300D03*
X0144300Y0079300D03*
X0154300Y0079300D03*
X0164300Y0079300D03*
X0174300Y0079300D03*
X0184300Y0079300D03*
X0194300Y0079300D03*
D16*
X0229300Y0086800D03*
X0239300Y0086800D03*
X0186800Y0036800D03*
X0186800Y0026800D03*
X0166800Y0014300D03*
X0156800Y0014300D03*
X0034300Y0086800D03*
X0024300Y0086800D03*
D17*
X0139800Y0031800D03*
X0158800Y0031800D03*
D18*
X0144300Y0014300D03*
X0134300Y0014300D03*
X0124300Y0014300D03*
X0114300Y0014300D03*
X0104300Y0014300D03*
X0094300Y0014300D03*
X0084300Y0014300D03*
X0074300Y0014300D03*
X0064300Y0014300D03*
X0052100Y0020400D03*
X0026500Y0020400D03*
X0026500Y0038200D03*
X0052100Y0038200D03*
X0064300Y0091800D03*
X0074300Y0091800D03*
X0084300Y0091800D03*
X0094300Y0091800D03*
X0104300Y0091800D03*
X0114300Y0091800D03*
X0124300Y0091800D03*
X0134300Y0091800D03*
X0144300Y0091800D03*
X0154300Y0091800D03*
X0164300Y0091800D03*
X0174300Y0091800D03*
X0184300Y0091800D03*
X0194300Y0091800D03*
X0204300Y0091800D03*
X0214300Y0091800D03*
D19*
X0011800Y0064300D03*
X0011800Y0054300D03*
X0011800Y0044300D03*
X0011800Y0034300D03*
X0011800Y0024300D03*
X0011800Y0014300D03*
X0176800Y0014300D03*
X0186800Y0014300D03*
X0196800Y0014300D03*
X0206800Y0014300D03*
D20*
X0216800Y0021800D03*
X0226800Y0021800D03*
X0224300Y0046800D03*
X0224300Y0066800D03*
X0046800Y0056800D03*
X0046800Y0076800D03*
D21*
X0004900Y0101200D02*
X0004900Y0004900D01*
X0338700Y0004900D01*
X0338700Y0101200D01*
X0004900Y0101200D01*
X0004900Y0100908D02*
X0338700Y0100908D01*
X0338700Y0099309D02*
X0291786Y0099309D01*
X0291495Y0099600D02*
X0294600Y0096495D01*
X0294600Y0094500D01*
X0289500Y0094500D01*
X0289500Y0094100D01*
X0294600Y0094100D01*
X0294600Y0092105D01*
X0291512Y0089017D01*
X0294200Y0086330D01*
X0294200Y0082270D01*
X0291330Y0079400D01*
X0287270Y0079400D01*
X0284400Y0082270D01*
X0284400Y0086330D01*
X0287088Y0089017D01*
X0284000Y0092105D01*
X0284000Y0094100D01*
X0289100Y0094100D01*
X0289100Y0094500D01*
X0289100Y0099600D01*
X0287105Y0099600D01*
X0284000Y0096495D01*
X0284000Y0094500D01*
X0289100Y0094500D01*
X0289500Y0094500D01*
X0289500Y0099600D01*
X0291495Y0099600D01*
X0289500Y0099309D02*
X0289100Y0099309D01*
X0286814Y0099309D02*
X0004900Y0099309D01*
X0004900Y0097711D02*
X0285215Y0097711D01*
X0284000Y0096112D02*
X0217200Y0096112D01*
X0217189Y0096124D02*
X0215314Y0096900D01*
X0213286Y0096900D01*
X0211411Y0096124D01*
X0209976Y0094689D01*
X0209510Y0093563D01*
X0209397Y0093911D01*
X0209004Y0094683D01*
X0208495Y0095383D01*
X0207883Y0095995D01*
X0207183Y0096504D01*
X0206411Y0096897D01*
X0205588Y0097165D01*
X0204733Y0097300D01*
X0204500Y0097300D01*
X0204500Y0092000D01*
X0204100Y0092000D01*
X0204100Y0097300D01*
X0203867Y0097300D01*
X0203012Y0097165D01*
X0202189Y0096897D01*
X0201417Y0096504D01*
X0200717Y0095995D01*
X0200105Y0095383D01*
X0199596Y0094683D01*
X0199203Y0093911D01*
X0199090Y0093563D01*
X0198624Y0094689D01*
X0197189Y0096124D01*
X0195314Y0096900D01*
X0193286Y0096900D01*
X0191411Y0096124D01*
X0189976Y0094689D01*
X0189300Y0093056D01*
X0188624Y0094689D01*
X0187189Y0096124D01*
X0185314Y0096900D01*
X0183286Y0096900D01*
X0181411Y0096124D01*
X0179976Y0094689D01*
X0179300Y0093056D01*
X0178624Y0094689D01*
X0177189Y0096124D01*
X0175314Y0096900D01*
X0173286Y0096900D01*
X0171411Y0096124D01*
X0169976Y0094689D01*
X0169300Y0093056D01*
X0168624Y0094689D01*
X0167189Y0096124D01*
X0165314Y0096900D01*
X0163286Y0096900D01*
X0161411Y0096124D01*
X0159976Y0094689D01*
X0159300Y0093056D01*
X0158624Y0094689D01*
X0157189Y0096124D01*
X0155314Y0096900D01*
X0153286Y0096900D01*
X0151411Y0096124D01*
X0149976Y0094689D01*
X0149300Y0093056D01*
X0148624Y0094689D01*
X0147189Y0096124D01*
X0145314Y0096900D01*
X0143286Y0096900D01*
X0141411Y0096124D01*
X0139976Y0094689D01*
X0139300Y0093056D01*
X0138624Y0094689D01*
X0137189Y0096124D01*
X0135314Y0096900D01*
X0133286Y0096900D01*
X0131411Y0096124D01*
X0129976Y0094689D01*
X0129510Y0093563D01*
X0129397Y0093911D01*
X0129004Y0094683D01*
X0128495Y0095383D01*
X0127883Y0095995D01*
X0127183Y0096504D01*
X0126411Y0096897D01*
X0125588Y0097165D01*
X0124733Y0097300D01*
X0124500Y0097300D01*
X0124500Y0092000D01*
X0124100Y0092000D01*
X0124100Y0097300D01*
X0123867Y0097300D01*
X0123012Y0097165D01*
X0122189Y0096897D01*
X0121417Y0096504D01*
X0120717Y0095995D01*
X0120105Y0095383D01*
X0119596Y0094683D01*
X0119203Y0093911D01*
X0119090Y0093563D01*
X0118624Y0094689D01*
X0117189Y0096124D01*
X0115314Y0096900D01*
X0113286Y0096900D01*
X0111411Y0096124D01*
X0109976Y0094689D01*
X0109300Y0093056D01*
X0108624Y0094689D01*
X0107189Y0096124D01*
X0105314Y0096900D01*
X0103286Y0096900D01*
X0101411Y0096124D01*
X0099976Y0094689D01*
X0099300Y0093056D01*
X0098624Y0094689D01*
X0097189Y0096124D01*
X0095314Y0096900D01*
X0093286Y0096900D01*
X0091411Y0096124D01*
X0089976Y0094689D01*
X0089300Y0093056D01*
X0088624Y0094689D01*
X0087189Y0096124D01*
X0085314Y0096900D01*
X0083286Y0096900D01*
X0081411Y0096124D01*
X0079976Y0094689D01*
X0079300Y0093056D01*
X0078624Y0094689D01*
X0077189Y0096124D01*
X0075314Y0096900D01*
X0073286Y0096900D01*
X0071411Y0096124D01*
X0069976Y0094689D01*
X0069300Y0093056D01*
X0068624Y0094689D01*
X0067189Y0096124D01*
X0065314Y0096900D01*
X0063286Y0096900D01*
X0061411Y0096124D01*
X0059976Y0094689D01*
X0059200Y0092814D01*
X0059200Y0090786D01*
X0059976Y0088911D01*
X0061411Y0087476D01*
X0063286Y0086700D01*
X0065314Y0086700D01*
X0067189Y0087476D01*
X0068624Y0088911D01*
X0069300Y0090544D01*
X0069976Y0088911D01*
X0071411Y0087476D01*
X0073286Y0086700D01*
X0075314Y0086700D01*
X0077189Y0087476D01*
X0078624Y0088911D01*
X0079300Y0090544D01*
X0079976Y0088911D01*
X0081411Y0087476D01*
X0083286Y0086700D01*
X0085314Y0086700D01*
X0087189Y0087476D01*
X0088624Y0088911D01*
X0089300Y0090544D01*
X0089976Y0088911D01*
X0091411Y0087476D01*
X0093286Y0086700D01*
X0095314Y0086700D01*
X0097189Y0087476D01*
X0098624Y0088911D01*
X0099300Y0090544D01*
X0099976Y0088911D01*
X0101411Y0087476D01*
X0103286Y0086700D01*
X0105314Y0086700D01*
X0107189Y0087476D01*
X0108624Y0088911D01*
X0109300Y0090544D01*
X0109976Y0088911D01*
X0111411Y0087476D01*
X0113286Y0086700D01*
X0115314Y0086700D01*
X0117189Y0087476D01*
X0118624Y0088911D01*
X0119090Y0090037D01*
X0119203Y0089689D01*
X0119596Y0088917D01*
X0120105Y0088217D01*
X0120717Y0087605D01*
X0121417Y0087096D01*
X0122189Y0086703D01*
X0123012Y0086435D01*
X0123867Y0086300D01*
X0124100Y0086300D01*
X0124100Y0091600D01*
X0124500Y0091600D01*
X0124500Y0086300D01*
X0124733Y0086300D01*
X0125588Y0086435D01*
X0126411Y0086703D01*
X0127183Y0087096D01*
X0127883Y0087605D01*
X0128495Y0088217D01*
X0129004Y0088917D01*
X0129397Y0089689D01*
X0129510Y0090037D01*
X0129976Y0088911D01*
X0131411Y0087476D01*
X0133286Y0086700D01*
X0135314Y0086700D01*
X0137189Y0087476D01*
X0138624Y0088911D01*
X0139300Y0090544D01*
X0139976Y0088911D01*
X0141411Y0087476D01*
X0143286Y0086700D01*
X0145314Y0086700D01*
X0147189Y0087476D01*
X0148624Y0088911D01*
X0149300Y0090544D01*
X0149976Y0088911D01*
X0151411Y0087476D01*
X0153286Y0086700D01*
X0155314Y0086700D01*
X0157189Y0087476D01*
X0158624Y0088911D01*
X0159300Y0090544D01*
X0159976Y0088911D01*
X0161411Y0087476D01*
X0163286Y0086700D01*
X0165314Y0086700D01*
X0167189Y0087476D01*
X0168624Y0088911D01*
X0169300Y0090544D01*
X0169976Y0088911D01*
X0171411Y0087476D01*
X0173286Y0086700D01*
X0175314Y0086700D01*
X0177189Y0087476D01*
X0178624Y0088911D01*
X0179300Y0090544D01*
X0179976Y0088911D01*
X0181411Y0087476D01*
X0183286Y0086700D01*
X0185314Y0086700D01*
X0187189Y0087476D01*
X0188624Y0088911D01*
X0189300Y0090544D01*
X0189976Y0088911D01*
X0191411Y0087476D01*
X0193286Y0086700D01*
X0195314Y0086700D01*
X0197189Y0087476D01*
X0198624Y0088911D01*
X0199090Y0090037D01*
X0199203Y0089689D01*
X0199596Y0088917D01*
X0200105Y0088217D01*
X0200717Y0087605D01*
X0201417Y0087096D01*
X0202189Y0086703D01*
X0203012Y0086435D01*
X0203867Y0086300D01*
X0204100Y0086300D01*
X0204100Y0091600D01*
X0204500Y0091600D01*
X0204500Y0086300D01*
X0204733Y0086300D01*
X0205588Y0086435D01*
X0206411Y0086703D01*
X0207183Y0087096D01*
X0207883Y0087605D01*
X0208495Y0088217D01*
X0209004Y0088917D01*
X0209397Y0089689D01*
X0209510Y0090037D01*
X0209976Y0088911D01*
X0211411Y0087476D01*
X0213286Y0086700D01*
X0215314Y0086700D01*
X0217189Y0087476D01*
X0218624Y0088911D01*
X0219400Y0090786D01*
X0219400Y0092814D01*
X0218624Y0094689D01*
X0217189Y0096124D01*
X0218696Y0094514D02*
X0284000Y0094514D01*
X0284000Y0092915D02*
X0219358Y0092915D01*
X0219400Y0091317D02*
X0227170Y0091317D01*
X0227353Y0091500D02*
X0224600Y0088747D01*
X0224600Y0084853D01*
X0227353Y0082100D01*
X0231247Y0082100D01*
X0234000Y0084853D01*
X0234000Y0088747D01*
X0231247Y0091500D01*
X0227353Y0091500D01*
X0225571Y0089718D02*
X0218958Y0089718D01*
X0217832Y0088120D02*
X0224600Y0088120D01*
X0224600Y0086521D02*
X0205852Y0086521D01*
X0204500Y0086521D02*
X0204100Y0086521D01*
X0202748Y0086521D02*
X0125852Y0086521D01*
X0124500Y0086521D02*
X0124100Y0086521D01*
X0122748Y0086521D02*
X0039000Y0086521D01*
X0039000Y0088120D02*
X0060768Y0088120D01*
X0059642Y0089718D02*
X0038029Y0089718D01*
X0039000Y0088747D02*
X0036247Y0091500D01*
X0032353Y0091500D01*
X0029600Y0088747D01*
X0029600Y0084853D01*
X0032353Y0082100D01*
X0036247Y0082100D01*
X0039000Y0084853D01*
X0039000Y0088747D01*
X0036430Y0091317D02*
X0059200Y0091317D01*
X0059242Y0092915D02*
X0004900Y0092915D01*
X0004900Y0094514D02*
X0059904Y0094514D01*
X0061400Y0096112D02*
X0004900Y0096112D01*
X0004900Y0091317D02*
X0022170Y0091317D01*
X0022353Y0091500D02*
X0019600Y0088747D01*
X0019600Y0084853D01*
X0022353Y0082100D01*
X0026247Y0082100D01*
X0029000Y0084853D01*
X0029000Y0088747D01*
X0026247Y0091500D01*
X0022353Y0091500D01*
X0020571Y0089718D02*
X0004900Y0089718D01*
X0004900Y0088120D02*
X0019600Y0088120D01*
X0019600Y0086521D02*
X0004900Y0086521D01*
X0004900Y0084923D02*
X0019600Y0084923D01*
X0021129Y0083324D02*
X0004900Y0083324D01*
X0004900Y0081726D02*
X0060217Y0081726D01*
X0060316Y0081962D02*
X0059600Y0080235D01*
X0059600Y0078365D01*
X0060316Y0076638D01*
X0061638Y0075316D01*
X0063365Y0074600D01*
X0065235Y0074600D01*
X0066962Y0075316D01*
X0068284Y0076638D01*
X0069000Y0078365D01*
X0069000Y0080235D01*
X0068284Y0081962D01*
X0066962Y0083284D01*
X0065235Y0084000D01*
X0063365Y0084000D01*
X0061638Y0083284D01*
X0060316Y0081962D01*
X0059600Y0080127D02*
X0048847Y0080127D01*
X0048374Y0080600D02*
X0045226Y0080600D01*
X0043000Y0078374D01*
X0043000Y0075226D01*
X0045226Y0073000D01*
X0048374Y0073000D01*
X0050600Y0075226D01*
X0050600Y0078374D01*
X0048374Y0080600D01*
X0044753Y0080127D02*
X0004900Y0080127D01*
X0004900Y0078529D02*
X0043155Y0078529D01*
X0043000Y0076930D02*
X0004900Y0076930D01*
X0004900Y0075332D02*
X0043000Y0075332D01*
X0044493Y0073733D02*
X0004900Y0073733D01*
X0004900Y0072134D02*
X0242596Y0072134D01*
X0242989Y0072262D02*
X0242150Y0071990D01*
X0241365Y0071590D01*
X0240652Y0071071D01*
X0240029Y0070448D01*
X0239510Y0069735D01*
X0239110Y0068950D01*
X0238838Y0068111D01*
X0238700Y0067241D01*
X0238700Y0067100D01*
X0244000Y0067100D01*
X0244000Y0072400D01*
X0243859Y0072400D01*
X0242989Y0072262D01*
X0244000Y0072134D02*
X0244600Y0072134D01*
X0244600Y0072400D02*
X0244600Y0067100D01*
X0244000Y0067100D01*
X0244000Y0066500D01*
X0238700Y0066500D01*
X0238700Y0066359D01*
X0238838Y0065489D01*
X0239110Y0064650D01*
X0239510Y0063865D01*
X0240029Y0063152D01*
X0240652Y0062529D01*
X0241365Y0062010D01*
X0242150Y0061610D01*
X0242989Y0061338D01*
X0243859Y0061200D01*
X0244000Y0061200D01*
X0244000Y0066500D01*
X0244600Y0066500D01*
X0244600Y0067100D01*
X0249900Y0067100D01*
X0249900Y0067241D01*
X0249762Y0068111D01*
X0249490Y0068950D01*
X0249090Y0069735D01*
X0248571Y0070448D01*
X0247948Y0071071D01*
X0247235Y0071590D01*
X0246450Y0071990D01*
X0245611Y0072262D01*
X0244741Y0072400D01*
X0244600Y0072400D01*
X0244300Y0071800D02*
X0244300Y0066800D01*
X0239300Y0066800D01*
X0234300Y0061800D01*
X0234300Y0029300D01*
X0226800Y0021800D01*
X0211800Y0036800D01*
X0186800Y0036800D01*
X0179300Y0044300D01*
X0179300Y0059300D01*
X0174300Y0064300D01*
X0141800Y0064300D01*
X0139300Y0064300D01*
X0124300Y0079300D01*
X0124300Y0079300D01*
X0124300Y0084400D01*
X0124701Y0084400D01*
X0125494Y0084274D01*
X0126258Y0084026D01*
X0126973Y0083662D01*
X0127622Y0083190D01*
X0128190Y0082622D01*
X0128662Y0081973D01*
X0129026Y0081258D01*
X0129274Y0080494D01*
X0129400Y0079701D01*
X0129400Y0079300D01*
X0124300Y0079300D01*
X0124300Y0079300D01*
X0124300Y0079300D01*
X0119200Y0079300D01*
X0119200Y0079701D01*
X0119326Y0080494D01*
X0119574Y0081258D01*
X0119938Y0081973D01*
X0120410Y0082622D01*
X0120978Y0083190D01*
X0121627Y0083662D01*
X0122342Y0084026D01*
X0123106Y0084274D01*
X0123899Y0084400D01*
X0124300Y0084400D01*
X0124300Y0079300D01*
X0129400Y0079300D01*
X0129400Y0078899D01*
X0129274Y0078106D01*
X0129026Y0077342D01*
X0128662Y0076627D01*
X0128190Y0075978D01*
X0127622Y0075410D01*
X0126973Y0074938D01*
X0126258Y0074574D01*
X0125494Y0074326D01*
X0124701Y0074200D01*
X0124300Y0074200D01*
X0124300Y0079300D01*
X0124300Y0079300D01*
X0119200Y0079300D01*
X0119200Y0078899D01*
X0119326Y0078106D01*
X0119574Y0077342D01*
X0119938Y0076627D01*
X0120410Y0075978D01*
X0120978Y0075410D01*
X0121627Y0074938D01*
X0122342Y0074574D01*
X0123106Y0074326D01*
X0123899Y0074200D01*
X0124300Y0074200D01*
X0124300Y0079300D01*
X0124300Y0078529D02*
X0124300Y0078529D01*
X0124300Y0076930D02*
X0124300Y0076930D01*
X0128816Y0076930D02*
X0130194Y0076930D01*
X0130316Y0076638D02*
X0131638Y0075316D01*
X0133365Y0074600D01*
X0135235Y0074600D01*
X0136962Y0075316D01*
X0138284Y0076638D01*
X0139000Y0078365D01*
X0139000Y0080235D01*
X0138284Y0081962D01*
X0136962Y0083284D01*
X0135235Y0084000D01*
X0133365Y0084000D01*
X0131638Y0083284D01*
X0130316Y0081962D01*
X0129600Y0080235D01*
X0129600Y0078365D01*
X0130316Y0076638D01*
X0131622Y0075332D02*
X0127514Y0075332D01*
X0124300Y0075332D02*
X0124300Y0075332D01*
X0121085Y0075332D02*
X0116978Y0075332D01*
X0116962Y0075316D02*
X0118284Y0076638D01*
X0119000Y0078365D01*
X0119000Y0080235D01*
X0118284Y0081962D01*
X0116962Y0083284D01*
X0115235Y0084000D01*
X0113365Y0084000D01*
X0111638Y0083284D01*
X0110316Y0081962D01*
X0109600Y0080235D01*
X0109600Y0078365D01*
X0110316Y0076638D01*
X0111638Y0075316D01*
X0113365Y0074600D01*
X0115235Y0074600D01*
X0116962Y0075316D01*
X0118406Y0076930D02*
X0119784Y0076930D01*
X0119259Y0078529D02*
X0119000Y0078529D01*
X0119000Y0080127D02*
X0119267Y0080127D01*
X0119812Y0081726D02*
X0118383Y0081726D01*
X0116867Y0083324D02*
X0121162Y0083324D01*
X0124300Y0083324D02*
X0124300Y0083324D01*
X0127438Y0083324D02*
X0131733Y0083324D01*
X0136867Y0083324D02*
X0141733Y0083324D01*
X0141638Y0083284D02*
X0140316Y0081962D01*
X0139600Y0080235D01*
X0139600Y0078365D01*
X0140316Y0076638D01*
X0141638Y0075316D01*
X0143365Y0074600D01*
X0145235Y0074600D01*
X0146962Y0075316D01*
X0148284Y0076638D01*
X0149000Y0078365D01*
X0149000Y0080235D01*
X0148284Y0081962D01*
X0146962Y0083284D01*
X0145235Y0084000D01*
X0143365Y0084000D01*
X0141638Y0083284D01*
X0146867Y0083324D02*
X0151733Y0083324D01*
X0151638Y0083284D02*
X0150316Y0081962D01*
X0149600Y0080235D01*
X0149600Y0078365D01*
X0150316Y0076638D01*
X0151638Y0075316D01*
X0153365Y0074600D01*
X0155235Y0074600D01*
X0156962Y0075316D01*
X0158284Y0076638D01*
X0159000Y0078365D01*
X0159000Y0080235D01*
X0158284Y0081962D01*
X0156962Y0083284D01*
X0155235Y0084000D01*
X0153365Y0084000D01*
X0151638Y0083284D01*
X0156867Y0083324D02*
X0161733Y0083324D01*
X0161638Y0083284D02*
X0160316Y0081962D01*
X0159600Y0080235D01*
X0159600Y0078365D01*
X0160316Y0076638D01*
X0161638Y0075316D01*
X0163365Y0074600D01*
X0165235Y0074600D01*
X0166962Y0075316D01*
X0168284Y0076638D01*
X0169000Y0078365D01*
X0169000Y0080235D01*
X0168284Y0081962D01*
X0166962Y0083284D01*
X0165235Y0084000D01*
X0163365Y0084000D01*
X0161638Y0083284D01*
X0166867Y0083324D02*
X0171733Y0083324D01*
X0171638Y0083284D02*
X0170316Y0081962D01*
X0169600Y0080235D01*
X0169600Y0078365D01*
X0170316Y0076638D01*
X0171638Y0075316D01*
X0173365Y0074600D01*
X0175235Y0074600D01*
X0176962Y0075316D01*
X0178284Y0076638D01*
X0179000Y0078365D01*
X0179000Y0080235D01*
X0178284Y0081962D01*
X0176962Y0083284D01*
X0175235Y0084000D01*
X0173365Y0084000D01*
X0171638Y0083284D01*
X0170217Y0081726D02*
X0168383Y0081726D01*
X0169000Y0080127D02*
X0169600Y0080127D01*
X0169600Y0078529D02*
X0169000Y0078529D01*
X0168406Y0076930D02*
X0170194Y0076930D01*
X0171622Y0075332D02*
X0166978Y0075332D01*
X0161622Y0075332D02*
X0156978Y0075332D01*
X0151622Y0075332D02*
X0146978Y0075332D01*
X0141622Y0075332D02*
X0136978Y0075332D01*
X0138406Y0076930D02*
X0140194Y0076930D01*
X0139600Y0078529D02*
X0139000Y0078529D01*
X0139000Y0080127D02*
X0139600Y0080127D01*
X0140217Y0081726D02*
X0138383Y0081726D01*
X0130217Y0081726D02*
X0128788Y0081726D01*
X0129333Y0080127D02*
X0129600Y0080127D01*
X0124300Y0080127D02*
X0124300Y0080127D01*
X0124300Y0081726D02*
X0124300Y0081726D01*
X0129341Y0078529D02*
X0129600Y0078529D01*
X0111622Y0075332D02*
X0106978Y0075332D01*
X0106962Y0075316D02*
X0108284Y0076638D01*
X0109000Y0078365D01*
X0109000Y0080235D01*
X0108284Y0081962D01*
X0106962Y0083284D01*
X0105235Y0084000D01*
X0103365Y0084000D01*
X0101638Y0083284D01*
X0100316Y0081962D01*
X0099600Y0080235D01*
X0099600Y0078365D01*
X0100316Y0076638D01*
X0101638Y0075316D01*
X0103365Y0074600D01*
X0105235Y0074600D01*
X0106962Y0075316D01*
X0108406Y0076930D02*
X0110194Y0076930D01*
X0109600Y0078529D02*
X0109000Y0078529D01*
X0109000Y0080127D02*
X0109600Y0080127D01*
X0110217Y0081726D02*
X0108383Y0081726D01*
X0106867Y0083324D02*
X0111733Y0083324D01*
X0101733Y0083324D02*
X0096867Y0083324D01*
X0096962Y0083284D02*
X0095235Y0084000D01*
X0093365Y0084000D01*
X0091638Y0083284D01*
X0090316Y0081962D01*
X0089600Y0080235D01*
X0089600Y0078365D01*
X0090316Y0076638D01*
X0091638Y0075316D01*
X0093365Y0074600D01*
X0095235Y0074600D01*
X0096962Y0075316D01*
X0098284Y0076638D01*
X0099000Y0078365D01*
X0099000Y0080235D01*
X0098284Y0081962D01*
X0096962Y0083284D01*
X0098383Y0081726D02*
X0100217Y0081726D01*
X0099600Y0080127D02*
X0099000Y0080127D01*
X0099000Y0078529D02*
X0099600Y0078529D01*
X0100194Y0076930D02*
X0098406Y0076930D01*
X0096978Y0075332D02*
X0101622Y0075332D01*
X0091622Y0075332D02*
X0086978Y0075332D01*
X0086962Y0075316D02*
X0088284Y0076638D01*
X0089000Y0078365D01*
X0089000Y0080235D01*
X0088284Y0081962D01*
X0086962Y0083284D01*
X0085235Y0084000D01*
X0083365Y0084000D01*
X0081638Y0083284D01*
X0080316Y0081962D01*
X0079600Y0080235D01*
X0079600Y0078365D01*
X0080316Y0076638D01*
X0081638Y0075316D01*
X0083365Y0074600D01*
X0085235Y0074600D01*
X0086962Y0075316D01*
X0088406Y0076930D02*
X0090194Y0076930D01*
X0089600Y0078529D02*
X0089000Y0078529D01*
X0089000Y0080127D02*
X0089600Y0080127D01*
X0090217Y0081726D02*
X0088383Y0081726D01*
X0086867Y0083324D02*
X0091733Y0083324D01*
X0081733Y0083324D02*
X0076867Y0083324D01*
X0076962Y0083284D02*
X0075235Y0084000D01*
X0073365Y0084000D01*
X0071638Y0083284D01*
X0070316Y0081962D01*
X0069600Y0080235D01*
X0069600Y0078365D01*
X0070316Y0076638D01*
X0071638Y0075316D01*
X0073365Y0074600D01*
X0075235Y0074600D01*
X0076962Y0075316D01*
X0078284Y0076638D01*
X0079000Y0078365D01*
X0079000Y0080235D01*
X0078284Y0081962D01*
X0076962Y0083284D01*
X0078383Y0081726D02*
X0080217Y0081726D01*
X0079600Y0080127D02*
X0079000Y0080127D01*
X0079000Y0078529D02*
X0079600Y0078529D01*
X0080194Y0076930D02*
X0078406Y0076930D01*
X0076978Y0075332D02*
X0081622Y0075332D01*
X0077711Y0071500D02*
X0025889Y0071500D01*
X0024600Y0070211D01*
X0016168Y0061779D01*
X0016800Y0063305D01*
X0016800Y0065295D01*
X0016039Y0067132D01*
X0014632Y0068539D01*
X0012795Y0069300D01*
X0010805Y0069300D01*
X0008968Y0068539D01*
X0007561Y0067132D01*
X0006800Y0065295D01*
X0006800Y0063305D01*
X0007561Y0061468D01*
X0008968Y0060061D01*
X0010805Y0059300D01*
X0008968Y0058539D01*
X0007561Y0057132D01*
X0006800Y0055295D01*
X0006800Y0053305D01*
X0007561Y0051468D01*
X0008968Y0050061D01*
X0010805Y0049300D01*
X0008968Y0048539D01*
X0007561Y0047132D01*
X0006800Y0045295D01*
X0006800Y0043305D01*
X0007561Y0041468D01*
X0008968Y0040061D01*
X0010805Y0039300D01*
X0012795Y0039300D01*
X0014632Y0040061D01*
X0016039Y0041468D01*
X0016800Y0043305D01*
X0016800Y0045295D01*
X0016538Y0045927D01*
X0032711Y0062100D01*
X0068389Y0062100D01*
X0072100Y0058389D01*
X0072100Y0053476D01*
X0071638Y0053284D01*
X0070316Y0051962D01*
X0069600Y0050235D01*
X0069600Y0048365D01*
X0070316Y0046638D01*
X0071638Y0045316D01*
X0073365Y0044600D01*
X0075235Y0044600D01*
X0076962Y0045316D01*
X0078284Y0046638D01*
X0079000Y0048365D01*
X0079000Y0050235D01*
X0078284Y0051962D01*
X0076962Y0053284D01*
X0076500Y0053476D01*
X0076500Y0060211D01*
X0075211Y0061500D01*
X0070211Y0066500D01*
X0030889Y0066500D01*
X0029600Y0065211D01*
X0016168Y0051779D01*
X0016800Y0053305D01*
X0016800Y0055295D01*
X0016538Y0055927D01*
X0027711Y0067100D01*
X0075889Y0067100D01*
X0082100Y0060889D01*
X0082100Y0053476D01*
X0081638Y0053284D01*
X0080316Y0051962D01*
X0079600Y0050235D01*
X0079600Y0048365D01*
X0080316Y0046638D01*
X0081638Y0045316D01*
X0083365Y0044600D01*
X0085235Y0044600D01*
X0086962Y0045316D01*
X0088284Y0046638D01*
X0089000Y0048365D01*
X0089000Y0050235D01*
X0088284Y0051962D01*
X0086962Y0053284D01*
X0086500Y0053476D01*
X0086500Y0062711D01*
X0085211Y0064000D01*
X0077711Y0071500D01*
X0078675Y0070536D02*
X0222662Y0070536D01*
X0222726Y0070600D02*
X0220500Y0068374D01*
X0220500Y0065226D01*
X0222726Y0063000D01*
X0225874Y0063000D01*
X0228100Y0065226D01*
X0228100Y0068374D01*
X0225874Y0070600D01*
X0222726Y0070600D01*
X0225938Y0070536D02*
X0240116Y0070536D01*
X0239106Y0068937D02*
X0227537Y0068937D01*
X0228100Y0067339D02*
X0238716Y0067339D01*
X0238798Y0065740D02*
X0228100Y0065740D01*
X0227016Y0064142D02*
X0239369Y0064142D01*
X0240637Y0062543D02*
X0086500Y0062543D01*
X0086500Y0060945D02*
X0294544Y0060945D01*
X0294713Y0061238D02*
X0294235Y0060410D01*
X0293869Y0059526D01*
X0293621Y0058601D01*
X0293499Y0057674D01*
X0300296Y0057674D01*
X0300296Y0056674D01*
X0293499Y0056674D01*
X0293621Y0055747D01*
X0293869Y0054822D01*
X0294235Y0053938D01*
X0294713Y0053110D01*
X0295296Y0052350D01*
X0295973Y0051674D01*
X0296732Y0051091D01*
X0297560Y0050613D01*
X0298445Y0050247D01*
X0299369Y0049999D01*
X0300296Y0049877D01*
X0300296Y0056674D01*
X0301296Y0056674D01*
X0301296Y0049877D01*
X0302223Y0049999D01*
X0303148Y0050247D01*
X0304032Y0050613D01*
X0304860Y0051091D01*
X0305620Y0051674D01*
X0306296Y0052350D01*
X0306879Y0053110D01*
X0307357Y0053938D01*
X0307723Y0054822D01*
X0307971Y0055747D01*
X0308093Y0056674D01*
X0301296Y0056674D01*
X0301296Y0057674D01*
X0300296Y0057674D01*
X0300296Y0064471D01*
X0299369Y0064349D01*
X0298445Y0064101D01*
X0297560Y0063735D01*
X0296732Y0063257D01*
X0295973Y0062674D01*
X0295296Y0061998D01*
X0294713Y0061238D01*
X0295842Y0062543D02*
X0247963Y0062543D01*
X0247948Y0062529D02*
X0248571Y0063152D01*
X0249090Y0063865D01*
X0249490Y0064650D01*
X0249762Y0065489D01*
X0249900Y0066359D01*
X0249900Y0066500D01*
X0244600Y0066500D01*
X0244600Y0061200D01*
X0244741Y0061200D01*
X0245611Y0061338D01*
X0246450Y0061610D01*
X0247235Y0062010D01*
X0247948Y0062529D01*
X0244600Y0062543D02*
X0244000Y0062543D01*
X0244000Y0064142D02*
X0244600Y0064142D01*
X0244600Y0065740D02*
X0244000Y0065740D01*
X0249231Y0064142D02*
X0298596Y0064142D01*
X0300296Y0064142D02*
X0301296Y0064142D01*
X0301296Y0064471D02*
X0301296Y0057674D01*
X0308093Y0057674D01*
X0307971Y0058601D01*
X0307723Y0059526D01*
X0307357Y0060410D01*
X0306879Y0061238D01*
X0306296Y0061998D01*
X0305620Y0062674D01*
X0304860Y0063257D01*
X0304032Y0063735D01*
X0303148Y0064101D01*
X0302223Y0064349D01*
X0301296Y0064471D01*
X0302996Y0064142D02*
X0313819Y0064142D01*
X0313800Y0064161D02*
X0314476Y0063485D01*
X0315236Y0062902D01*
X0316064Y0062424D01*
X0316948Y0062058D01*
X0317873Y0061810D01*
X0318800Y0061688D01*
X0318800Y0068485D01*
X0319800Y0068485D01*
X0319800Y0061688D01*
X0320727Y0061810D01*
X0321652Y0062058D01*
X0322536Y0062424D01*
X0323364Y0062902D01*
X0324124Y0063485D01*
X0324800Y0064161D01*
X0325383Y0064921D01*
X0325861Y0065749D01*
X0326227Y0066633D01*
X0326475Y0067558D01*
X0326597Y0068485D01*
X0319800Y0068485D01*
X0319800Y0069485D01*
X0326597Y0069485D01*
X0326475Y0070412D01*
X0326227Y0071337D01*
X0325861Y0072221D01*
X0325383Y0073049D01*
X0324800Y0073809D01*
X0324124Y0074485D01*
X0323364Y0075068D01*
X0322536Y0075546D01*
X0321652Y0075912D01*
X0320727Y0076160D01*
X0319800Y0076282D01*
X0319800Y0069485D01*
X0318800Y0069485D01*
X0318800Y0068485D01*
X0312003Y0068485D01*
X0312125Y0067558D01*
X0312373Y0066633D01*
X0312739Y0065749D01*
X0313217Y0064921D01*
X0313800Y0064161D01*
X0312744Y0065740D02*
X0249802Y0065740D01*
X0249884Y0067339D02*
X0312184Y0067339D01*
X0312003Y0069485D02*
X0318800Y0069485D01*
X0318800Y0076282D01*
X0317873Y0076160D01*
X0316948Y0075912D01*
X0316064Y0075546D01*
X0315236Y0075068D01*
X0314476Y0074485D01*
X0313800Y0073809D01*
X0313217Y0073049D01*
X0312739Y0072221D01*
X0312373Y0071337D01*
X0312125Y0070412D01*
X0312003Y0069485D01*
X0312158Y0070536D02*
X0248484Y0070536D01*
X0246004Y0072134D02*
X0256470Y0072134D01*
X0257105Y0071500D02*
X0259300Y0071500D01*
X0261495Y0071500D01*
X0264600Y0074605D01*
X0264600Y0075343D01*
X0265146Y0074024D01*
X0266524Y0072646D01*
X0268325Y0071900D01*
X0270275Y0071900D01*
X0272076Y0072646D01*
X0273454Y0074024D01*
X0274200Y0075825D01*
X0274200Y0077775D01*
X0273454Y0079576D01*
X0272076Y0080954D01*
X0270275Y0081700D01*
X0268325Y0081700D01*
X0266524Y0080954D01*
X0265146Y0079576D01*
X0264600Y0078257D01*
X0264600Y0078995D01*
X0261495Y0082100D01*
X0259300Y0082100D01*
X0259300Y0076800D01*
X0276800Y0094300D01*
X0289300Y0094300D01*
X0289100Y0094514D02*
X0289500Y0094514D01*
X0294600Y0094514D02*
X0338700Y0094514D01*
X0338700Y0092915D02*
X0294600Y0092915D01*
X0293812Y0091317D02*
X0338700Y0091317D01*
X0338700Y0089718D02*
X0292213Y0089718D01*
X0292410Y0088120D02*
X0338700Y0088120D01*
X0338700Y0086521D02*
X0294009Y0086521D01*
X0294200Y0084923D02*
X0338700Y0084923D01*
X0338700Y0083324D02*
X0294200Y0083324D01*
X0293655Y0081726D02*
X0338700Y0081726D01*
X0338700Y0080127D02*
X0292057Y0080127D01*
X0286543Y0080127D02*
X0272903Y0080127D01*
X0273888Y0078529D02*
X0338700Y0078529D01*
X0338700Y0076930D02*
X0274200Y0076930D01*
X0273995Y0075332D02*
X0315692Y0075332D01*
X0313742Y0073733D02*
X0273163Y0073733D01*
X0270841Y0072134D02*
X0312703Y0072134D01*
X0318800Y0072134D02*
X0319800Y0072134D01*
X0319800Y0070536D02*
X0318800Y0070536D01*
X0318800Y0068937D02*
X0249494Y0068937D01*
X0244600Y0068937D02*
X0244000Y0068937D01*
X0244000Y0067339D02*
X0244600Y0067339D01*
X0244600Y0070536D02*
X0244000Y0070536D01*
X0244300Y0071800D02*
X0249300Y0076800D01*
X0239300Y0086800D01*
X0244400Y0086800D01*
X0244400Y0088912D01*
X0241412Y0091900D01*
X0239300Y0091900D01*
X0239300Y0086800D01*
X0239300Y0086800D01*
X0239300Y0086800D01*
X0244400Y0086800D01*
X0244400Y0084688D01*
X0241412Y0081700D01*
X0239300Y0081700D01*
X0239300Y0086800D01*
X0239300Y0086800D01*
X0239300Y0086800D01*
X0234200Y0086800D01*
X0234200Y0088912D01*
X0237188Y0091900D01*
X0239300Y0091900D01*
X0239300Y0086800D01*
X0239300Y0081700D01*
X0237188Y0081700D01*
X0234200Y0084688D01*
X0234200Y0086800D01*
X0239300Y0086800D01*
X0239300Y0086521D02*
X0239300Y0086521D01*
X0239300Y0088120D02*
X0239300Y0088120D01*
X0234200Y0088120D02*
X0234000Y0088120D01*
X0234000Y0086521D02*
X0234200Y0086521D01*
X0234200Y0084923D02*
X0234000Y0084923D01*
X0232471Y0083324D02*
X0235563Y0083324D01*
X0239300Y0083324D02*
X0239300Y0083324D01*
X0239300Y0084923D02*
X0239300Y0084923D01*
X0243037Y0083324D02*
X0284400Y0083324D01*
X0284400Y0084923D02*
X0244400Y0084923D01*
X0244400Y0086521D02*
X0284591Y0086521D01*
X0286190Y0088120D02*
X0244400Y0088120D01*
X0243594Y0089718D02*
X0286387Y0089718D01*
X0284788Y0091317D02*
X0241996Y0091317D01*
X0239300Y0091317D02*
X0239300Y0091317D01*
X0239300Y0089718D02*
X0239300Y0089718D01*
X0236604Y0091317D02*
X0231430Y0091317D01*
X0233029Y0089718D02*
X0235006Y0089718D01*
X0224600Y0084923D02*
X0039000Y0084923D01*
X0037471Y0083324D02*
X0061733Y0083324D01*
X0066867Y0083324D02*
X0071733Y0083324D01*
X0070217Y0081726D02*
X0068383Y0081726D01*
X0069000Y0080127D02*
X0069600Y0080127D01*
X0069600Y0078529D02*
X0069000Y0078529D01*
X0068406Y0076930D02*
X0070194Y0076930D01*
X0071622Y0075332D02*
X0066978Y0075332D01*
X0061622Y0075332D02*
X0050600Y0075332D01*
X0049107Y0073733D02*
X0254872Y0073733D01*
X0254000Y0074605D02*
X0257105Y0071500D01*
X0259300Y0071500D02*
X0259300Y0076800D01*
X0249300Y0076800D01*
X0254000Y0076800D02*
X0254000Y0074605D01*
X0254000Y0075332D02*
X0196978Y0075332D01*
X0196962Y0075316D02*
X0198284Y0076638D01*
X0199000Y0078365D01*
X0199000Y0080235D01*
X0198284Y0081962D01*
X0196962Y0083284D01*
X0195235Y0084000D01*
X0193365Y0084000D01*
X0191638Y0083284D01*
X0190316Y0081962D01*
X0189600Y0080235D01*
X0189600Y0078365D01*
X0190316Y0076638D01*
X0191638Y0075316D01*
X0193365Y0074600D01*
X0195235Y0074600D01*
X0196962Y0075316D01*
X0198406Y0076930D02*
X0254000Y0076930D01*
X0254000Y0076800D02*
X0259300Y0076800D01*
X0259300Y0071800D01*
X0281800Y0049300D01*
X0276800Y0044300D01*
X0276800Y0019300D01*
X0277000Y0019384D02*
X0282400Y0019384D01*
X0281600Y0019500D02*
X0281600Y0022678D01*
X0281482Y0023424D01*
X0281248Y0024143D01*
X0280905Y0024816D01*
X0280461Y0025427D01*
X0279927Y0025961D01*
X0279316Y0026405D01*
X0278643Y0026748D01*
X0277924Y0026982D01*
X0277178Y0027100D01*
X0277000Y0027100D01*
X0277000Y0019500D01*
X0276600Y0019500D01*
X0276600Y0027100D01*
X0276422Y0027100D01*
X0275676Y0026982D01*
X0274957Y0026748D01*
X0274284Y0026405D01*
X0273673Y0025961D01*
X0273139Y0025427D01*
X0272695Y0024816D01*
X0272352Y0024143D01*
X0272118Y0023424D01*
X0272000Y0022678D01*
X0272000Y0019500D01*
X0276600Y0019500D01*
X0276600Y0019100D01*
X0272000Y0019100D01*
X0272000Y0015922D01*
X0272118Y0015176D01*
X0272352Y0014457D01*
X0272695Y0013784D01*
X0273139Y0013173D01*
X0273673Y0012639D01*
X0274284Y0012195D01*
X0274957Y0011852D01*
X0275676Y0011618D01*
X0276422Y0011500D01*
X0276600Y0011500D01*
X0276600Y0019100D01*
X0277000Y0019100D01*
X0277000Y0019500D01*
X0281600Y0019500D01*
X0281600Y0019100D02*
X0277000Y0019100D01*
X0277000Y0011500D01*
X0277178Y0011500D01*
X0277924Y0011618D01*
X0278643Y0011852D01*
X0279316Y0012195D01*
X0279927Y0012639D01*
X0280461Y0013173D01*
X0280905Y0013784D01*
X0281248Y0014457D01*
X0281482Y0015176D01*
X0281600Y0015922D01*
X0281600Y0019100D01*
X0281600Y0017785D02*
X0282400Y0017785D01*
X0282400Y0016187D02*
X0281600Y0016187D01*
X0282400Y0015425D02*
X0283070Y0013808D01*
X0284308Y0012570D01*
X0285925Y0011900D01*
X0287675Y0011900D01*
X0289292Y0012570D01*
X0290530Y0013808D01*
X0291200Y0015425D01*
X0291200Y0023175D01*
X0290530Y0024792D01*
X0289292Y0026030D01*
X0287675Y0026700D01*
X0285925Y0026700D01*
X0284308Y0026030D01*
X0283070Y0024792D01*
X0282400Y0023175D01*
X0282400Y0015425D01*
X0282747Y0014588D02*
X0281291Y0014588D01*
X0280278Y0012990D02*
X0283888Y0012990D01*
X0289712Y0012990D02*
X0338700Y0012990D01*
X0338700Y0014588D02*
X0290853Y0014588D01*
X0291200Y0016187D02*
X0338700Y0016187D01*
X0338700Y0017785D02*
X0291200Y0017785D01*
X0291200Y0019384D02*
X0338700Y0019384D01*
X0338700Y0020982D02*
X0291200Y0020982D01*
X0291200Y0022581D02*
X0338700Y0022581D01*
X0338700Y0024179D02*
X0290784Y0024179D01*
X0289545Y0025778D02*
X0338700Y0025778D01*
X0338700Y0027376D02*
X0269000Y0027376D01*
X0269000Y0026151D02*
X0269000Y0043389D01*
X0270250Y0044638D01*
X0270825Y0044400D01*
X0272775Y0044400D01*
X0274576Y0045146D01*
X0275954Y0046524D01*
X0276500Y0047843D01*
X0276500Y0047105D01*
X0279605Y0044000D01*
X0281800Y0044000D01*
X0283995Y0044000D01*
X0287100Y0047105D01*
X0287100Y0049300D01*
X0287100Y0051495D01*
X0283995Y0054600D01*
X0281800Y0054600D01*
X0281800Y0049300D01*
X0292922Y0049300D01*
X0300796Y0057174D01*
X0307489Y0057174D01*
X0319300Y0068985D01*
X0319800Y0068937D02*
X0338700Y0068937D01*
X0338700Y0067339D02*
X0326416Y0067339D01*
X0319800Y0067339D02*
X0318800Y0067339D01*
X0318800Y0065740D02*
X0319800Y0065740D01*
X0319800Y0064142D02*
X0318800Y0064142D01*
X0318800Y0062543D02*
X0319800Y0062543D01*
X0322743Y0062543D02*
X0338700Y0062543D01*
X0338700Y0060945D02*
X0307048Y0060945D01*
X0305750Y0062543D02*
X0315857Y0062543D01*
X0307771Y0059346D02*
X0338700Y0059346D01*
X0338700Y0057748D02*
X0308083Y0057748D01*
X0308024Y0056149D02*
X0338700Y0056149D01*
X0338700Y0054551D02*
X0307611Y0054551D01*
X0306758Y0052952D02*
X0338700Y0052952D01*
X0338700Y0051354D02*
X0322867Y0051354D01*
X0323209Y0051213D02*
X0320672Y0052263D01*
X0317927Y0052263D01*
X0315391Y0051213D01*
X0313450Y0049272D01*
X0312400Y0046735D01*
X0312400Y0043990D01*
X0313450Y0041454D01*
X0315391Y0039513D01*
X0317927Y0038463D01*
X0320672Y0038463D01*
X0323209Y0039513D01*
X0325150Y0041454D01*
X0326200Y0043990D01*
X0326200Y0046735D01*
X0325150Y0049272D01*
X0323209Y0051213D01*
X0324666Y0049755D02*
X0338700Y0049755D01*
X0338700Y0048157D02*
X0325611Y0048157D01*
X0326200Y0046558D02*
X0338700Y0046558D01*
X0338700Y0044960D02*
X0326200Y0044960D01*
X0325939Y0043361D02*
X0338700Y0043361D01*
X0338700Y0041763D02*
X0325277Y0041763D01*
X0323859Y0040164D02*
X0338700Y0040164D01*
X0338700Y0038566D02*
X0320921Y0038566D01*
X0317679Y0038566D02*
X0269000Y0038566D01*
X0269000Y0040164D02*
X0314741Y0040164D01*
X0313323Y0041763D02*
X0269000Y0041763D01*
X0269000Y0043361D02*
X0312661Y0043361D01*
X0312400Y0044960D02*
X0284955Y0044960D01*
X0286554Y0046558D02*
X0312400Y0046558D01*
X0312989Y0048157D02*
X0287100Y0048157D01*
X0287100Y0049300D02*
X0281800Y0049300D01*
X0281800Y0049300D01*
X0287100Y0049300D01*
X0287100Y0049755D02*
X0313934Y0049755D01*
X0315733Y0051354D02*
X0305203Y0051354D01*
X0301296Y0051354D02*
X0300296Y0051354D01*
X0300296Y0052952D02*
X0301296Y0052952D01*
X0296389Y0051354D02*
X0287100Y0051354D01*
X0285643Y0052952D02*
X0294834Y0052952D01*
X0293981Y0054551D02*
X0284044Y0054551D01*
X0281800Y0054551D02*
X0281800Y0054551D01*
X0281800Y0054600D02*
X0279605Y0054600D01*
X0276500Y0051495D01*
X0276500Y0050757D01*
X0275954Y0052076D01*
X0274576Y0053454D01*
X0272775Y0054200D01*
X0270825Y0054200D01*
X0269024Y0053454D01*
X0267646Y0052076D01*
X0266900Y0050275D01*
X0266900Y0048325D01*
X0267138Y0047750D01*
X0265889Y0046500D01*
X0264600Y0045211D01*
X0264600Y0026151D01*
X0264308Y0026030D01*
X0263070Y0024792D01*
X0262400Y0023175D01*
X0262400Y0015425D01*
X0263070Y0013808D01*
X0264308Y0012570D01*
X0265925Y0011900D01*
X0267675Y0011900D01*
X0269292Y0012570D01*
X0270530Y0013808D01*
X0271200Y0015425D01*
X0271200Y0023175D01*
X0270530Y0024792D01*
X0269292Y0026030D01*
X0269000Y0026151D01*
X0269545Y0025778D02*
X0273489Y0025778D01*
X0276600Y0025778D02*
X0277000Y0025778D01*
X0280111Y0025778D02*
X0284055Y0025778D01*
X0282816Y0024179D02*
X0281230Y0024179D01*
X0281600Y0022581D02*
X0282400Y0022581D01*
X0282400Y0020982D02*
X0281600Y0020982D01*
X0277000Y0020982D02*
X0276600Y0020982D01*
X0276600Y0019384D02*
X0271200Y0019384D01*
X0271200Y0020982D02*
X0272000Y0020982D01*
X0272000Y0022581D02*
X0271200Y0022581D01*
X0270784Y0024179D02*
X0272370Y0024179D01*
X0276600Y0024179D02*
X0277000Y0024179D01*
X0277000Y0022581D02*
X0276600Y0022581D01*
X0266800Y0019300D02*
X0266800Y0044300D01*
X0271800Y0049300D01*
X0267347Y0051354D02*
X0198537Y0051354D01*
X0198284Y0051962D02*
X0196962Y0053284D01*
X0195235Y0054000D01*
X0193365Y0054000D01*
X0191638Y0053284D01*
X0190316Y0051962D01*
X0189600Y0050235D01*
X0189600Y0048365D01*
X0190316Y0046638D01*
X0191638Y0045316D01*
X0193365Y0044600D01*
X0195235Y0044600D01*
X0196962Y0045316D01*
X0198284Y0046638D01*
X0199000Y0048365D01*
X0199000Y0050235D01*
X0198284Y0051962D01*
X0197294Y0052952D02*
X0268523Y0052952D01*
X0275077Y0052952D02*
X0277957Y0052952D01*
X0276500Y0051354D02*
X0276253Y0051354D01*
X0281800Y0051354D02*
X0281800Y0051354D01*
X0281800Y0052952D02*
X0281800Y0052952D01*
X0281800Y0054600D02*
X0281800Y0049300D01*
X0281800Y0049300D01*
X0281800Y0044000D01*
X0281800Y0049300D01*
X0281800Y0049300D01*
X0281800Y0049755D02*
X0281800Y0049755D01*
X0281800Y0048157D02*
X0281800Y0048157D01*
X0281800Y0046558D02*
X0281800Y0046558D01*
X0281800Y0044960D02*
X0281800Y0044960D01*
X0278645Y0044960D02*
X0274126Y0044960D01*
X0275968Y0046558D02*
X0277046Y0046558D01*
X0266970Y0048157D02*
X0228100Y0048157D01*
X0228100Y0048374D02*
X0225874Y0050600D01*
X0222726Y0050600D01*
X0220500Y0048374D01*
X0220500Y0045226D01*
X0222726Y0043000D01*
X0225874Y0043000D01*
X0228100Y0045226D01*
X0228100Y0048374D01*
X0226719Y0049755D02*
X0266900Y0049755D01*
X0265947Y0046558D02*
X0228100Y0046558D01*
X0227834Y0044960D02*
X0264600Y0044960D01*
X0264600Y0043361D02*
X0226235Y0043361D01*
X0222365Y0043361D02*
X0176500Y0043361D01*
X0176500Y0042711D02*
X0176500Y0045124D01*
X0176962Y0045316D01*
X0178284Y0046638D01*
X0179000Y0048365D01*
X0179000Y0050235D01*
X0178284Y0051962D01*
X0176962Y0053284D01*
X0175235Y0054000D01*
X0173365Y0054000D01*
X0171638Y0053284D01*
X0170316Y0051962D01*
X0169600Y0050235D01*
X0169600Y0048365D01*
X0170316Y0046638D01*
X0171638Y0045316D01*
X0172100Y0045124D01*
X0172100Y0040889D01*
X0177100Y0035889D01*
X0177100Y0020889D01*
X0179321Y0018668D01*
X0177795Y0019300D01*
X0176500Y0019300D01*
X0176500Y0035211D01*
X0175211Y0036500D01*
X0166562Y0045150D01*
X0166962Y0045316D01*
X0168284Y0046638D01*
X0169000Y0048365D01*
X0169000Y0050235D01*
X0168284Y0051962D01*
X0166962Y0053284D01*
X0165235Y0054000D01*
X0163365Y0054000D01*
X0161638Y0053284D01*
X0160316Y0051962D01*
X0159600Y0050235D01*
X0159600Y0048365D01*
X0160316Y0046638D01*
X0161638Y0045316D01*
X0162100Y0045124D01*
X0162100Y0043389D01*
X0172100Y0033389D01*
X0172100Y0016019D01*
X0171900Y0015536D01*
X0171900Y0016412D01*
X0168912Y0019400D01*
X0166800Y0019400D01*
X0166800Y0014300D01*
X0166800Y0016800D01*
X0134300Y0049300D01*
X0134300Y0056800D01*
X0141800Y0064300D01*
X0135494Y0054274D02*
X0134701Y0054400D01*
X0134300Y0054400D01*
X0134300Y0049300D01*
X0134300Y0049300D01*
X0139400Y0049300D01*
X0139400Y0049701D01*
X0139274Y0050494D01*
X0139026Y0051258D01*
X0138662Y0051973D01*
X0138190Y0052622D01*
X0137622Y0053190D01*
X0136973Y0053662D01*
X0136258Y0054026D01*
X0135494Y0054274D01*
X0134300Y0054400D02*
X0133899Y0054400D01*
X0133106Y0054274D01*
X0132342Y0054026D01*
X0131627Y0053662D01*
X0130978Y0053190D01*
X0130410Y0052622D01*
X0129938Y0051973D01*
X0129574Y0051258D01*
X0129326Y0050494D01*
X0129200Y0049701D01*
X0129200Y0049300D01*
X0134300Y0049300D01*
X0134300Y0049300D01*
X0134300Y0049300D01*
X0134300Y0054400D01*
X0134300Y0052952D02*
X0134300Y0052952D01*
X0134300Y0051354D02*
X0134300Y0051354D01*
X0137860Y0052952D02*
X0141306Y0052952D01*
X0141638Y0053284D02*
X0140316Y0051962D01*
X0139600Y0050235D01*
X0139600Y0048365D01*
X0140316Y0046638D01*
X0141638Y0045316D01*
X0143365Y0044600D01*
X0145235Y0044600D01*
X0146962Y0045316D01*
X0148284Y0046638D01*
X0149000Y0048365D01*
X0149000Y0050235D01*
X0148284Y0051962D01*
X0146962Y0053284D01*
X0145235Y0054000D01*
X0143365Y0054000D01*
X0141638Y0053284D01*
X0147294Y0052952D02*
X0151306Y0052952D01*
X0151638Y0053284D02*
X0150316Y0051962D01*
X0149600Y0050235D01*
X0149600Y0048365D01*
X0150316Y0046638D01*
X0151638Y0045316D01*
X0153365Y0044600D01*
X0155235Y0044600D01*
X0156962Y0045316D01*
X0158284Y0046638D01*
X0159000Y0048365D01*
X0159000Y0050235D01*
X0158284Y0051962D01*
X0156962Y0053284D01*
X0155235Y0054000D01*
X0153365Y0054000D01*
X0151638Y0053284D01*
X0157294Y0052952D02*
X0161306Y0052952D01*
X0160063Y0051354D02*
X0158537Y0051354D01*
X0159000Y0049755D02*
X0159600Y0049755D01*
X0159686Y0048157D02*
X0158914Y0048157D01*
X0164300Y0049300D02*
X0164300Y0044300D01*
X0174300Y0034300D01*
X0174300Y0016800D01*
X0176800Y0014300D01*
X0181800Y0014588D02*
X0181800Y0014588D01*
X0181800Y0015295D02*
X0181800Y0013305D01*
X0182561Y0011468D01*
X0183968Y0010061D01*
X0185805Y0009300D01*
X0187795Y0009300D01*
X0189632Y0010061D01*
X0191039Y0011468D01*
X0191800Y0013305D01*
X0191800Y0015295D01*
X0191039Y0017132D01*
X0189632Y0018539D01*
X0187795Y0019300D01*
X0185805Y0019300D01*
X0185173Y0019038D01*
X0181500Y0022711D01*
X0181500Y0037711D01*
X0180211Y0039000D01*
X0176500Y0042711D01*
X0177448Y0041763D02*
X0184550Y0041763D01*
X0184688Y0041900D02*
X0181700Y0038912D01*
X0181700Y0036800D01*
X0186800Y0036800D01*
X0186800Y0036800D01*
X0186800Y0041900D01*
X0188912Y0041900D01*
X0191900Y0038912D01*
X0191900Y0036800D01*
X0186800Y0036800D01*
X0186800Y0036800D01*
X0186800Y0036800D01*
X0186800Y0041900D01*
X0184688Y0041900D01*
X0186800Y0041763D02*
X0186800Y0041763D01*
X0189050Y0041763D02*
X0264600Y0041763D01*
X0264600Y0040164D02*
X0190648Y0040164D01*
X0191900Y0038566D02*
X0264600Y0038566D01*
X0264600Y0036967D02*
X0191900Y0036967D01*
X0191900Y0036800D02*
X0186800Y0036800D01*
X0186800Y0031700D01*
X0188912Y0031700D01*
X0191900Y0034688D01*
X0191900Y0036800D01*
X0191900Y0035369D02*
X0264600Y0035369D01*
X0269000Y0035369D02*
X0338700Y0035369D01*
X0338700Y0036967D02*
X0269000Y0036967D01*
X0269000Y0033770D02*
X0338700Y0033770D01*
X0338700Y0032172D02*
X0269000Y0032172D01*
X0264600Y0032172D02*
X0189384Y0032172D01*
X0188747Y0031500D02*
X0184853Y0031500D01*
X0182100Y0028747D01*
X0182100Y0024853D01*
X0184853Y0022100D01*
X0188747Y0022100D01*
X0191500Y0024853D01*
X0191500Y0028747D01*
X0188747Y0031500D01*
X0189674Y0030573D02*
X0240719Y0030573D01*
X0241354Y0031208D02*
X0239892Y0029746D01*
X0239100Y0027834D01*
X0239100Y0025766D01*
X0239892Y0023854D01*
X0241354Y0022392D01*
X0243266Y0021600D01*
X0245334Y0021600D01*
X0247246Y0022392D01*
X0248708Y0023854D01*
X0249500Y0025766D01*
X0249500Y0027834D01*
X0248708Y0029746D01*
X0247246Y0031208D01*
X0245334Y0032000D01*
X0243266Y0032000D01*
X0241354Y0031208D01*
X0239572Y0028975D02*
X0191272Y0028975D01*
X0191500Y0027376D02*
X0239100Y0027376D01*
X0239100Y0025778D02*
X0228762Y0025778D01*
X0228540Y0026000D02*
X0226800Y0026000D01*
X0226800Y0021800D01*
X0231000Y0021800D01*
X0231000Y0023540D01*
X0228540Y0026000D01*
X0226800Y0026000D02*
X0225060Y0026000D01*
X0222600Y0023540D01*
X0222600Y0021800D01*
X0226800Y0021800D01*
X0226800Y0021800D01*
X0226800Y0021800D01*
X0231000Y0021800D01*
X0231000Y0020060D01*
X0228540Y0017600D01*
X0226800Y0017600D01*
X0226800Y0021800D01*
X0226800Y0021800D01*
X0226800Y0021800D01*
X0226800Y0026000D01*
X0226800Y0025778D02*
X0226800Y0025778D01*
X0224838Y0025778D02*
X0191500Y0025778D01*
X0190826Y0024179D02*
X0213805Y0024179D01*
X0213000Y0023374D02*
X0213000Y0020226D01*
X0215226Y0018000D01*
X0218374Y0018000D01*
X0220600Y0020226D01*
X0220600Y0023374D01*
X0218374Y0025600D01*
X0215226Y0025600D01*
X0213000Y0023374D01*
X0213000Y0022581D02*
X0189227Y0022581D01*
X0184373Y0022581D02*
X0181631Y0022581D01*
X0181500Y0024179D02*
X0182774Y0024179D01*
X0182100Y0025778D02*
X0181500Y0025778D01*
X0181500Y0027376D02*
X0182100Y0027376D01*
X0177100Y0027376D02*
X0176500Y0027376D01*
X0176500Y0025778D02*
X0177100Y0025778D01*
X0172100Y0025778D02*
X0098889Y0025778D01*
X0100487Y0027376D02*
X0172100Y0027376D01*
X0172100Y0028975D02*
X0161349Y0028975D01*
X0160953Y0028579D02*
X0162021Y0029647D01*
X0162600Y0031044D01*
X0162600Y0032556D01*
X0162021Y0033953D01*
X0160953Y0035021D01*
X0159556Y0035600D01*
X0158044Y0035600D01*
X0156647Y0035021D01*
X0155579Y0033953D01*
X0155000Y0032556D01*
X0155000Y0031044D01*
X0155579Y0029647D01*
X0156647Y0028579D01*
X0158044Y0028000D01*
X0159556Y0028000D01*
X0160953Y0028579D01*
X0156251Y0028975D02*
X0142349Y0028975D01*
X0141953Y0028579D02*
X0143021Y0029647D01*
X0143600Y0031044D01*
X0143600Y0032556D01*
X0143021Y0033953D01*
X0141953Y0035021D01*
X0140556Y0035600D01*
X0139044Y0035600D01*
X0137647Y0035021D01*
X0136579Y0033953D01*
X0136000Y0032556D01*
X0136000Y0031044D01*
X0136579Y0029647D01*
X0137647Y0028579D01*
X0139044Y0028000D01*
X0140556Y0028000D01*
X0141953Y0028579D01*
X0143405Y0030573D02*
X0155195Y0030573D01*
X0155000Y0032172D02*
X0143600Y0032172D01*
X0143097Y0033770D02*
X0155503Y0033770D01*
X0157486Y0035369D02*
X0141114Y0035369D01*
X0138486Y0035369D02*
X0108480Y0035369D01*
X0110079Y0036967D02*
X0168521Y0036967D01*
X0170120Y0035369D02*
X0160114Y0035369D01*
X0162097Y0033770D02*
X0171718Y0033770D01*
X0172100Y0032172D02*
X0162600Y0032172D01*
X0162405Y0030573D02*
X0172100Y0030573D01*
X0176500Y0030573D02*
X0177100Y0030573D01*
X0177100Y0028975D02*
X0176500Y0028975D01*
X0181500Y0028975D02*
X0182328Y0028975D01*
X0181500Y0030573D02*
X0183926Y0030573D01*
X0184688Y0031700D02*
X0181700Y0034688D01*
X0181700Y0036800D01*
X0186800Y0036800D01*
X0186800Y0036800D01*
X0186800Y0031700D01*
X0184688Y0031700D01*
X0184216Y0032172D02*
X0181500Y0032172D01*
X0181500Y0033770D02*
X0182617Y0033770D01*
X0186800Y0033770D02*
X0186800Y0033770D01*
X0186800Y0032172D02*
X0186800Y0032172D01*
X0190983Y0033770D02*
X0264600Y0033770D01*
X0264600Y0030573D02*
X0247881Y0030573D01*
X0249028Y0028975D02*
X0264600Y0028975D01*
X0269000Y0028975D02*
X0338700Y0028975D01*
X0338700Y0030573D02*
X0269000Y0030573D01*
X0264600Y0027376D02*
X0249500Y0027376D01*
X0249500Y0025778D02*
X0264055Y0025778D01*
X0262816Y0024179D02*
X0248843Y0024179D01*
X0247435Y0022581D02*
X0262400Y0022581D01*
X0262400Y0020982D02*
X0231000Y0020982D01*
X0230323Y0019384D02*
X0262400Y0019384D01*
X0262400Y0017785D02*
X0228725Y0017785D01*
X0226800Y0017785D02*
X0226800Y0017785D01*
X0226800Y0017600D02*
X0226800Y0021800D01*
X0222600Y0021800D01*
X0222600Y0020060D01*
X0225060Y0017600D01*
X0226800Y0017600D01*
X0224875Y0017785D02*
X0210386Y0017785D01*
X0211039Y0017132D02*
X0209632Y0018539D01*
X0207795Y0019300D01*
X0205805Y0019300D01*
X0203968Y0018539D01*
X0202561Y0017132D01*
X0201800Y0015295D01*
X0201039Y0017132D01*
X0199632Y0018539D01*
X0197795Y0019300D01*
X0195805Y0019300D01*
X0193968Y0018539D01*
X0192561Y0017132D01*
X0191800Y0015295D01*
X0191800Y0013305D01*
X0192561Y0011468D01*
X0193968Y0010061D01*
X0195805Y0009300D01*
X0197795Y0009300D01*
X0199632Y0010061D01*
X0201039Y0011468D01*
X0201800Y0013305D01*
X0201800Y0015295D01*
X0201800Y0013305D01*
X0202561Y0011468D01*
X0203968Y0010061D01*
X0205805Y0009300D01*
X0207795Y0009300D01*
X0209632Y0010061D01*
X0211039Y0011468D01*
X0211800Y0013305D01*
X0211800Y0015295D01*
X0211039Y0017132D01*
X0211430Y0016187D02*
X0262400Y0016187D01*
X0262747Y0014588D02*
X0211800Y0014588D01*
X0211669Y0012990D02*
X0263888Y0012990D01*
X0269712Y0012990D02*
X0273322Y0012990D01*
X0272309Y0014588D02*
X0270853Y0014588D01*
X0271200Y0016187D02*
X0272000Y0016187D01*
X0272000Y0017785D02*
X0271200Y0017785D01*
X0276600Y0017785D02*
X0277000Y0017785D01*
X0277000Y0016187D02*
X0276600Y0016187D01*
X0276600Y0014588D02*
X0277000Y0014588D01*
X0277000Y0012990D02*
X0276600Y0012990D01*
X0241165Y0022581D02*
X0231000Y0022581D01*
X0230361Y0024179D02*
X0239757Y0024179D01*
X0226800Y0024179D02*
X0226800Y0024179D01*
X0226800Y0022581D02*
X0226800Y0022581D01*
X0226800Y0020982D02*
X0226800Y0020982D01*
X0226800Y0019384D02*
X0226800Y0019384D01*
X0223277Y0019384D02*
X0219758Y0019384D01*
X0220600Y0020982D02*
X0222600Y0020982D01*
X0222600Y0022581D02*
X0220600Y0022581D01*
X0219795Y0024179D02*
X0223239Y0024179D01*
X0213000Y0020982D02*
X0183229Y0020982D01*
X0184828Y0019384D02*
X0213842Y0019384D01*
X0203214Y0017785D02*
X0200386Y0017785D01*
X0201430Y0016187D02*
X0202170Y0016187D01*
X0201800Y0014588D02*
X0201800Y0014588D01*
X0201669Y0012990D02*
X0201931Y0012990D01*
X0202638Y0011391D02*
X0200962Y0011391D01*
X0198984Y0009793D02*
X0204616Y0009793D01*
X0208984Y0009793D02*
X0338700Y0009793D01*
X0338700Y0011391D02*
X0210962Y0011391D01*
X0194616Y0009793D02*
X0188984Y0009793D01*
X0190962Y0011391D02*
X0192638Y0011391D01*
X0191931Y0012990D02*
X0191669Y0012990D01*
X0191800Y0014588D02*
X0191800Y0014588D01*
X0186800Y0014300D02*
X0179300Y0021800D01*
X0179300Y0036800D01*
X0174300Y0041800D01*
X0174300Y0049300D01*
X0169600Y0049755D02*
X0169000Y0049755D01*
X0168914Y0048157D02*
X0169686Y0048157D01*
X0170395Y0046558D02*
X0168205Y0046558D01*
X0166751Y0044960D02*
X0172100Y0044960D01*
X0176500Y0044960D02*
X0182496Y0044960D01*
X0181638Y0045316D02*
X0180316Y0046638D01*
X0179600Y0048365D01*
X0179600Y0050235D01*
X0180316Y0051962D01*
X0181638Y0053284D01*
X0183365Y0054000D01*
X0185235Y0054000D01*
X0186962Y0053284D01*
X0188284Y0051962D01*
X0189000Y0050235D01*
X0189000Y0048365D01*
X0188284Y0046638D01*
X0186962Y0045316D01*
X0185235Y0044600D01*
X0183365Y0044600D01*
X0181638Y0045316D01*
X0180395Y0046558D02*
X0178205Y0046558D01*
X0178914Y0048157D02*
X0179686Y0048157D01*
X0179600Y0049755D02*
X0179000Y0049755D01*
X0178537Y0051354D02*
X0180063Y0051354D01*
X0181306Y0052952D02*
X0177294Y0052952D01*
X0171306Y0052952D02*
X0167294Y0052952D01*
X0168537Y0051354D02*
X0170063Y0051354D01*
X0160395Y0046558D02*
X0158205Y0046558D01*
X0156104Y0044960D02*
X0162100Y0044960D01*
X0162127Y0043361D02*
X0126473Y0043361D01*
X0126500Y0043389D02*
X0126500Y0045124D01*
X0126962Y0045316D01*
X0128284Y0046638D01*
X0129000Y0048365D01*
X0129000Y0050235D01*
X0128284Y0051962D01*
X0126962Y0053284D01*
X0125235Y0054000D01*
X0123365Y0054000D01*
X0121638Y0053284D01*
X0120316Y0051962D01*
X0119600Y0050235D01*
X0119600Y0048365D01*
X0120316Y0046638D01*
X0121638Y0045316D01*
X0122038Y0045150D01*
X0118389Y0041500D01*
X0108389Y0041500D01*
X0107100Y0040211D01*
X0086003Y0019115D01*
X0085314Y0019400D01*
X0083286Y0019400D01*
X0081411Y0018624D01*
X0079976Y0017189D01*
X0079510Y0016063D01*
X0079397Y0016411D01*
X0079004Y0017183D01*
X0078495Y0017883D01*
X0077883Y0018495D01*
X0077183Y0019004D01*
X0076411Y0019397D01*
X0075588Y0019665D01*
X0074733Y0019800D01*
X0074500Y0019800D01*
X0074500Y0014500D01*
X0074100Y0014500D01*
X0074100Y0019800D01*
X0073867Y0019800D01*
X0073012Y0019665D01*
X0072189Y0019397D01*
X0071417Y0019004D01*
X0070717Y0018495D01*
X0070105Y0017883D01*
X0069596Y0017183D01*
X0069203Y0016411D01*
X0069090Y0016063D01*
X0068624Y0017189D01*
X0067189Y0018624D01*
X0066500Y0018909D01*
X0066500Y0045124D01*
X0066962Y0045316D01*
X0068284Y0046638D01*
X0069000Y0048365D01*
X0069000Y0050235D01*
X0068284Y0051962D01*
X0066962Y0053284D01*
X0065235Y0054000D01*
X0063365Y0054000D01*
X0061638Y0053284D01*
X0060316Y0051962D01*
X0059600Y0050235D01*
X0059600Y0048365D01*
X0060316Y0046638D01*
X0061638Y0045316D01*
X0062100Y0045124D01*
X0062100Y0037111D01*
X0058811Y0040400D01*
X0056709Y0040400D01*
X0056424Y0041089D01*
X0054989Y0042524D01*
X0053114Y0043300D01*
X0051086Y0043300D01*
X0049211Y0042524D01*
X0047776Y0041089D01*
X0047000Y0039214D01*
X0047000Y0037186D01*
X0047776Y0035311D01*
X0049211Y0033876D01*
X0051086Y0033100D01*
X0053114Y0033100D01*
X0054989Y0033876D01*
X0056424Y0035311D01*
X0056709Y0036000D01*
X0056989Y0036000D01*
X0062100Y0030889D01*
X0062100Y0018909D01*
X0061411Y0018624D01*
X0059976Y0017189D01*
X0059200Y0015314D01*
X0059200Y0013286D01*
X0059976Y0011411D01*
X0061411Y0009976D01*
X0063286Y0009200D01*
X0065314Y0009200D01*
X0067189Y0009976D01*
X0068624Y0011411D01*
X0069090Y0012537D01*
X0069203Y0012189D01*
X0069596Y0011417D01*
X0070105Y0010717D01*
X0070717Y0010105D01*
X0071417Y0009596D01*
X0072189Y0009203D01*
X0073012Y0008935D01*
X0073867Y0008800D01*
X0074100Y0008800D01*
X0074100Y0014100D01*
X0074500Y0014100D01*
X0074500Y0008800D01*
X0074733Y0008800D01*
X0075588Y0008935D01*
X0076411Y0009203D01*
X0077183Y0009596D01*
X0077883Y0010105D01*
X0078495Y0010717D01*
X0079004Y0011417D01*
X0079397Y0012189D01*
X0079510Y0012537D01*
X0079976Y0011411D01*
X0081411Y0009976D01*
X0083286Y0009200D01*
X0085314Y0009200D01*
X0087189Y0009976D01*
X0088624Y0011411D01*
X0089300Y0013044D01*
X0089976Y0011411D01*
X0091411Y0009976D01*
X0093286Y0009200D01*
X0095314Y0009200D01*
X0097189Y0009976D01*
X0098624Y0011411D01*
X0099300Y0013044D01*
X0099976Y0011411D01*
X0101411Y0009976D01*
X0103286Y0009200D01*
X0105314Y0009200D01*
X0107189Y0009976D01*
X0108624Y0011411D01*
X0109300Y0013044D01*
X0109976Y0011411D01*
X0111411Y0009976D01*
X0113286Y0009200D01*
X0115314Y0009200D01*
X0117189Y0009976D01*
X0118624Y0011411D01*
X0119300Y0013044D01*
X0119976Y0011411D01*
X0121411Y0009976D01*
X0123286Y0009200D01*
X0125314Y0009200D01*
X0127189Y0009976D01*
X0128624Y0011411D01*
X0129300Y0013044D01*
X0129976Y0011411D01*
X0131411Y0009976D01*
X0133286Y0009200D01*
X0135314Y0009200D01*
X0137189Y0009976D01*
X0138624Y0011411D01*
X0139300Y0013044D01*
X0139976Y0011411D01*
X0141411Y0009976D01*
X0143286Y0009200D01*
X0145314Y0009200D01*
X0147189Y0009976D01*
X0148624Y0011411D01*
X0149400Y0013286D01*
X0149400Y0015314D01*
X0148624Y0017189D01*
X0147189Y0018624D01*
X0145314Y0019400D01*
X0143286Y0019400D01*
X0141411Y0018624D01*
X0139976Y0017189D01*
X0139300Y0015556D01*
X0138624Y0017189D01*
X0137189Y0018624D01*
X0135314Y0019400D01*
X0133286Y0019400D01*
X0131411Y0018624D01*
X0129976Y0017189D01*
X0129300Y0015556D01*
X0128624Y0017189D01*
X0127189Y0018624D01*
X0125314Y0019400D01*
X0123286Y0019400D01*
X0121411Y0018624D01*
X0119976Y0017189D01*
X0119300Y0015556D01*
X0118624Y0017189D01*
X0117189Y0018624D01*
X0115314Y0019400D01*
X0113286Y0019400D01*
X0111411Y0018624D01*
X0109976Y0017189D01*
X0109300Y0015556D01*
X0108624Y0017189D01*
X0107189Y0018624D01*
X0105314Y0019400D01*
X0103286Y0019400D01*
X0101411Y0018624D01*
X0099976Y0017189D01*
X0099300Y0015556D01*
X0098624Y0017189D01*
X0097189Y0018624D01*
X0095314Y0019400D01*
X0093286Y0019400D01*
X0091964Y0018852D01*
X0110211Y0037100D01*
X0120211Y0037100D01*
X0121500Y0038389D01*
X0125211Y0042100D01*
X0125211Y0042100D01*
X0126500Y0043389D01*
X0124874Y0041763D02*
X0163726Y0041763D01*
X0168350Y0043361D02*
X0172100Y0043361D01*
X0172100Y0041763D02*
X0169948Y0041763D01*
X0171547Y0040164D02*
X0172824Y0040164D01*
X0173145Y0038566D02*
X0174423Y0038566D01*
X0174744Y0036967D02*
X0176021Y0036967D01*
X0176343Y0035369D02*
X0177100Y0035369D01*
X0181500Y0035369D02*
X0181700Y0035369D01*
X0181700Y0036967D02*
X0181500Y0036967D01*
X0181700Y0038566D02*
X0180645Y0038566D01*
X0179047Y0040164D02*
X0182952Y0040164D01*
X0186800Y0040164D02*
X0186800Y0040164D01*
X0186800Y0038566D02*
X0186800Y0038566D01*
X0186800Y0036967D02*
X0186800Y0036967D01*
X0186800Y0035369D02*
X0186800Y0035369D01*
X0177100Y0033770D02*
X0176500Y0033770D01*
X0176500Y0032172D02*
X0177100Y0032172D01*
X0166923Y0038566D02*
X0121677Y0038566D01*
X0121500Y0038389D02*
X0121500Y0038389D01*
X0119300Y0039300D02*
X0124300Y0044300D01*
X0124300Y0049300D01*
X0129000Y0049755D02*
X0129209Y0049755D01*
X0129200Y0049300D02*
X0129200Y0048899D01*
X0129326Y0048106D01*
X0129574Y0047342D01*
X0129938Y0046627D01*
X0130410Y0045978D01*
X0130978Y0045410D01*
X0131627Y0044938D01*
X0132342Y0044574D01*
X0133106Y0044326D01*
X0133899Y0044200D01*
X0134300Y0044200D01*
X0134701Y0044200D01*
X0135494Y0044326D01*
X0136258Y0044574D01*
X0136973Y0044938D01*
X0137622Y0045410D01*
X0138190Y0045978D01*
X0138662Y0046627D01*
X0139026Y0047342D01*
X0139274Y0048106D01*
X0139400Y0048899D01*
X0139400Y0049300D01*
X0134300Y0049300D01*
X0134300Y0044200D01*
X0134300Y0049300D01*
X0134300Y0049300D01*
X0129200Y0049300D01*
X0129317Y0048157D02*
X0128914Y0048157D01*
X0128205Y0046558D02*
X0129988Y0046558D01*
X0131597Y0044960D02*
X0126500Y0044960D01*
X0121849Y0044960D02*
X0116104Y0044960D01*
X0116962Y0045316D02*
X0115235Y0044600D01*
X0113365Y0044600D01*
X0111638Y0045316D01*
X0110316Y0046638D01*
X0109600Y0048365D01*
X0109600Y0050235D01*
X0110316Y0051962D01*
X0111638Y0053284D01*
X0113365Y0054000D01*
X0115235Y0054000D01*
X0116962Y0053284D01*
X0118284Y0051962D01*
X0119000Y0050235D01*
X0119000Y0048365D01*
X0118284Y0046638D01*
X0116962Y0045316D01*
X0118205Y0046558D02*
X0120395Y0046558D01*
X0119686Y0048157D02*
X0118914Y0048157D01*
X0119000Y0049755D02*
X0119600Y0049755D01*
X0120063Y0051354D02*
X0118537Y0051354D01*
X0117294Y0052952D02*
X0121306Y0052952D01*
X0127294Y0052952D02*
X0130740Y0052952D01*
X0129623Y0051354D02*
X0128537Y0051354D01*
X0134300Y0049755D02*
X0134300Y0049755D01*
X0134300Y0048157D02*
X0134300Y0048157D01*
X0139282Y0048157D02*
X0139686Y0048157D01*
X0139600Y0049755D02*
X0139391Y0049755D01*
X0138977Y0051354D02*
X0140063Y0051354D01*
X0148537Y0051354D02*
X0150063Y0051354D01*
X0149600Y0049755D02*
X0149000Y0049755D01*
X0148914Y0048157D02*
X0149686Y0048157D01*
X0150395Y0046558D02*
X0148205Y0046558D01*
X0146104Y0044960D02*
X0152496Y0044960D01*
X0142496Y0044960D02*
X0137003Y0044960D01*
X0138612Y0046558D02*
X0140395Y0046558D01*
X0134300Y0046558D02*
X0134300Y0046558D01*
X0134300Y0044960D02*
X0134300Y0044960D01*
X0123276Y0040164D02*
X0165324Y0040164D01*
X0186104Y0044960D02*
X0192496Y0044960D01*
X0190395Y0046558D02*
X0188205Y0046558D01*
X0188914Y0048157D02*
X0189686Y0048157D01*
X0189600Y0049755D02*
X0189000Y0049755D01*
X0188537Y0051354D02*
X0190063Y0051354D01*
X0191306Y0052952D02*
X0187294Y0052952D01*
X0199000Y0049755D02*
X0221881Y0049755D01*
X0220500Y0048157D02*
X0198914Y0048157D01*
X0198205Y0046558D02*
X0220500Y0046558D01*
X0220766Y0044960D02*
X0196104Y0044960D01*
X0179300Y0059300D02*
X0189300Y0069300D01*
X0199300Y0069300D01*
X0204300Y0074300D01*
X0204300Y0091800D01*
X0204100Y0091317D02*
X0204500Y0091317D01*
X0204500Y0089718D02*
X0204100Y0089718D01*
X0209407Y0089718D02*
X0209642Y0089718D01*
X0210768Y0088120D02*
X0208398Y0088120D01*
X0204500Y0088120D02*
X0204100Y0088120D01*
X0200202Y0088120D02*
X0197832Y0088120D01*
X0198958Y0089718D02*
X0199193Y0089718D01*
X0190768Y0088120D02*
X0187832Y0088120D01*
X0188958Y0089718D02*
X0189642Y0089718D01*
X0180768Y0088120D02*
X0177832Y0088120D01*
X0178958Y0089718D02*
X0179642Y0089718D01*
X0170768Y0088120D02*
X0167832Y0088120D01*
X0168958Y0089718D02*
X0169642Y0089718D01*
X0160768Y0088120D02*
X0157832Y0088120D01*
X0158958Y0089718D02*
X0159642Y0089718D01*
X0150768Y0088120D02*
X0147832Y0088120D01*
X0148958Y0089718D02*
X0149642Y0089718D01*
X0140768Y0088120D02*
X0137832Y0088120D01*
X0138958Y0089718D02*
X0139642Y0089718D01*
X0130768Y0088120D02*
X0128398Y0088120D01*
X0124500Y0088120D02*
X0124100Y0088120D01*
X0124100Y0089718D02*
X0124500Y0089718D01*
X0124500Y0091317D02*
X0124100Y0091317D01*
X0129407Y0089718D02*
X0129642Y0089718D01*
X0124500Y0092915D02*
X0124100Y0092915D01*
X0124100Y0094514D02*
X0124500Y0094514D01*
X0129090Y0094514D02*
X0129904Y0094514D01*
X0131400Y0096112D02*
X0127722Y0096112D01*
X0124500Y0096112D02*
X0124100Y0096112D01*
X0120878Y0096112D02*
X0117200Y0096112D01*
X0118696Y0094514D02*
X0119510Y0094514D01*
X0111400Y0096112D02*
X0107200Y0096112D01*
X0108696Y0094514D02*
X0109904Y0094514D01*
X0101400Y0096112D02*
X0097200Y0096112D01*
X0098696Y0094514D02*
X0099904Y0094514D01*
X0091400Y0096112D02*
X0087200Y0096112D01*
X0088696Y0094514D02*
X0089904Y0094514D01*
X0081400Y0096112D02*
X0077200Y0096112D01*
X0078696Y0094514D02*
X0079904Y0094514D01*
X0071400Y0096112D02*
X0067200Y0096112D01*
X0068696Y0094514D02*
X0069904Y0094514D01*
X0069642Y0089718D02*
X0068958Y0089718D01*
X0067832Y0088120D02*
X0070768Y0088120D01*
X0077832Y0088120D02*
X0080768Y0088120D01*
X0079642Y0089718D02*
X0078958Y0089718D01*
X0087832Y0088120D02*
X0090768Y0088120D01*
X0089642Y0089718D02*
X0088958Y0089718D01*
X0097832Y0088120D02*
X0100768Y0088120D01*
X0099642Y0089718D02*
X0098958Y0089718D01*
X0107832Y0088120D02*
X0110768Y0088120D01*
X0109642Y0089718D02*
X0108958Y0089718D01*
X0117832Y0088120D02*
X0120202Y0088120D01*
X0119193Y0089718D02*
X0118958Y0089718D01*
X0137200Y0096112D02*
X0141400Y0096112D01*
X0147200Y0096112D02*
X0151400Y0096112D01*
X0157200Y0096112D02*
X0161400Y0096112D01*
X0159904Y0094514D02*
X0158696Y0094514D01*
X0167200Y0096112D02*
X0171400Y0096112D01*
X0169904Y0094514D02*
X0168696Y0094514D01*
X0177200Y0096112D02*
X0181400Y0096112D01*
X0179904Y0094514D02*
X0178696Y0094514D01*
X0187200Y0096112D02*
X0191400Y0096112D01*
X0189904Y0094514D02*
X0188696Y0094514D01*
X0197200Y0096112D02*
X0200878Y0096112D01*
X0204100Y0096112D02*
X0204500Y0096112D01*
X0207722Y0096112D02*
X0211400Y0096112D01*
X0209904Y0094514D02*
X0209090Y0094514D01*
X0204500Y0094514D02*
X0204100Y0094514D01*
X0204100Y0092915D02*
X0204500Y0092915D01*
X0199510Y0094514D02*
X0198696Y0094514D01*
X0196867Y0083324D02*
X0226129Y0083324D01*
X0237162Y0081726D02*
X0198383Y0081726D01*
X0199000Y0080127D02*
X0255132Y0080127D01*
X0254000Y0078995D02*
X0257105Y0082100D01*
X0259300Y0082100D01*
X0259300Y0076800D01*
X0259300Y0076800D01*
X0259300Y0071500D01*
X0259300Y0072134D02*
X0259300Y0072134D01*
X0262130Y0072134D02*
X0267759Y0072134D01*
X0265437Y0073733D02*
X0263728Y0073733D01*
X0264600Y0075332D02*
X0264605Y0075332D01*
X0259300Y0075332D02*
X0259300Y0075332D01*
X0259300Y0073733D02*
X0259300Y0073733D01*
X0259300Y0076800D02*
X0259300Y0076800D01*
X0259300Y0076800D01*
X0254000Y0076800D01*
X0254000Y0078995D01*
X0254000Y0078529D02*
X0199000Y0078529D01*
X0190194Y0076930D02*
X0188406Y0076930D01*
X0188284Y0076638D02*
X0189000Y0078365D01*
X0189000Y0080235D01*
X0188284Y0081962D01*
X0186962Y0083284D01*
X0185235Y0084000D01*
X0183365Y0084000D01*
X0181638Y0083284D01*
X0180316Y0081962D01*
X0179600Y0080235D01*
X0179600Y0078365D01*
X0180316Y0076638D01*
X0181638Y0075316D01*
X0183365Y0074600D01*
X0185235Y0074600D01*
X0186962Y0075316D01*
X0188284Y0076638D01*
X0186978Y0075332D02*
X0191622Y0075332D01*
X0189600Y0078529D02*
X0189000Y0078529D01*
X0189000Y0080127D02*
X0189600Y0080127D01*
X0190217Y0081726D02*
X0188383Y0081726D01*
X0186867Y0083324D02*
X0191733Y0083324D01*
X0181733Y0083324D02*
X0176867Y0083324D01*
X0178383Y0081726D02*
X0180217Y0081726D01*
X0179600Y0080127D02*
X0179000Y0080127D01*
X0179000Y0078529D02*
X0179600Y0078529D01*
X0180194Y0076930D02*
X0178406Y0076930D01*
X0176978Y0075332D02*
X0181622Y0075332D01*
X0160194Y0076930D02*
X0158406Y0076930D01*
X0159000Y0078529D02*
X0159600Y0078529D01*
X0159600Y0080127D02*
X0159000Y0080127D01*
X0158383Y0081726D02*
X0160217Y0081726D01*
X0150217Y0081726D02*
X0148383Y0081726D01*
X0149000Y0080127D02*
X0149600Y0080127D01*
X0149600Y0078529D02*
X0149000Y0078529D01*
X0148406Y0076930D02*
X0150194Y0076930D01*
X0149904Y0094514D02*
X0148696Y0094514D01*
X0139904Y0094514D02*
X0138696Y0094514D01*
X0084300Y0061800D02*
X0076800Y0069300D01*
X0026800Y0069300D01*
X0011800Y0054300D01*
X0016800Y0054551D02*
X0018940Y0054551D01*
X0020538Y0056149D02*
X0016761Y0056149D01*
X0018359Y0057748D02*
X0022137Y0057748D01*
X0023735Y0059346D02*
X0019958Y0059346D01*
X0014321Y0059932D02*
X0013427Y0059038D01*
X0012795Y0059300D01*
X0010805Y0059300D01*
X0012795Y0059300D01*
X0014321Y0059932D01*
X0013735Y0059346D02*
X0012907Y0059346D01*
X0010693Y0059346D02*
X0004900Y0059346D01*
X0004900Y0057748D02*
X0008177Y0057748D01*
X0007154Y0056149D02*
X0004900Y0056149D01*
X0004900Y0054551D02*
X0006800Y0054551D01*
X0006946Y0052952D02*
X0004900Y0052952D01*
X0004900Y0051354D02*
X0007675Y0051354D01*
X0009706Y0049755D02*
X0004900Y0049755D01*
X0004900Y0048157D02*
X0008586Y0048157D01*
X0010805Y0049300D02*
X0012795Y0049300D01*
X0013427Y0049038D01*
X0014321Y0049932D01*
X0012795Y0049300D01*
X0010805Y0049300D01*
X0013894Y0049755D02*
X0014144Y0049755D01*
X0018768Y0048157D02*
X0059686Y0048157D01*
X0059600Y0049755D02*
X0020367Y0049755D01*
X0021965Y0051354D02*
X0060063Y0051354D01*
X0061306Y0052952D02*
X0023564Y0052952D01*
X0017341Y0052952D02*
X0016654Y0052952D01*
X0025162Y0054551D02*
X0043675Y0054551D01*
X0043000Y0055226D02*
X0045226Y0053000D01*
X0048374Y0053000D01*
X0050600Y0055226D01*
X0050600Y0058374D01*
X0048374Y0060600D01*
X0045226Y0060600D01*
X0043000Y0058374D01*
X0043000Y0055226D01*
X0043000Y0056149D02*
X0026761Y0056149D01*
X0028359Y0057748D02*
X0043000Y0057748D01*
X0043972Y0059346D02*
X0029958Y0059346D01*
X0031556Y0060945D02*
X0069544Y0060945D01*
X0074168Y0062543D02*
X0080445Y0062543D01*
X0082044Y0060945D02*
X0075766Y0060945D01*
X0076500Y0059346D02*
X0082100Y0059346D01*
X0082100Y0057748D02*
X0076500Y0057748D01*
X0074300Y0059300D02*
X0074300Y0049300D01*
X0079000Y0049755D02*
X0079600Y0049755D01*
X0079686Y0048157D02*
X0078914Y0048157D01*
X0078205Y0046558D02*
X0080395Y0046558D01*
X0082496Y0044960D02*
X0076104Y0044960D01*
X0072496Y0044960D02*
X0066500Y0044960D01*
X0068205Y0046558D02*
X0070395Y0046558D01*
X0069686Y0048157D02*
X0068914Y0048157D01*
X0069000Y0049755D02*
X0069600Y0049755D01*
X0070063Y0051354D02*
X0068537Y0051354D01*
X0067294Y0052952D02*
X0071306Y0052952D01*
X0072100Y0054551D02*
X0049925Y0054551D01*
X0050600Y0056149D02*
X0072100Y0056149D01*
X0072100Y0057748D02*
X0050600Y0057748D01*
X0049628Y0059346D02*
X0071142Y0059346D01*
X0074300Y0059300D02*
X0069300Y0064300D01*
X0031800Y0064300D01*
X0011800Y0044300D01*
X0016800Y0044960D02*
X0062100Y0044960D01*
X0060395Y0046558D02*
X0017170Y0046558D01*
X0007323Y0046558D02*
X0004900Y0046558D01*
X0004900Y0044960D02*
X0006800Y0044960D01*
X0006800Y0043361D02*
X0004900Y0043361D01*
X0004900Y0041763D02*
X0007439Y0041763D01*
X0008865Y0040164D02*
X0004900Y0040164D01*
X0004900Y0038566D02*
X0009033Y0038566D01*
X0008968Y0038539D02*
X0007561Y0037132D01*
X0006800Y0035295D01*
X0006800Y0033305D01*
X0007561Y0031468D01*
X0008968Y0030061D01*
X0010805Y0029300D01*
X0012795Y0029300D01*
X0014632Y0030061D01*
X0016039Y0031468D01*
X0016800Y0033305D01*
X0016800Y0035295D01*
X0016039Y0037132D01*
X0014632Y0038539D01*
X0012795Y0039300D01*
X0010805Y0039300D01*
X0008968Y0038539D01*
X0007493Y0036967D02*
X0004900Y0036967D01*
X0004900Y0035369D02*
X0006831Y0035369D01*
X0006800Y0033770D02*
X0004900Y0033770D01*
X0004900Y0032172D02*
X0007270Y0032172D01*
X0008456Y0030573D02*
X0004900Y0030573D01*
X0004900Y0028975D02*
X0010020Y0028975D01*
X0010805Y0029300D02*
X0008968Y0028539D01*
X0007561Y0027132D01*
X0006800Y0025295D01*
X0006800Y0023305D01*
X0007561Y0021468D01*
X0008968Y0020061D01*
X0010326Y0019499D01*
X0009727Y0019304D01*
X0008970Y0018918D01*
X0008282Y0018419D01*
X0007681Y0017818D01*
X0007182Y0017130D01*
X0006796Y0016373D01*
X0006533Y0015565D01*
X0006400Y0014725D01*
X0006400Y0014450D01*
X0011650Y0014450D01*
X0011650Y0014150D01*
X0006400Y0014150D01*
X0006400Y0013875D01*
X0006533Y0013035D01*
X0006796Y0012227D01*
X0007182Y0011470D01*
X0007681Y0010782D01*
X0008282Y0010181D01*
X0008970Y0009682D01*
X0009727Y0009296D01*
X0010535Y0009033D01*
X0011375Y0008900D01*
X0011650Y0008900D01*
X0011650Y0014150D01*
X0011950Y0014150D01*
X0011950Y0014450D01*
X0017200Y0014450D01*
X0017200Y0014725D01*
X0017067Y0015565D01*
X0016804Y0016373D01*
X0016418Y0017130D01*
X0015919Y0017818D01*
X0015318Y0018419D01*
X0014630Y0018918D01*
X0013873Y0019304D01*
X0013274Y0019499D01*
X0014632Y0020061D01*
X0016039Y0021468D01*
X0016800Y0023305D01*
X0016800Y0025295D01*
X0016039Y0027132D01*
X0014632Y0028539D01*
X0012795Y0029300D01*
X0010805Y0029300D01*
X0013580Y0028975D02*
X0062100Y0028975D01*
X0062100Y0030573D02*
X0015144Y0030573D01*
X0016330Y0032172D02*
X0060817Y0032172D01*
X0059218Y0033770D02*
X0054733Y0033770D01*
X0049467Y0033770D02*
X0029133Y0033770D01*
X0029389Y0033876D02*
X0030824Y0035311D01*
X0031600Y0037186D01*
X0031600Y0039214D01*
X0030824Y0041089D01*
X0029389Y0042524D01*
X0027514Y0043300D01*
X0025486Y0043300D01*
X0023611Y0042524D01*
X0022176Y0041089D01*
X0021400Y0039214D01*
X0021400Y0037186D01*
X0022176Y0035311D01*
X0023611Y0033876D01*
X0025486Y0033100D01*
X0027514Y0033100D01*
X0029389Y0033876D01*
X0030847Y0035369D02*
X0047753Y0035369D01*
X0047090Y0036967D02*
X0031510Y0036967D01*
X0031600Y0038566D02*
X0047000Y0038566D01*
X0047393Y0040164D02*
X0031207Y0040164D01*
X0030150Y0041763D02*
X0048450Y0041763D01*
X0055750Y0041763D02*
X0062100Y0041763D01*
X0062100Y0043361D02*
X0016800Y0043361D01*
X0016161Y0041763D02*
X0022850Y0041763D01*
X0021793Y0040164D02*
X0014735Y0040164D01*
X0014567Y0038566D02*
X0021400Y0038566D01*
X0021490Y0036967D02*
X0016107Y0036967D01*
X0016769Y0035369D02*
X0022153Y0035369D01*
X0023867Y0033770D02*
X0016800Y0033770D01*
X0015795Y0027376D02*
X0062100Y0027376D01*
X0062100Y0025778D02*
X0053305Y0025778D01*
X0053388Y0025765D02*
X0052533Y0025900D01*
X0052300Y0025900D01*
X0052300Y0020600D01*
X0057600Y0020600D01*
X0057600Y0020833D01*
X0057465Y0021688D01*
X0057197Y0022511D01*
X0056804Y0023283D01*
X0056295Y0023983D01*
X0055683Y0024595D01*
X0054983Y0025104D01*
X0054211Y0025497D01*
X0053388Y0025765D01*
X0052300Y0025778D02*
X0051900Y0025778D01*
X0051900Y0025900D02*
X0051667Y0025900D01*
X0050812Y0025765D01*
X0049989Y0025497D01*
X0049217Y0025104D01*
X0048517Y0024595D01*
X0047905Y0023983D01*
X0047396Y0023283D01*
X0047003Y0022511D01*
X0046735Y0021688D01*
X0046600Y0020833D01*
X0046600Y0020600D01*
X0051900Y0020600D01*
X0051900Y0025900D01*
X0050895Y0025778D02*
X0016600Y0025778D01*
X0016800Y0024179D02*
X0023067Y0024179D01*
X0023611Y0024724D02*
X0022176Y0023289D01*
X0021400Y0021414D01*
X0021400Y0019386D01*
X0022176Y0017511D01*
X0023611Y0016076D01*
X0025486Y0015300D01*
X0027514Y0015300D01*
X0029389Y0016076D01*
X0030824Y0017511D01*
X0031600Y0019386D01*
X0031600Y0021414D01*
X0030824Y0023289D01*
X0029389Y0024724D01*
X0027514Y0025500D01*
X0025486Y0025500D01*
X0023611Y0024724D01*
X0021883Y0022581D02*
X0016500Y0022581D01*
X0015553Y0020982D02*
X0021400Y0020982D01*
X0021401Y0019384D02*
X0013629Y0019384D01*
X0009971Y0019384D02*
X0004900Y0019384D01*
X0004900Y0020982D02*
X0008047Y0020982D01*
X0007100Y0022581D02*
X0004900Y0022581D01*
X0004900Y0024179D02*
X0006800Y0024179D01*
X0007000Y0025778D02*
X0004900Y0025778D01*
X0004900Y0027376D02*
X0007805Y0027376D01*
X0029933Y0024179D02*
X0048101Y0024179D01*
X0047038Y0022581D02*
X0031117Y0022581D01*
X0031600Y0020982D02*
X0046624Y0020982D01*
X0046600Y0020200D02*
X0046600Y0019967D01*
X0046735Y0019112D01*
X0047003Y0018289D01*
X0047396Y0017517D01*
X0047905Y0016817D01*
X0048517Y0016205D01*
X0049217Y0015696D01*
X0049989Y0015303D01*
X0050812Y0015035D01*
X0051667Y0014900D01*
X0051900Y0014900D01*
X0051900Y0020200D01*
X0052300Y0020200D01*
X0052300Y0020600D01*
X0051900Y0020600D01*
X0051900Y0020200D01*
X0046600Y0020200D01*
X0046692Y0019384D02*
X0031599Y0019384D01*
X0030937Y0017785D02*
X0047260Y0017785D01*
X0048542Y0016187D02*
X0029499Y0016187D01*
X0023501Y0016187D02*
X0016865Y0016187D01*
X0015943Y0017785D02*
X0022063Y0017785D01*
X0017200Y0014588D02*
X0059200Y0014588D01*
X0059323Y0012990D02*
X0017052Y0012990D01*
X0017067Y0013035D02*
X0017200Y0013875D01*
X0017200Y0014150D01*
X0011950Y0014150D01*
X0011950Y0008900D01*
X0012225Y0008900D01*
X0013065Y0009033D01*
X0013873Y0009296D01*
X0014630Y0009682D01*
X0015318Y0010181D01*
X0015919Y0010782D01*
X0016418Y0011470D01*
X0016804Y0012227D01*
X0017067Y0013035D01*
X0011950Y0012990D02*
X0011650Y0012990D01*
X0011650Y0011391D02*
X0011950Y0011391D01*
X0011950Y0009793D02*
X0011650Y0009793D01*
X0008817Y0009793D02*
X0004900Y0009793D01*
X0004900Y0011391D02*
X0007239Y0011391D01*
X0006548Y0012990D02*
X0004900Y0012990D01*
X0004900Y0014588D02*
X0006400Y0014588D01*
X0006735Y0016187D02*
X0004900Y0016187D01*
X0004900Y0017785D02*
X0007657Y0017785D01*
X0016361Y0011391D02*
X0059996Y0011391D01*
X0061855Y0009793D02*
X0014783Y0009793D01*
X0004900Y0008194D02*
X0338700Y0008194D01*
X0338700Y0006596D02*
X0004900Y0006596D01*
X0004900Y0004997D02*
X0338700Y0004997D01*
X0193214Y0017785D02*
X0190386Y0017785D01*
X0191430Y0016187D02*
X0192170Y0016187D01*
X0182062Y0015927D02*
X0181800Y0015295D01*
X0181168Y0016821D01*
X0182062Y0015927D01*
X0181802Y0016187D02*
X0181430Y0016187D01*
X0181800Y0015295D02*
X0181800Y0013305D01*
X0181039Y0011468D01*
X0179632Y0010061D01*
X0177795Y0009300D01*
X0175805Y0009300D01*
X0173968Y0010061D01*
X0172561Y0011468D01*
X0171900Y0013064D01*
X0171900Y0012188D01*
X0168912Y0009200D01*
X0166800Y0009200D01*
X0166800Y0014300D01*
X0166800Y0014300D01*
X0166800Y0014300D01*
X0166800Y0014300D01*
X0161700Y0014300D01*
X0161700Y0016412D01*
X0164688Y0019400D01*
X0166800Y0019400D01*
X0166800Y0014300D01*
X0166800Y0009200D01*
X0164688Y0009200D01*
X0161700Y0012188D01*
X0161700Y0014300D01*
X0166800Y0014300D01*
X0166800Y0014588D02*
X0166800Y0014588D01*
X0166800Y0012990D02*
X0166800Y0012990D01*
X0161700Y0012990D02*
X0161500Y0012990D01*
X0161500Y0012353D02*
X0158747Y0009600D01*
X0154853Y0009600D01*
X0152100Y0012353D01*
X0152100Y0016247D01*
X0154853Y0019000D01*
X0158747Y0019000D01*
X0161500Y0016247D01*
X0161500Y0012353D01*
X0160538Y0011391D02*
X0162496Y0011391D01*
X0164095Y0009793D02*
X0158939Y0009793D01*
X0154661Y0009793D02*
X0146745Y0009793D01*
X0148604Y0011391D02*
X0153062Y0011391D01*
X0152100Y0012990D02*
X0149277Y0012990D01*
X0149400Y0014588D02*
X0152100Y0014588D01*
X0152100Y0016187D02*
X0149039Y0016187D01*
X0148027Y0017785D02*
X0153638Y0017785D01*
X0159962Y0017785D02*
X0163073Y0017785D01*
X0161700Y0016187D02*
X0161500Y0016187D01*
X0166800Y0016187D02*
X0166800Y0016187D01*
X0166800Y0017785D02*
X0166800Y0017785D01*
X0170527Y0017785D02*
X0172100Y0017785D01*
X0172100Y0016187D02*
X0171900Y0016187D01*
X0171900Y0012990D02*
X0171931Y0012990D01*
X0172638Y0011391D02*
X0171104Y0011391D01*
X0169505Y0009793D02*
X0174616Y0009793D01*
X0178984Y0009793D02*
X0184616Y0009793D01*
X0182638Y0011391D02*
X0180962Y0011391D01*
X0181669Y0012990D02*
X0181931Y0012990D01*
X0166800Y0011391D02*
X0166800Y0011391D01*
X0166800Y0009793D02*
X0166800Y0009793D01*
X0161700Y0014588D02*
X0161500Y0014588D01*
X0164671Y0019384D02*
X0145354Y0019384D01*
X0143246Y0019384D02*
X0135354Y0019384D01*
X0133246Y0019384D02*
X0125354Y0019384D01*
X0123246Y0019384D02*
X0115354Y0019384D01*
X0113246Y0019384D02*
X0105354Y0019384D01*
X0103246Y0019384D02*
X0095354Y0019384D01*
X0094093Y0020982D02*
X0172100Y0020982D01*
X0172100Y0019384D02*
X0168929Y0019384D01*
X0166800Y0019384D02*
X0166800Y0019384D01*
X0172100Y0022581D02*
X0095692Y0022581D01*
X0097290Y0024179D02*
X0172100Y0024179D01*
X0176500Y0024179D02*
X0177100Y0024179D01*
X0177100Y0022581D02*
X0176500Y0022581D01*
X0176500Y0020982D02*
X0177100Y0020982D01*
X0176500Y0019384D02*
X0178605Y0019384D01*
X0141855Y0009793D02*
X0136745Y0009793D01*
X0138604Y0011391D02*
X0139996Y0011391D01*
X0139323Y0012990D02*
X0139277Y0012990D01*
X0139039Y0016187D02*
X0139561Y0016187D01*
X0140573Y0017785D02*
X0138027Y0017785D01*
X0130573Y0017785D02*
X0128027Y0017785D01*
X0129039Y0016187D02*
X0129561Y0016187D01*
X0120573Y0017785D02*
X0118027Y0017785D01*
X0119039Y0016187D02*
X0119561Y0016187D01*
X0110573Y0017785D02*
X0108027Y0017785D01*
X0109039Y0016187D02*
X0109561Y0016187D01*
X0100573Y0017785D02*
X0098027Y0017785D01*
X0099039Y0016187D02*
X0099561Y0016187D01*
X0099323Y0012990D02*
X0099277Y0012990D01*
X0098604Y0011391D02*
X0099996Y0011391D01*
X0101855Y0009793D02*
X0096745Y0009793D01*
X0091855Y0009793D02*
X0086745Y0009793D01*
X0088604Y0011391D02*
X0089996Y0011391D01*
X0089323Y0012990D02*
X0089277Y0012990D01*
X0084300Y0014300D02*
X0109300Y0039300D01*
X0119300Y0039300D01*
X0118652Y0041763D02*
X0066500Y0041763D01*
X0066500Y0043361D02*
X0120250Y0043361D01*
X0112496Y0044960D02*
X0106104Y0044960D01*
X0106962Y0045316D02*
X0105235Y0044600D01*
X0103365Y0044600D01*
X0101638Y0045316D01*
X0100316Y0046638D01*
X0099600Y0048365D01*
X0099600Y0050235D01*
X0100316Y0051962D01*
X0101638Y0053284D01*
X0103365Y0054000D01*
X0105235Y0054000D01*
X0106962Y0053284D01*
X0108284Y0051962D01*
X0109000Y0050235D01*
X0109000Y0048365D01*
X0108284Y0046638D01*
X0106962Y0045316D01*
X0108205Y0046558D02*
X0110395Y0046558D01*
X0109686Y0048157D02*
X0108914Y0048157D01*
X0109000Y0049755D02*
X0109600Y0049755D01*
X0110063Y0051354D02*
X0108537Y0051354D01*
X0107294Y0052952D02*
X0111306Y0052952D01*
X0101306Y0052952D02*
X0097294Y0052952D01*
X0096962Y0053284D02*
X0095235Y0054000D01*
X0093365Y0054000D01*
X0091638Y0053284D01*
X0090316Y0051962D01*
X0089600Y0050235D01*
X0089600Y0048365D01*
X0090316Y0046638D01*
X0091638Y0045316D01*
X0093365Y0044600D01*
X0095235Y0044600D01*
X0096962Y0045316D01*
X0098284Y0046638D01*
X0099000Y0048365D01*
X0099000Y0050235D01*
X0098284Y0051962D01*
X0096962Y0053284D01*
X0098537Y0051354D02*
X0100063Y0051354D01*
X0099600Y0049755D02*
X0099000Y0049755D01*
X0098914Y0048157D02*
X0099686Y0048157D01*
X0100395Y0046558D02*
X0098205Y0046558D01*
X0096104Y0044960D02*
X0102496Y0044960D01*
X0092496Y0044960D02*
X0086104Y0044960D01*
X0088205Y0046558D02*
X0090395Y0046558D01*
X0089686Y0048157D02*
X0088914Y0048157D01*
X0089000Y0049755D02*
X0089600Y0049755D01*
X0090063Y0051354D02*
X0088537Y0051354D01*
X0087294Y0052952D02*
X0091306Y0052952D01*
X0086500Y0054551D02*
X0279556Y0054551D01*
X0293568Y0056149D02*
X0086500Y0056149D01*
X0086500Y0057748D02*
X0293509Y0057748D01*
X0293821Y0059346D02*
X0086500Y0059346D01*
X0084300Y0061800D02*
X0084300Y0049300D01*
X0080063Y0051354D02*
X0078537Y0051354D01*
X0077294Y0052952D02*
X0081306Y0052952D01*
X0082100Y0054551D02*
X0076500Y0054551D01*
X0076500Y0056149D02*
X0082100Y0056149D01*
X0064300Y0049300D02*
X0064300Y0031800D01*
X0057900Y0038200D01*
X0052100Y0038200D01*
X0056447Y0035369D02*
X0057620Y0035369D01*
X0060645Y0038566D02*
X0062100Y0038566D01*
X0062100Y0040164D02*
X0059047Y0040164D01*
X0066500Y0040164D02*
X0107053Y0040164D01*
X0105454Y0038566D02*
X0066500Y0038566D01*
X0066500Y0036967D02*
X0103856Y0036967D01*
X0102257Y0035369D02*
X0066500Y0035369D01*
X0066500Y0033770D02*
X0100659Y0033770D01*
X0099060Y0032172D02*
X0066500Y0032172D01*
X0064300Y0031800D02*
X0064300Y0014300D01*
X0069039Y0016187D02*
X0069130Y0016187D01*
X0070034Y0017785D02*
X0068027Y0017785D01*
X0066500Y0019384D02*
X0072162Y0019384D01*
X0074100Y0019384D02*
X0074500Y0019384D01*
X0076438Y0019384D02*
X0083246Y0019384D01*
X0085354Y0019384D02*
X0086272Y0019384D01*
X0087871Y0020982D02*
X0066500Y0020982D01*
X0062100Y0020982D02*
X0057576Y0020982D01*
X0057600Y0020200D02*
X0052300Y0020200D01*
X0052300Y0014900D01*
X0052533Y0014900D01*
X0053388Y0015035D01*
X0054211Y0015303D01*
X0054983Y0015696D01*
X0055683Y0016205D01*
X0056295Y0016817D01*
X0056804Y0017517D01*
X0057197Y0018289D01*
X0057465Y0019112D01*
X0057600Y0019967D01*
X0057600Y0020200D01*
X0057508Y0019384D02*
X0062100Y0019384D01*
X0060573Y0017785D02*
X0056940Y0017785D01*
X0055658Y0016187D02*
X0059561Y0016187D01*
X0052300Y0016187D02*
X0051900Y0016187D01*
X0051900Y0017785D02*
X0052300Y0017785D01*
X0052300Y0019384D02*
X0051900Y0019384D01*
X0051900Y0020982D02*
X0052300Y0020982D01*
X0052300Y0022581D02*
X0051900Y0022581D01*
X0051900Y0024179D02*
X0052300Y0024179D01*
X0056099Y0024179D02*
X0062100Y0024179D01*
X0062100Y0022581D02*
X0057162Y0022581D01*
X0066500Y0022581D02*
X0089469Y0022581D01*
X0091068Y0024179D02*
X0066500Y0024179D01*
X0066500Y0025778D02*
X0092666Y0025778D01*
X0094265Y0027376D02*
X0066500Y0027376D01*
X0066500Y0028975D02*
X0095863Y0028975D01*
X0097462Y0030573D02*
X0066500Y0030573D01*
X0092495Y0019384D02*
X0093246Y0019384D01*
X0080573Y0017785D02*
X0078566Y0017785D01*
X0079470Y0016187D02*
X0079561Y0016187D01*
X0074500Y0016187D02*
X0074100Y0016187D01*
X0074100Y0017785D02*
X0074500Y0017785D01*
X0074500Y0014588D02*
X0074100Y0014588D01*
X0074100Y0012990D02*
X0074500Y0012990D01*
X0074500Y0011391D02*
X0074100Y0011391D01*
X0074100Y0009793D02*
X0074500Y0009793D01*
X0077453Y0009793D02*
X0081855Y0009793D01*
X0079996Y0011391D02*
X0078985Y0011391D01*
X0071147Y0009793D02*
X0066745Y0009793D01*
X0068604Y0011391D02*
X0069615Y0011391D01*
X0106745Y0009793D02*
X0111855Y0009793D01*
X0109996Y0011391D02*
X0108604Y0011391D01*
X0109277Y0012990D02*
X0109323Y0012990D01*
X0116745Y0009793D02*
X0121855Y0009793D01*
X0119996Y0011391D02*
X0118604Y0011391D01*
X0119277Y0012990D02*
X0119323Y0012990D01*
X0126745Y0009793D02*
X0131855Y0009793D01*
X0129996Y0011391D02*
X0128604Y0011391D01*
X0129277Y0012990D02*
X0129323Y0012990D01*
X0137251Y0028975D02*
X0102086Y0028975D01*
X0103684Y0030573D02*
X0136195Y0030573D01*
X0136000Y0032172D02*
X0105283Y0032172D01*
X0106881Y0033770D02*
X0136503Y0033770D01*
X0085069Y0064142D02*
X0221584Y0064142D01*
X0220500Y0065740D02*
X0083471Y0065740D01*
X0081872Y0067339D02*
X0220500Y0067339D01*
X0221063Y0068937D02*
X0080274Y0068937D01*
X0077248Y0065740D02*
X0070971Y0065740D01*
X0072569Y0064142D02*
X0078847Y0064142D01*
X0060194Y0076930D02*
X0050600Y0076930D01*
X0050445Y0078529D02*
X0059600Y0078529D01*
X0031129Y0083324D02*
X0027471Y0083324D01*
X0029000Y0084923D02*
X0029600Y0084923D01*
X0029600Y0086521D02*
X0029000Y0086521D01*
X0029000Y0088120D02*
X0029600Y0088120D01*
X0030571Y0089718D02*
X0028029Y0089718D01*
X0026430Y0091317D02*
X0032170Y0091317D01*
X0024925Y0070536D02*
X0004900Y0070536D01*
X0004900Y0068937D02*
X0009930Y0068937D01*
X0007768Y0067339D02*
X0004900Y0067339D01*
X0004900Y0065740D02*
X0006985Y0065740D01*
X0006800Y0064142D02*
X0004900Y0064142D01*
X0004900Y0062543D02*
X0007116Y0062543D01*
X0008084Y0060945D02*
X0004900Y0060945D01*
X0016484Y0062543D02*
X0016932Y0062543D01*
X0016800Y0064142D02*
X0018531Y0064142D01*
X0020129Y0065740D02*
X0016615Y0065740D01*
X0015832Y0067339D02*
X0021728Y0067339D01*
X0023326Y0068937D02*
X0013670Y0068937D01*
X0024753Y0064142D02*
X0028531Y0064142D01*
X0030129Y0065740D02*
X0026352Y0065740D01*
X0026932Y0062543D02*
X0023155Y0062543D01*
X0021556Y0060945D02*
X0025334Y0060945D01*
X0239300Y0081726D02*
X0239300Y0081726D01*
X0241438Y0081726D02*
X0256730Y0081726D01*
X0259300Y0081726D02*
X0259300Y0081726D01*
X0259300Y0080127D02*
X0259300Y0080127D01*
X0261870Y0081726D02*
X0284945Y0081726D01*
X0265697Y0080127D02*
X0263468Y0080127D01*
X0264600Y0078529D02*
X0264712Y0078529D01*
X0259300Y0078529D02*
X0259300Y0078529D01*
X0259300Y0076930D02*
X0259300Y0076930D01*
X0300296Y0062543D02*
X0301296Y0062543D01*
X0301296Y0060945D02*
X0300296Y0060945D01*
X0300296Y0059346D02*
X0301296Y0059346D01*
X0301296Y0057748D02*
X0300296Y0057748D01*
X0300296Y0056149D02*
X0301296Y0056149D01*
X0301296Y0054551D02*
X0300296Y0054551D01*
X0324781Y0064142D02*
X0338700Y0064142D01*
X0338700Y0065740D02*
X0325856Y0065740D01*
X0326442Y0070536D02*
X0338700Y0070536D01*
X0338700Y0072134D02*
X0325897Y0072134D01*
X0324858Y0073733D02*
X0338700Y0073733D01*
X0338700Y0075332D02*
X0322908Y0075332D01*
X0319800Y0075332D02*
X0318800Y0075332D01*
X0318800Y0073733D02*
X0319800Y0073733D01*
X0338700Y0096112D02*
X0294600Y0096112D01*
X0293385Y0097711D02*
X0338700Y0097711D01*
X0289500Y0097711D02*
X0289100Y0097711D01*
X0289100Y0096112D02*
X0289500Y0096112D01*
M02*
