%
M48
M72
T01C0.0320
T02C0.0380
T03C0.0400
T04C0.0440
T05C0.0520
%
T01
X13980Y3180
X15880Y3180
X18680Y2680
X18680Y3680
X22430Y4680
X19430Y4930
X18430Y4930
X17430Y4930
X16430Y4930
X15430Y4930
X14430Y4930
X13430Y4930
X12430Y4930
X11430Y4930
X10430Y4930
X9430Y4930
X8430Y4930
X7430Y4930
X6430Y4930
X4680Y5680
X4680Y7680
X6430Y7930
X7430Y7930
X8430Y7930
X9430Y7930
X10430Y7930
X11430Y7930
X12430Y7930
X13430Y7930
X14430Y7930
X15430Y7930
X16430Y7930
X17430Y7930
X18430Y7930
X19430Y7930
X22930Y8680
X23930Y8680
X25930Y7680
X26930Y7680
X22430Y6680
X27180Y4930
X28180Y4930
X22680Y2180
X21680Y2180
X16680Y1430
X15680Y1430
X3430Y8680
X2430Y8680
T02
X1180Y1430
X1180Y2430
X1180Y3430
X1180Y4430
X1180Y5430
X1180Y6430
X17680Y1430
X18680Y1430
X19680Y1430
X20680Y1430
T03
X26680Y1930
X27680Y1930
X28680Y1930
X14430Y1430
X13430Y1430
X12430Y1430
X11430Y1430
X10430Y1430
X9430Y1430
X8430Y1430
X7430Y1430
X6430Y1430
X5210Y2040
X2650Y2040
X2650Y3820
X5210Y3820
X6430Y9180
X7430Y9180
X8430Y9180
X9430Y9180
X10430Y9180
X11430Y9180
X12430Y9180
X13430Y9180
X14430Y9180
X15430Y9180
X16430Y9180
X17430Y9180
X18430Y9180
X19430Y9180
X20430Y9180
X21430Y9180
X28930Y9430
X28930Y8430
T04
X24430Y6680
X24430Y2680
T05
X31930Y4536
X30080Y5717
X31930Y6899
M30
